G04 #@! TF.GenerationSoftware,KiCad,Pcbnew,(5.1.10)-1*
G04 #@! TF.CreationDate,2023-08-02T14:35:23+03:00*
G04 #@! TF.ProjectId,boost_conv,626f6f73-745f-4636-9f6e-762e6b696361,rev?*
G04 #@! TF.SameCoordinates,Original*
G04 #@! TF.FileFunction,Copper,L1,Top*
G04 #@! TF.FilePolarity,Positive*
%FSLAX46Y46*%
G04 Gerber Fmt 4.6, Leading zero omitted, Abs format (unit mm)*
G04 Created by KiCad (PCBNEW (5.1.10)-1) date 2023-08-02 14:35:23*
%MOMM*%
%LPD*%
G01*
G04 APERTURE LIST*
G04 #@! TA.AperFunction,ComponentPad*
%ADD10O,1.600000X1.600000*%
G04 #@! TD*
G04 #@! TA.AperFunction,ComponentPad*
%ADD11C,1.600000*%
G04 #@! TD*
G04 #@! TA.AperFunction,ComponentPad*
%ADD12R,1.600000X1.600000*%
G04 #@! TD*
G04 #@! TA.AperFunction,ComponentPad*
%ADD13O,2.000000X2.000000*%
G04 #@! TD*
G04 #@! TA.AperFunction,ComponentPad*
%ADD14R,2.000000X2.000000*%
G04 #@! TD*
G04 #@! TA.AperFunction,ComponentPad*
%ADD15R,1.800000X1.800000*%
G04 #@! TD*
G04 #@! TA.AperFunction,ComponentPad*
%ADD16C,1.800000*%
G04 #@! TD*
G04 #@! TA.AperFunction,ComponentPad*
%ADD17R,1.700000X1.700000*%
G04 #@! TD*
G04 #@! TA.AperFunction,ComponentPad*
%ADD18O,1.700000X1.700000*%
G04 #@! TD*
G04 #@! TA.AperFunction,ComponentPad*
%ADD19C,3.600000*%
G04 #@! TD*
G04 #@! TA.AperFunction,ComponentPad*
%ADD20R,4.500000X2.500000*%
G04 #@! TD*
G04 #@! TA.AperFunction,ComponentPad*
%ADD21O,4.500000X2.500000*%
G04 #@! TD*
G04 #@! TA.AperFunction,ComponentPad*
%ADD22C,1.440000*%
G04 #@! TD*
G04 #@! TA.AperFunction,Conductor*
%ADD23C,0.400000*%
G04 #@! TD*
G04 #@! TA.AperFunction,Conductor*
%ADD24C,0.700000*%
G04 #@! TD*
G04 #@! TA.AperFunction,Conductor*
%ADD25C,1.500000*%
G04 #@! TD*
G04 #@! TA.AperFunction,Conductor*
%ADD26C,1.000000*%
G04 #@! TD*
G04 #@! TA.AperFunction,Conductor*
%ADD27C,2.000000*%
G04 #@! TD*
G04 APERTURE END LIST*
D10*
X103784400Y-130276600D03*
D11*
X111404400Y-130276600D03*
X88569800Y-112482000D03*
D12*
X88569800Y-109982000D03*
D13*
X140436600Y-113665000D03*
D14*
X145516600Y-113665000D03*
D11*
X86207600Y-140233400D03*
X91207600Y-140233400D03*
X135458200Y-139369800D03*
X130458200Y-139369800D03*
X72038200Y-125730000D03*
X77038200Y-125730000D03*
X91236800Y-122859800D03*
X86236800Y-122859800D03*
X145796000Y-135661400D03*
X145796000Y-140661400D03*
D15*
X114630200Y-138074400D03*
D16*
X114630200Y-140614400D03*
D17*
X76352400Y-113461800D03*
D18*
X76352400Y-110921800D03*
D17*
X151257000Y-113792000D03*
D18*
X153797000Y-113792000D03*
D19*
X111683800Y-110159800D03*
X101523800Y-110159800D03*
D20*
X133553200Y-119176800D03*
D21*
X133553200Y-113726800D03*
X133553200Y-108276800D03*
D10*
X79578200Y-135585200D03*
D11*
X71958200Y-135585200D03*
X79527400Y-130429000D03*
D10*
X71907400Y-130429000D03*
D11*
X100711000Y-144907000D03*
D10*
X100711000Y-137287000D03*
X114782600Y-144907000D03*
D11*
X107162600Y-144907000D03*
X130403600Y-145719800D03*
D10*
X138023600Y-145719800D03*
D11*
X144576800Y-145567400D03*
D10*
X152196800Y-145567400D03*
D11*
X145567400Y-123952000D03*
D10*
X145567400Y-131572000D03*
D22*
X153339800Y-130352800D03*
X153339800Y-127812800D03*
X153339800Y-125272800D03*
D10*
X161594800Y-131826000D03*
D11*
X161594800Y-124206000D03*
D10*
X123266200Y-137744200D03*
D11*
X123266200Y-130124200D03*
D18*
X77546200Y-142443200D03*
D17*
X77546200Y-144983200D03*
D12*
X92557600Y-135407400D03*
D10*
X84937600Y-127787400D03*
X92557600Y-132867400D03*
X84937600Y-130327400D03*
X92557600Y-130327400D03*
X84937600Y-132867400D03*
X92557600Y-127787400D03*
X84937600Y-135407400D03*
X129209800Y-135077200D03*
X136829800Y-127457200D03*
X129209800Y-132537200D03*
X136829800Y-129997200D03*
X129209800Y-129997200D03*
X136829800Y-132537200D03*
X129209800Y-127457200D03*
D12*
X136829800Y-135077200D03*
D23*
X71907400Y-130429000D02*
X74904600Y-130429000D01*
X74904600Y-130429000D02*
X77038200Y-128295400D01*
X77038200Y-128295400D02*
X81305400Y-128295400D01*
X83337400Y-130327400D02*
X84937600Y-130327400D01*
X81305400Y-128295400D02*
X83337400Y-130327400D01*
X72038200Y-130298200D02*
X71907400Y-130429000D01*
X72038200Y-125730000D02*
X72038200Y-130298200D01*
X84937600Y-130327400D02*
X86791800Y-130327400D01*
X89331800Y-132867400D02*
X92557600Y-132867400D01*
X86791800Y-130327400D02*
X89331800Y-132867400D01*
D24*
X86236800Y-122859800D02*
X85039200Y-124057400D01*
X85039200Y-127685800D02*
X84937600Y-127787400D01*
X85039200Y-124057400D02*
X85039200Y-127685800D01*
D23*
X153339800Y-127812800D02*
X153339800Y-130352800D01*
X152120600Y-131572000D02*
X153339800Y-130352800D01*
X145567400Y-131572000D02*
X152120600Y-131572000D01*
X143992600Y-129997200D02*
X145567400Y-131572000D01*
X136829800Y-129997200D02*
X143992600Y-129997200D01*
X145567400Y-135432800D02*
X145796000Y-135661400D01*
X145567400Y-131572000D02*
X145567400Y-135432800D01*
X113842800Y-137287000D02*
X114630200Y-138074400D01*
X100711000Y-137287000D02*
X113842800Y-137287000D01*
X114630200Y-138074400D02*
X119507000Y-138074400D01*
X125044200Y-132537200D02*
X129209800Y-132537200D01*
X119507000Y-138074400D02*
X125044200Y-132537200D01*
X114782600Y-140766800D02*
X114630200Y-140614400D01*
X114782600Y-144907000D02*
X114782600Y-140766800D01*
D24*
X145516600Y-113665000D02*
X145415000Y-113665000D01*
X145567400Y-113817400D02*
X145567400Y-123952000D01*
X145415000Y-113665000D02*
X145567400Y-113817400D01*
D25*
X151130000Y-113665000D02*
X151257000Y-113792000D01*
X145516600Y-113665000D02*
X151130000Y-113665000D01*
D26*
X123342400Y-130048000D02*
X123266200Y-130124200D01*
X123113800Y-130276600D02*
X123266200Y-130124200D01*
X111404400Y-130276600D02*
X123113800Y-130276600D01*
X133502400Y-119126000D02*
X133553200Y-119176800D01*
X127762000Y-119126000D02*
X133502400Y-119126000D01*
X123266200Y-123621800D02*
X127762000Y-119126000D01*
X123266200Y-130124200D02*
X123266200Y-123621800D01*
D23*
X79527400Y-130429000D02*
X80924400Y-130429000D01*
X83362800Y-132867400D02*
X84937600Y-132867400D01*
X80924400Y-130429000D02*
X83362800Y-132867400D01*
X79578200Y-130479800D02*
X79527400Y-130429000D01*
X79578200Y-135585200D02*
X79578200Y-130479800D01*
X144424400Y-145719800D02*
X144576800Y-145567400D01*
X136829800Y-132537200D02*
X139801600Y-132537200D01*
X141097000Y-133832600D02*
X141097000Y-145719800D01*
X139801600Y-132537200D02*
X141097000Y-133832600D01*
X141097000Y-145719800D02*
X144424400Y-145719800D01*
X138023600Y-145719800D02*
X141097000Y-145719800D01*
D26*
X103733600Y-130327400D02*
X103784400Y-130276600D01*
X92557600Y-130327400D02*
X103733600Y-130327400D01*
D23*
X160528000Y-125272800D02*
X161594800Y-124206000D01*
X153339800Y-125272800D02*
X160528000Y-125272800D01*
D27*
X112141000Y-109982000D02*
X121615200Y-109982000D01*
X125309200Y-113676000D02*
X130784600Y-113676000D01*
X121615200Y-109982000D02*
X125309200Y-113676000D01*
X140425600Y-113676000D02*
X140436600Y-113665000D01*
X130784600Y-113676000D02*
X140425600Y-113676000D01*
D24*
X129209800Y-138121400D02*
X130458200Y-139369800D01*
X129209800Y-135077200D02*
X129209800Y-138121400D01*
X84937600Y-138963400D02*
X86207600Y-140233400D01*
X84937600Y-135407400D02*
X84937600Y-138963400D01*
X83997800Y-142443200D02*
X86207600Y-140233400D01*
X77546200Y-142443200D02*
X83997800Y-142443200D01*
D27*
X77216000Y-109982000D02*
X88569800Y-109982000D01*
X76327000Y-110871000D02*
X77216000Y-109982000D01*
X88569800Y-109982000D02*
X101981000Y-109982000D01*
D25*
X75124919Y-110871000D02*
X69646800Y-116349119D01*
X76327000Y-110871000D02*
X75124919Y-110871000D01*
X69646800Y-133273800D02*
X71958200Y-135585200D01*
X69646800Y-116349119D02*
X69646800Y-133273800D01*
X71958200Y-135585200D02*
X71958200Y-142163800D01*
X74777600Y-144983200D02*
X77546200Y-144983200D01*
X71958200Y-142163800D02*
X74777600Y-144983200D01*
X100634800Y-144983200D02*
X100711000Y-144907000D01*
X77546200Y-144983200D02*
X100634800Y-144983200D01*
X107162600Y-144907000D02*
X100711000Y-144907000D01*
X130403600Y-139424400D02*
X130458200Y-139369800D01*
X130403600Y-145719800D02*
X130403600Y-139424400D01*
X107162600Y-144907000D02*
X110947200Y-148691600D01*
X127431800Y-148691600D02*
X130403600Y-145719800D01*
X110947200Y-148691600D02*
X127431800Y-148691600D01*
M02*
