M48
; DRILL file {KiCad (5.1.10)-1} date 08/02/23 14:35:37
; FORMAT={-:-/ absolute / metric / decimal}
; #@! TF.CreationDate,2023-08-02T14:35:37+03:00
; #@! TF.GenerationSoftware,Kicad,Pcbnew,(5.1.10)-1
; #@! TF.FileFunction,Plated,1,2,PTH
FMAT,2
METRIC
T1C0.800
T2C0.900
T3C1.000
T4C1.100
T5C1.500
T6C1.800
%
G90
G05
T1
X71.907Y-130.429
X71.958Y-135.585
X72.038Y-125.73
X77.038Y-125.73
X79.527Y-130.429
X79.578Y-135.585
X84.938Y-127.787
X84.938Y-130.327
X84.938Y-132.867
X84.938Y-135.407
X86.208Y-140.233
X86.237Y-122.86
X88.57Y-109.982
X88.57Y-112.482
X91.208Y-140.233
X91.237Y-122.86
X92.558Y-127.787
X92.558Y-130.327
X92.558Y-132.867
X92.558Y-135.407
X100.711Y-137.287
X100.711Y-144.907
X103.784Y-130.277
X107.163Y-144.907
X111.404Y-130.277
X114.783Y-144.907
X123.266Y-130.124
X123.266Y-137.744
X129.21Y-127.457
X129.21Y-129.997
X129.21Y-132.537
X129.21Y-135.077
X130.404Y-145.72
X130.458Y-139.37
X135.458Y-139.37
X136.83Y-127.457
X136.83Y-129.997
X136.83Y-132.537
X136.83Y-135.077
X138.024Y-145.72
X144.577Y-145.567
X145.567Y-123.952
X145.567Y-131.572
X145.796Y-135.661
X145.796Y-140.661
X152.197Y-145.567
X153.34Y-125.273
X153.34Y-127.813
X153.34Y-130.353
X161.595Y-124.206
X161.595Y-131.826
T2
X114.63Y-138.074
X114.63Y-140.614
T3
X76.352Y-110.922
X76.352Y-113.462
X77.546Y-142.443
X77.546Y-144.983
X151.257Y-113.792
X153.797Y-113.792
T4
X140.437Y-113.665
X145.517Y-113.665
T5
X133.553Y-108.277
X133.553Y-113.727
X133.553Y-119.177
T6
X101.524Y-110.16
X111.684Y-110.16
T0
M30
