%FSLAX45Y45*%
G04 Gerber Fmt 4.5, Leading zero omitted, Abs format (unit mm)*
G04 Created by KiCad (PCBNEW (5.1.10)-1) date 2023-08-02 14:35:38*
%MOMM*%
%LPD*%
G01*
G04 APERTURE LIST*
%TA.AperFunction,Profile*%
%ADD10C,0.200000*%
%TD*%
%ADD11C,0.200000*%
%ADD12C,0.300000*%
G04 APERTURE END LIST*
D10*
X16555700Y-10257560D02*
X7055700Y-10257560D01*
X6805700Y-10507560D02*
X6805700Y-15007560D01*
X16805700Y-15007560D02*
G75*
G02*
X16555700Y-15257560I-250000J0D01*
G01*
X16555700Y-10257560D02*
G75*
G02*
X16805700Y-10507560I0J-250000D01*
G01*
X16805700Y-15007560D02*
X16805700Y-10507560D01*
X7055700Y-15257560D02*
G75*
G02*
X6805700Y-15007560I0J250000D01*
G01*
X6805700Y-10507560D02*
G75*
G02*
X7055700Y-10257560I250000J0D01*
G01*
X7055700Y-15257560D02*
X16555700Y-15257560D01*
D11*
X7150740Y-13002900D02*
X7230740Y-13082900D01*
X7230740Y-13002900D02*
X7150740Y-13082900D01*
X7155820Y-13518520D02*
X7235820Y-13598520D01*
X7235820Y-13518520D02*
X7155820Y-13598520D01*
X7163820Y-12533000D02*
X7243820Y-12613000D01*
X7243820Y-12533000D02*
X7163820Y-12613000D01*
X7663820Y-12533000D02*
X7743820Y-12613000D01*
X7743820Y-12533000D02*
X7663820Y-12613000D01*
X7912740Y-13002900D02*
X7992740Y-13082900D01*
X7992740Y-13002900D02*
X7912740Y-13082900D01*
X7917820Y-13518520D02*
X7997820Y-13598520D01*
X7997820Y-13518520D02*
X7917820Y-13598520D01*
X8453760Y-12738740D02*
X8533760Y-12818740D01*
X8533760Y-12738740D02*
X8453760Y-12818740D01*
X8453760Y-12992740D02*
X8533760Y-13072740D01*
X8533760Y-12992740D02*
X8453760Y-13072740D01*
X8453760Y-13246740D02*
X8533760Y-13326740D01*
X8533760Y-13246740D02*
X8453760Y-13326740D01*
X8453760Y-13500740D02*
X8533760Y-13580740D01*
X8533760Y-13500740D02*
X8453760Y-13580740D01*
X8580760Y-13983340D02*
X8660760Y-14063340D01*
X8660760Y-13983340D02*
X8580760Y-14063340D01*
X8583680Y-12245980D02*
X8663680Y-12325980D01*
X8663680Y-12245980D02*
X8583680Y-12325980D01*
X8816980Y-10958200D02*
X8896980Y-11038200D01*
X8896980Y-10958200D02*
X8816980Y-11038200D01*
X8816980Y-11208200D02*
X8896980Y-11288200D01*
X8896980Y-11208200D02*
X8816980Y-11288200D01*
X9080760Y-13983340D02*
X9160760Y-14063340D01*
X9160760Y-13983340D02*
X9080760Y-14063340D01*
X9083680Y-12245980D02*
X9163680Y-12325980D01*
X9163680Y-12245980D02*
X9083680Y-12325980D01*
X9215760Y-12738740D02*
X9295760Y-12818740D01*
X9295760Y-12738740D02*
X9215760Y-12818740D01*
X9215760Y-12992740D02*
X9295760Y-13072740D01*
X9295760Y-12992740D02*
X9215760Y-13072740D01*
X9215760Y-13246740D02*
X9295760Y-13326740D01*
X9295760Y-13246740D02*
X9215760Y-13326740D01*
X9215760Y-13500740D02*
X9295760Y-13580740D01*
X9295760Y-13500740D02*
X9215760Y-13580740D01*
X10031100Y-13688700D02*
X10111100Y-13768700D01*
X10111100Y-13688700D02*
X10031100Y-13768700D01*
X10031100Y-14450700D02*
X10111100Y-14530700D01*
X10111100Y-14450700D02*
X10031100Y-14530700D01*
X10338440Y-12987660D02*
X10418440Y-13067660D01*
X10418440Y-12987660D02*
X10338440Y-13067660D01*
X10676260Y-14450700D02*
X10756260Y-14530700D01*
X10756260Y-14450700D02*
X10676260Y-14530700D01*
X11100440Y-12987660D02*
X11180440Y-13067660D01*
X11180440Y-12987660D02*
X11100440Y-13067660D01*
X11438260Y-14450700D02*
X11518260Y-14530700D01*
X11518260Y-14450700D02*
X11438260Y-14530700D01*
X12286620Y-12972420D02*
X12366620Y-13052420D01*
X12366620Y-12972420D02*
X12286620Y-13052420D01*
X12286620Y-13734420D02*
X12366620Y-13814420D01*
X12366620Y-13734420D02*
X12286620Y-13814420D01*
X12880980Y-12705720D02*
X12960980Y-12785720D01*
X12960980Y-12705720D02*
X12880980Y-12785720D01*
X12880980Y-12959720D02*
X12960980Y-13039720D01*
X12960980Y-12959720D02*
X12880980Y-13039720D01*
X12880980Y-13213720D02*
X12960980Y-13293720D01*
X12960980Y-13213720D02*
X12880980Y-13293720D01*
X12880980Y-13467720D02*
X12960980Y-13547720D01*
X12960980Y-13467720D02*
X12880980Y-13547720D01*
X13000360Y-14531980D02*
X13080360Y-14611980D01*
X13080360Y-14531980D02*
X13000360Y-14611980D01*
X13005820Y-13896980D02*
X13085820Y-13976980D01*
X13085820Y-13896980D02*
X13005820Y-13976980D01*
X13505820Y-13896980D02*
X13585820Y-13976980D01*
X13585820Y-13896980D02*
X13505820Y-13976980D01*
X13642980Y-12705720D02*
X13722980Y-12785720D01*
X13722980Y-12705720D02*
X13642980Y-12785720D01*
X13642980Y-12959720D02*
X13722980Y-13039720D01*
X13722980Y-12959720D02*
X13642980Y-13039720D01*
X13642980Y-13213720D02*
X13722980Y-13293720D01*
X13722980Y-13213720D02*
X13642980Y-13293720D01*
X13642980Y-13467720D02*
X13722980Y-13547720D01*
X13722980Y-13467720D02*
X13642980Y-13547720D01*
X13762360Y-14531980D02*
X13842360Y-14611980D01*
X13842360Y-14531980D02*
X13762360Y-14611980D01*
X14417680Y-14516740D02*
X14497680Y-14596740D01*
X14497680Y-14516740D02*
X14417680Y-14596740D01*
X14516740Y-12355200D02*
X14596740Y-12435200D01*
X14596740Y-12355200D02*
X14516740Y-12435200D01*
X14516740Y-13117200D02*
X14596740Y-13197200D01*
X14596740Y-13117200D02*
X14516740Y-13197200D01*
X14539600Y-13526140D02*
X14619600Y-13606140D01*
X14619600Y-13526140D02*
X14539600Y-13606140D01*
X14539600Y-14026140D02*
X14619600Y-14106140D01*
X14619600Y-14026140D02*
X14539600Y-14106140D01*
X15179680Y-14516740D02*
X15259680Y-14596740D01*
X15259680Y-14516740D02*
X15179680Y-14596740D01*
X15293980Y-12487280D02*
X15373980Y-12567280D01*
X15373980Y-12487280D02*
X15293980Y-12567280D01*
X15293980Y-12741280D02*
X15373980Y-12821280D01*
X15373980Y-12741280D02*
X15293980Y-12821280D01*
X15293980Y-12995280D02*
X15373980Y-13075280D01*
X15373980Y-12995280D02*
X15293980Y-13075280D01*
X16119480Y-12380600D02*
X16199480Y-12460600D01*
X16199480Y-12380600D02*
X16119480Y-12460600D01*
X16119480Y-13142600D02*
X16199480Y-13222600D01*
X16199480Y-13142600D02*
X16119480Y-13222600D01*
X11508020Y-13807440D02*
G75*
G03*
X11508020Y-13807440I-45000J0D01*
G01*
X11508020Y-14061440D02*
G75*
G03*
X11508020Y-14061440I-45000J0D01*
G01*
X7635240Y-11042180D02*
X7635240Y-11142180D01*
X7585240Y-11092180D02*
X7685240Y-11092180D01*
X7635240Y-11296180D02*
X7635240Y-11396180D01*
X7585240Y-11346180D02*
X7685240Y-11346180D01*
X7754620Y-14194320D02*
X7754620Y-14294320D01*
X7704620Y-14244320D02*
X7804620Y-14244320D01*
X7754620Y-14448320D02*
X7754620Y-14548320D01*
X7704620Y-14498320D02*
X7804620Y-14498320D01*
X15125700Y-11329200D02*
X15125700Y-11429200D01*
X15075700Y-11379200D02*
X15175700Y-11379200D01*
X15379700Y-11329200D02*
X15379700Y-11429200D01*
X15329700Y-11379200D02*
X15429700Y-11379200D01*
X14082551Y-11405391D02*
X14082551Y-11327609D01*
X14004769Y-11327609D01*
X14004769Y-11405391D01*
X14082551Y-11405391D01*
X14590551Y-11405391D02*
X14590551Y-11327609D01*
X14512769Y-11327609D01*
X14512769Y-11405391D01*
X14590551Y-11405391D01*
X13355320Y-10902680D02*
X13430320Y-10827680D01*
X13355320Y-10752680D01*
X13280320Y-10827680D01*
X13355320Y-10902680D01*
X13355320Y-11447680D02*
X13430320Y-11372680D01*
X13355320Y-11297680D01*
X13280320Y-11372680D01*
X13355320Y-11447680D01*
X13355320Y-11992680D02*
X13430320Y-11917680D01*
X13355320Y-11842680D01*
X13280320Y-11917680D01*
X13355320Y-11992680D01*
X10062380Y-10925980D02*
X10242380Y-11105980D01*
X10242380Y-10925980D02*
X10062380Y-11105980D01*
X10242380Y-11015980D02*
G75*
G03*
X10242380Y-11015980I-90000J0D01*
G01*
X11078380Y-10925980D02*
X11258380Y-11105980D01*
X11258380Y-10925980D02*
X11078380Y-11105980D01*
X11258380Y-11015980D02*
G75*
G03*
X11258380Y-11015980I-90000J0D01*
G01*
D12*
X7082128Y-15733274D02*
X7082128Y-15433274D01*
X7153557Y-15433274D01*
X7196414Y-15447560D01*
X7224986Y-15476131D01*
X7239271Y-15504703D01*
X7253557Y-15561846D01*
X7253557Y-15604703D01*
X7239271Y-15661846D01*
X7224986Y-15690417D01*
X7196414Y-15718988D01*
X7153557Y-15733274D01*
X7082128Y-15733274D01*
X7382128Y-15733274D02*
X7382128Y-15533274D01*
X7382128Y-15590417D02*
X7396414Y-15561846D01*
X7410700Y-15547560D01*
X7439271Y-15533274D01*
X7467843Y-15533274D01*
X7567843Y-15733274D02*
X7567843Y-15533274D01*
X7567843Y-15433274D02*
X7553557Y-15447560D01*
X7567843Y-15461846D01*
X7582128Y-15447560D01*
X7567843Y-15433274D01*
X7567843Y-15461846D01*
X7753557Y-15733274D02*
X7724986Y-15718988D01*
X7710700Y-15690417D01*
X7710700Y-15433274D01*
X7910700Y-15733274D02*
X7882128Y-15718988D01*
X7867843Y-15690417D01*
X7867843Y-15433274D01*
X8253557Y-15733274D02*
X8253557Y-15433274D01*
X8353557Y-15647560D01*
X8453557Y-15433274D01*
X8453557Y-15733274D01*
X8724986Y-15733274D02*
X8724986Y-15576131D01*
X8710700Y-15547560D01*
X8682128Y-15533274D01*
X8624986Y-15533274D01*
X8596414Y-15547560D01*
X8724986Y-15718988D02*
X8696414Y-15733274D01*
X8624986Y-15733274D01*
X8596414Y-15718988D01*
X8582128Y-15690417D01*
X8582128Y-15661846D01*
X8596414Y-15633274D01*
X8624986Y-15618988D01*
X8696414Y-15618988D01*
X8724986Y-15604703D01*
X8867843Y-15533274D02*
X8867843Y-15833274D01*
X8867843Y-15547560D02*
X8896414Y-15533274D01*
X8953557Y-15533274D01*
X8982128Y-15547560D01*
X8996414Y-15561846D01*
X9010700Y-15590417D01*
X9010700Y-15676131D01*
X8996414Y-15704703D01*
X8982128Y-15718988D01*
X8953557Y-15733274D01*
X8896414Y-15733274D01*
X8867843Y-15718988D01*
X9139271Y-15704703D02*
X9153557Y-15718988D01*
X9139271Y-15733274D01*
X9124986Y-15718988D01*
X9139271Y-15704703D01*
X9139271Y-15733274D01*
X9139271Y-15547560D02*
X9153557Y-15561846D01*
X9139271Y-15576131D01*
X9124986Y-15561846D01*
X9139271Y-15547560D01*
X9139271Y-15576131D01*
X6715700Y-16187560D02*
X6795700Y-16267560D01*
X6795700Y-16187560D02*
X6715700Y-16267560D01*
X7139271Y-16063274D02*
X7167843Y-16063274D01*
X7196414Y-16077560D01*
X7210700Y-16091846D01*
X7224986Y-16120417D01*
X7239271Y-16177560D01*
X7239271Y-16248988D01*
X7224986Y-16306131D01*
X7210700Y-16334703D01*
X7196414Y-16348988D01*
X7167843Y-16363274D01*
X7139271Y-16363274D01*
X7110700Y-16348988D01*
X7096414Y-16334703D01*
X7082128Y-16306131D01*
X7067843Y-16248988D01*
X7067843Y-16177560D01*
X7082128Y-16120417D01*
X7096414Y-16091846D01*
X7110700Y-16077560D01*
X7139271Y-16063274D01*
X7367843Y-16334703D02*
X7382128Y-16348988D01*
X7367843Y-16363274D01*
X7353557Y-16348988D01*
X7367843Y-16334703D01*
X7367843Y-16363274D01*
X7553557Y-16191846D02*
X7524986Y-16177560D01*
X7510700Y-16163274D01*
X7496414Y-16134703D01*
X7496414Y-16120417D01*
X7510700Y-16091846D01*
X7524986Y-16077560D01*
X7553557Y-16063274D01*
X7610700Y-16063274D01*
X7639271Y-16077560D01*
X7653557Y-16091846D01*
X7667843Y-16120417D01*
X7667843Y-16134703D01*
X7653557Y-16163274D01*
X7639271Y-16177560D01*
X7610700Y-16191846D01*
X7553557Y-16191846D01*
X7524986Y-16206131D01*
X7510700Y-16220417D01*
X7496414Y-16248988D01*
X7496414Y-16306131D01*
X7510700Y-16334703D01*
X7524986Y-16348988D01*
X7553557Y-16363274D01*
X7610700Y-16363274D01*
X7639271Y-16348988D01*
X7653557Y-16334703D01*
X7667843Y-16306131D01*
X7667843Y-16248988D01*
X7653557Y-16220417D01*
X7639271Y-16206131D01*
X7610700Y-16191846D01*
X7853557Y-16063274D02*
X7882128Y-16063274D01*
X7910700Y-16077560D01*
X7924986Y-16091846D01*
X7939271Y-16120417D01*
X7953557Y-16177560D01*
X7953557Y-16248988D01*
X7939271Y-16306131D01*
X7924986Y-16334703D01*
X7910700Y-16348988D01*
X7882128Y-16363274D01*
X7853557Y-16363274D01*
X7824986Y-16348988D01*
X7810700Y-16334703D01*
X7796414Y-16306131D01*
X7782128Y-16248988D01*
X7782128Y-16177560D01*
X7796414Y-16120417D01*
X7810700Y-16091846D01*
X7824986Y-16077560D01*
X7853557Y-16063274D01*
X8139271Y-16063274D02*
X8167843Y-16063274D01*
X8196414Y-16077560D01*
X8210700Y-16091846D01*
X8224986Y-16120417D01*
X8239271Y-16177560D01*
X8239271Y-16248988D01*
X8224986Y-16306131D01*
X8210700Y-16334703D01*
X8196414Y-16348988D01*
X8167843Y-16363274D01*
X8139271Y-16363274D01*
X8110700Y-16348988D01*
X8096414Y-16334703D01*
X8082128Y-16306131D01*
X8067843Y-16248988D01*
X8067843Y-16177560D01*
X8082128Y-16120417D01*
X8096414Y-16091846D01*
X8110700Y-16077560D01*
X8139271Y-16063274D01*
X8367843Y-16363274D02*
X8367843Y-16163274D01*
X8367843Y-16191846D02*
X8382128Y-16177560D01*
X8410700Y-16163274D01*
X8453557Y-16163274D01*
X8482128Y-16177560D01*
X8496414Y-16206131D01*
X8496414Y-16363274D01*
X8496414Y-16206131D02*
X8510700Y-16177560D01*
X8539271Y-16163274D01*
X8582128Y-16163274D01*
X8610700Y-16177560D01*
X8624986Y-16206131D01*
X8624986Y-16363274D01*
X8767843Y-16363274D02*
X8767843Y-16163274D01*
X8767843Y-16191846D02*
X8782128Y-16177560D01*
X8810700Y-16163274D01*
X8853557Y-16163274D01*
X8882128Y-16177560D01*
X8896414Y-16206131D01*
X8896414Y-16363274D01*
X8896414Y-16206131D02*
X8910700Y-16177560D01*
X8939271Y-16163274D01*
X8982128Y-16163274D01*
X9010700Y-16177560D01*
X9024986Y-16206131D01*
X9024986Y-16363274D01*
X9610700Y-16048988D02*
X9353557Y-16434703D01*
X9996414Y-16063274D02*
X10024986Y-16063274D01*
X10053557Y-16077560D01*
X10067843Y-16091846D01*
X10082128Y-16120417D01*
X10096414Y-16177560D01*
X10096414Y-16248988D01*
X10082128Y-16306131D01*
X10067843Y-16334703D01*
X10053557Y-16348988D01*
X10024986Y-16363274D01*
X9996414Y-16363274D01*
X9967843Y-16348988D01*
X9953557Y-16334703D01*
X9939271Y-16306131D01*
X9924986Y-16248988D01*
X9924986Y-16177560D01*
X9939271Y-16120417D01*
X9953557Y-16091846D01*
X9967843Y-16077560D01*
X9996414Y-16063274D01*
X10224986Y-16334703D02*
X10239271Y-16348988D01*
X10224986Y-16363274D01*
X10210700Y-16348988D01*
X10224986Y-16334703D01*
X10224986Y-16363274D01*
X10424986Y-16063274D02*
X10453557Y-16063274D01*
X10482128Y-16077560D01*
X10496414Y-16091846D01*
X10510700Y-16120417D01*
X10524986Y-16177560D01*
X10524986Y-16248988D01*
X10510700Y-16306131D01*
X10496414Y-16334703D01*
X10482128Y-16348988D01*
X10453557Y-16363274D01*
X10424986Y-16363274D01*
X10396414Y-16348988D01*
X10382128Y-16334703D01*
X10367843Y-16306131D01*
X10353557Y-16248988D01*
X10353557Y-16177560D01*
X10367843Y-16120417D01*
X10382128Y-16091846D01*
X10396414Y-16077560D01*
X10424986Y-16063274D01*
X10624986Y-16063274D02*
X10810700Y-16063274D01*
X10710700Y-16177560D01*
X10753557Y-16177560D01*
X10782128Y-16191846D01*
X10796414Y-16206131D01*
X10810700Y-16234703D01*
X10810700Y-16306131D01*
X10796414Y-16334703D01*
X10782128Y-16348988D01*
X10753557Y-16363274D01*
X10667843Y-16363274D01*
X10639271Y-16348988D01*
X10624986Y-16334703D01*
X11096414Y-16363274D02*
X10924986Y-16363274D01*
X11010700Y-16363274D02*
X11010700Y-16063274D01*
X10982128Y-16106131D01*
X10953557Y-16134703D01*
X10924986Y-16148988D01*
X11367843Y-16063274D02*
X11224986Y-16063274D01*
X11210700Y-16206131D01*
X11224986Y-16191846D01*
X11253557Y-16177560D01*
X11324986Y-16177560D01*
X11353557Y-16191846D01*
X11367843Y-16206131D01*
X11382128Y-16234703D01*
X11382128Y-16306131D01*
X11367843Y-16334703D01*
X11353557Y-16348988D01*
X11324986Y-16363274D01*
X11253557Y-16363274D01*
X11224986Y-16348988D01*
X11210700Y-16334703D01*
X11496414Y-16063274D02*
X11496414Y-16120417D01*
X11610700Y-16063274D02*
X11610700Y-16120417D01*
X12053557Y-16477560D02*
X12039271Y-16463274D01*
X12010700Y-16420417D01*
X11996414Y-16391846D01*
X11982128Y-16348988D01*
X11967843Y-16277560D01*
X11967843Y-16220417D01*
X11982128Y-16148988D01*
X11996414Y-16106131D01*
X12010700Y-16077560D01*
X12039271Y-16034703D01*
X12053557Y-16020417D01*
X12310700Y-16063274D02*
X12167843Y-16063274D01*
X12153557Y-16206131D01*
X12167843Y-16191846D01*
X12196414Y-16177560D01*
X12267843Y-16177560D01*
X12296414Y-16191846D01*
X12310700Y-16206131D01*
X12324986Y-16234703D01*
X12324986Y-16306131D01*
X12310700Y-16334703D01*
X12296414Y-16348988D01*
X12267843Y-16363274D01*
X12196414Y-16363274D01*
X12167843Y-16348988D01*
X12153557Y-16334703D01*
X12610700Y-16363274D02*
X12439271Y-16363274D01*
X12524986Y-16363274D02*
X12524986Y-16063274D01*
X12496414Y-16106131D01*
X12467843Y-16134703D01*
X12439271Y-16148988D01*
X12967843Y-16363274D02*
X12967843Y-16063274D01*
X13096414Y-16363274D02*
X13096414Y-16206131D01*
X13082128Y-16177560D01*
X13053557Y-16163274D01*
X13010700Y-16163274D01*
X12982128Y-16177560D01*
X12967843Y-16191846D01*
X13282128Y-16363274D02*
X13253557Y-16348988D01*
X13239271Y-16334703D01*
X13224986Y-16306131D01*
X13224986Y-16220417D01*
X13239271Y-16191846D01*
X13253557Y-16177560D01*
X13282128Y-16163274D01*
X13324986Y-16163274D01*
X13353557Y-16177560D01*
X13367843Y-16191846D01*
X13382128Y-16220417D01*
X13382128Y-16306131D01*
X13367843Y-16334703D01*
X13353557Y-16348988D01*
X13324986Y-16363274D01*
X13282128Y-16363274D01*
X13553557Y-16363274D02*
X13524986Y-16348988D01*
X13510700Y-16320417D01*
X13510700Y-16063274D01*
X13782128Y-16348988D02*
X13753557Y-16363274D01*
X13696414Y-16363274D01*
X13667843Y-16348988D01*
X13653557Y-16320417D01*
X13653557Y-16206131D01*
X13667843Y-16177560D01*
X13696414Y-16163274D01*
X13753557Y-16163274D01*
X13782128Y-16177560D01*
X13796414Y-16206131D01*
X13796414Y-16234703D01*
X13653557Y-16263274D01*
X13910700Y-16348988D02*
X13939271Y-16363274D01*
X13996414Y-16363274D01*
X14024986Y-16348988D01*
X14039271Y-16320417D01*
X14039271Y-16306131D01*
X14024986Y-16277560D01*
X13996414Y-16263274D01*
X13953557Y-16263274D01*
X13924986Y-16248988D01*
X13910700Y-16220417D01*
X13910700Y-16206131D01*
X13924986Y-16177560D01*
X13953557Y-16163274D01*
X13996414Y-16163274D01*
X14024986Y-16177560D01*
X14139271Y-16477560D02*
X14153557Y-16463274D01*
X14182128Y-16420417D01*
X14196414Y-16391846D01*
X14210700Y-16348988D01*
X14224986Y-16277560D01*
X14224986Y-16220417D01*
X14210700Y-16148988D01*
X14196414Y-16106131D01*
X14182128Y-16077560D01*
X14153557Y-16034703D01*
X14139271Y-16020417D01*
X6795700Y-16623560D02*
G75*
G03*
X6795700Y-16623560I-45000J0D01*
G01*
X7139271Y-16459274D02*
X7167843Y-16459274D01*
X7196414Y-16473560D01*
X7210700Y-16487846D01*
X7224986Y-16516417D01*
X7239271Y-16573560D01*
X7239271Y-16644988D01*
X7224986Y-16702131D01*
X7210700Y-16730703D01*
X7196414Y-16744988D01*
X7167843Y-16759274D01*
X7139271Y-16759274D01*
X7110700Y-16744988D01*
X7096414Y-16730703D01*
X7082128Y-16702131D01*
X7067843Y-16644988D01*
X7067843Y-16573560D01*
X7082128Y-16516417D01*
X7096414Y-16487846D01*
X7110700Y-16473560D01*
X7139271Y-16459274D01*
X7367843Y-16730703D02*
X7382128Y-16744988D01*
X7367843Y-16759274D01*
X7353557Y-16744988D01*
X7367843Y-16730703D01*
X7367843Y-16759274D01*
X7524986Y-16759274D02*
X7582128Y-16759274D01*
X7610700Y-16744988D01*
X7624986Y-16730703D01*
X7653557Y-16687846D01*
X7667843Y-16630703D01*
X7667843Y-16516417D01*
X7653557Y-16487846D01*
X7639271Y-16473560D01*
X7610700Y-16459274D01*
X7553557Y-16459274D01*
X7524986Y-16473560D01*
X7510700Y-16487846D01*
X7496414Y-16516417D01*
X7496414Y-16587846D01*
X7510700Y-16616417D01*
X7524986Y-16630703D01*
X7553557Y-16644988D01*
X7610700Y-16644988D01*
X7639271Y-16630703D01*
X7653557Y-16616417D01*
X7667843Y-16587846D01*
X7853557Y-16459274D02*
X7882128Y-16459274D01*
X7910700Y-16473560D01*
X7924986Y-16487846D01*
X7939271Y-16516417D01*
X7953557Y-16573560D01*
X7953557Y-16644988D01*
X7939271Y-16702131D01*
X7924986Y-16730703D01*
X7910700Y-16744988D01*
X7882128Y-16759274D01*
X7853557Y-16759274D01*
X7824986Y-16744988D01*
X7810700Y-16730703D01*
X7796414Y-16702131D01*
X7782128Y-16644988D01*
X7782128Y-16573560D01*
X7796414Y-16516417D01*
X7810700Y-16487846D01*
X7824986Y-16473560D01*
X7853557Y-16459274D01*
X8139271Y-16459274D02*
X8167843Y-16459274D01*
X8196414Y-16473560D01*
X8210700Y-16487846D01*
X8224986Y-16516417D01*
X8239271Y-16573560D01*
X8239271Y-16644988D01*
X8224986Y-16702131D01*
X8210700Y-16730703D01*
X8196414Y-16744988D01*
X8167843Y-16759274D01*
X8139271Y-16759274D01*
X8110700Y-16744988D01*
X8096414Y-16730703D01*
X8082128Y-16702131D01*
X8067843Y-16644988D01*
X8067843Y-16573560D01*
X8082128Y-16516417D01*
X8096414Y-16487846D01*
X8110700Y-16473560D01*
X8139271Y-16459274D01*
X8367843Y-16759274D02*
X8367843Y-16559274D01*
X8367843Y-16587846D02*
X8382128Y-16573560D01*
X8410700Y-16559274D01*
X8453557Y-16559274D01*
X8482128Y-16573560D01*
X8496414Y-16602131D01*
X8496414Y-16759274D01*
X8496414Y-16602131D02*
X8510700Y-16573560D01*
X8539271Y-16559274D01*
X8582128Y-16559274D01*
X8610700Y-16573560D01*
X8624986Y-16602131D01*
X8624986Y-16759274D01*
X8767843Y-16759274D02*
X8767843Y-16559274D01*
X8767843Y-16587846D02*
X8782128Y-16573560D01*
X8810700Y-16559274D01*
X8853557Y-16559274D01*
X8882128Y-16573560D01*
X8896414Y-16602131D01*
X8896414Y-16759274D01*
X8896414Y-16602131D02*
X8910700Y-16573560D01*
X8939271Y-16559274D01*
X8982128Y-16559274D01*
X9010700Y-16573560D01*
X9024986Y-16602131D01*
X9024986Y-16759274D01*
X9610700Y-16444988D02*
X9353557Y-16830703D01*
X9996414Y-16459274D02*
X10024986Y-16459274D01*
X10053557Y-16473560D01*
X10067843Y-16487846D01*
X10082128Y-16516417D01*
X10096414Y-16573560D01*
X10096414Y-16644988D01*
X10082128Y-16702131D01*
X10067843Y-16730703D01*
X10053557Y-16744988D01*
X10024986Y-16759274D01*
X9996414Y-16759274D01*
X9967843Y-16744988D01*
X9953557Y-16730703D01*
X9939271Y-16702131D01*
X9924986Y-16644988D01*
X9924986Y-16573560D01*
X9939271Y-16516417D01*
X9953557Y-16487846D01*
X9967843Y-16473560D01*
X9996414Y-16459274D01*
X10224986Y-16730703D02*
X10239271Y-16744988D01*
X10224986Y-16759274D01*
X10210700Y-16744988D01*
X10224986Y-16730703D01*
X10224986Y-16759274D01*
X10424986Y-16459274D02*
X10453557Y-16459274D01*
X10482128Y-16473560D01*
X10496414Y-16487846D01*
X10510700Y-16516417D01*
X10524986Y-16573560D01*
X10524986Y-16644988D01*
X10510700Y-16702131D01*
X10496414Y-16730703D01*
X10482128Y-16744988D01*
X10453557Y-16759274D01*
X10424986Y-16759274D01*
X10396414Y-16744988D01*
X10382128Y-16730703D01*
X10367843Y-16702131D01*
X10353557Y-16644988D01*
X10353557Y-16573560D01*
X10367843Y-16516417D01*
X10382128Y-16487846D01*
X10396414Y-16473560D01*
X10424986Y-16459274D01*
X10624986Y-16459274D02*
X10810700Y-16459274D01*
X10710700Y-16573560D01*
X10753557Y-16573560D01*
X10782128Y-16587846D01*
X10796414Y-16602131D01*
X10810700Y-16630703D01*
X10810700Y-16702131D01*
X10796414Y-16730703D01*
X10782128Y-16744988D01*
X10753557Y-16759274D01*
X10667843Y-16759274D01*
X10639271Y-16744988D01*
X10624986Y-16730703D01*
X11082128Y-16459274D02*
X10939271Y-16459274D01*
X10924986Y-16602131D01*
X10939271Y-16587846D01*
X10967843Y-16573560D01*
X11039271Y-16573560D01*
X11067843Y-16587846D01*
X11082128Y-16602131D01*
X11096414Y-16630703D01*
X11096414Y-16702131D01*
X11082128Y-16730703D01*
X11067843Y-16744988D01*
X11039271Y-16759274D01*
X10967843Y-16759274D01*
X10939271Y-16744988D01*
X10924986Y-16730703D01*
X11353557Y-16559274D02*
X11353557Y-16759274D01*
X11282128Y-16444988D02*
X11210700Y-16659274D01*
X11396414Y-16659274D01*
X11496414Y-16459274D02*
X11496414Y-16516417D01*
X11610700Y-16459274D02*
X11610700Y-16516417D01*
X12053557Y-16873560D02*
X12039271Y-16859274D01*
X12010700Y-16816417D01*
X11996414Y-16787846D01*
X11982128Y-16744988D01*
X11967843Y-16673560D01*
X11967843Y-16616417D01*
X11982128Y-16544988D01*
X11996414Y-16502131D01*
X12010700Y-16473560D01*
X12039271Y-16430703D01*
X12053557Y-16416417D01*
X12153557Y-16487846D02*
X12167843Y-16473560D01*
X12196414Y-16459274D01*
X12267843Y-16459274D01*
X12296414Y-16473560D01*
X12310700Y-16487846D01*
X12324986Y-16516417D01*
X12324986Y-16544988D01*
X12310700Y-16587846D01*
X12139271Y-16759274D01*
X12324986Y-16759274D01*
X12682128Y-16759274D02*
X12682128Y-16459274D01*
X12810700Y-16759274D02*
X12810700Y-16602131D01*
X12796414Y-16573560D01*
X12767843Y-16559274D01*
X12724986Y-16559274D01*
X12696414Y-16573560D01*
X12682128Y-16587846D01*
X12996414Y-16759274D02*
X12967843Y-16744988D01*
X12953557Y-16730703D01*
X12939271Y-16702131D01*
X12939271Y-16616417D01*
X12953557Y-16587846D01*
X12967843Y-16573560D01*
X12996414Y-16559274D01*
X13039271Y-16559274D01*
X13067843Y-16573560D01*
X13082128Y-16587846D01*
X13096414Y-16616417D01*
X13096414Y-16702131D01*
X13082128Y-16730703D01*
X13067843Y-16744988D01*
X13039271Y-16759274D01*
X12996414Y-16759274D01*
X13267843Y-16759274D02*
X13239271Y-16744988D01*
X13224986Y-16716417D01*
X13224986Y-16459274D01*
X13496414Y-16744988D02*
X13467843Y-16759274D01*
X13410700Y-16759274D01*
X13382128Y-16744988D01*
X13367843Y-16716417D01*
X13367843Y-16602131D01*
X13382128Y-16573560D01*
X13410700Y-16559274D01*
X13467843Y-16559274D01*
X13496414Y-16573560D01*
X13510700Y-16602131D01*
X13510700Y-16630703D01*
X13367843Y-16659274D01*
X13624986Y-16744988D02*
X13653557Y-16759274D01*
X13710700Y-16759274D01*
X13739271Y-16744988D01*
X13753557Y-16716417D01*
X13753557Y-16702131D01*
X13739271Y-16673560D01*
X13710700Y-16659274D01*
X13667843Y-16659274D01*
X13639271Y-16644988D01*
X13624986Y-16616417D01*
X13624986Y-16602131D01*
X13639271Y-16573560D01*
X13667843Y-16559274D01*
X13710700Y-16559274D01*
X13739271Y-16573560D01*
X13853557Y-16873560D02*
X13867843Y-16859274D01*
X13896414Y-16816417D01*
X13910700Y-16787846D01*
X13924986Y-16744988D01*
X13939271Y-16673560D01*
X13939271Y-16616417D01*
X13924986Y-16544988D01*
X13910700Y-16502131D01*
X13896414Y-16473560D01*
X13867843Y-16430703D01*
X13853557Y-16416417D01*
X6745700Y-16969560D02*
X6745700Y-17069560D01*
X6695700Y-17019560D02*
X6795700Y-17019560D01*
X7239271Y-17155274D02*
X7067843Y-17155274D01*
X7153557Y-17155274D02*
X7153557Y-16855274D01*
X7124986Y-16898131D01*
X7096414Y-16926703D01*
X7067843Y-16940989D01*
X7367843Y-17126703D02*
X7382128Y-17140989D01*
X7367843Y-17155274D01*
X7353557Y-17140989D01*
X7367843Y-17126703D01*
X7367843Y-17155274D01*
X7567843Y-16855274D02*
X7596414Y-16855274D01*
X7624986Y-16869560D01*
X7639271Y-16883846D01*
X7653557Y-16912417D01*
X7667843Y-16969560D01*
X7667843Y-17040989D01*
X7653557Y-17098131D01*
X7639271Y-17126703D01*
X7624986Y-17140989D01*
X7596414Y-17155274D01*
X7567843Y-17155274D01*
X7539271Y-17140989D01*
X7524986Y-17126703D01*
X7510700Y-17098131D01*
X7496414Y-17040989D01*
X7496414Y-16969560D01*
X7510700Y-16912417D01*
X7524986Y-16883846D01*
X7539271Y-16869560D01*
X7567843Y-16855274D01*
X7853557Y-16855274D02*
X7882128Y-16855274D01*
X7910700Y-16869560D01*
X7924986Y-16883846D01*
X7939271Y-16912417D01*
X7953557Y-16969560D01*
X7953557Y-17040989D01*
X7939271Y-17098131D01*
X7924986Y-17126703D01*
X7910700Y-17140989D01*
X7882128Y-17155274D01*
X7853557Y-17155274D01*
X7824986Y-17140989D01*
X7810700Y-17126703D01*
X7796414Y-17098131D01*
X7782128Y-17040989D01*
X7782128Y-16969560D01*
X7796414Y-16912417D01*
X7810700Y-16883846D01*
X7824986Y-16869560D01*
X7853557Y-16855274D01*
X8139271Y-16855274D02*
X8167843Y-16855274D01*
X8196414Y-16869560D01*
X8210700Y-16883846D01*
X8224986Y-16912417D01*
X8239271Y-16969560D01*
X8239271Y-17040989D01*
X8224986Y-17098131D01*
X8210700Y-17126703D01*
X8196414Y-17140989D01*
X8167843Y-17155274D01*
X8139271Y-17155274D01*
X8110700Y-17140989D01*
X8096414Y-17126703D01*
X8082128Y-17098131D01*
X8067843Y-17040989D01*
X8067843Y-16969560D01*
X8082128Y-16912417D01*
X8096414Y-16883846D01*
X8110700Y-16869560D01*
X8139271Y-16855274D01*
X8367843Y-17155274D02*
X8367843Y-16955274D01*
X8367843Y-16983846D02*
X8382128Y-16969560D01*
X8410700Y-16955274D01*
X8453557Y-16955274D01*
X8482128Y-16969560D01*
X8496414Y-16998131D01*
X8496414Y-17155274D01*
X8496414Y-16998131D02*
X8510700Y-16969560D01*
X8539271Y-16955274D01*
X8582128Y-16955274D01*
X8610700Y-16969560D01*
X8624986Y-16998131D01*
X8624986Y-17155274D01*
X8767843Y-17155274D02*
X8767843Y-16955274D01*
X8767843Y-16983846D02*
X8782128Y-16969560D01*
X8810700Y-16955274D01*
X8853557Y-16955274D01*
X8882128Y-16969560D01*
X8896414Y-16998131D01*
X8896414Y-17155274D01*
X8896414Y-16998131D02*
X8910700Y-16969560D01*
X8939271Y-16955274D01*
X8982128Y-16955274D01*
X9010700Y-16969560D01*
X9024986Y-16998131D01*
X9024986Y-17155274D01*
X9610700Y-16840989D02*
X9353557Y-17226703D01*
X9996414Y-16855274D02*
X10024986Y-16855274D01*
X10053557Y-16869560D01*
X10067843Y-16883846D01*
X10082128Y-16912417D01*
X10096414Y-16969560D01*
X10096414Y-17040989D01*
X10082128Y-17098131D01*
X10067843Y-17126703D01*
X10053557Y-17140989D01*
X10024986Y-17155274D01*
X9996414Y-17155274D01*
X9967843Y-17140989D01*
X9953557Y-17126703D01*
X9939271Y-17098131D01*
X9924986Y-17040989D01*
X9924986Y-16969560D01*
X9939271Y-16912417D01*
X9953557Y-16883846D01*
X9967843Y-16869560D01*
X9996414Y-16855274D01*
X10224986Y-17126703D02*
X10239271Y-17140989D01*
X10224986Y-17155274D01*
X10210700Y-17140989D01*
X10224986Y-17126703D01*
X10224986Y-17155274D01*
X10424986Y-16855274D02*
X10453557Y-16855274D01*
X10482128Y-16869560D01*
X10496414Y-16883846D01*
X10510700Y-16912417D01*
X10524986Y-16969560D01*
X10524986Y-17040989D01*
X10510700Y-17098131D01*
X10496414Y-17126703D01*
X10482128Y-17140989D01*
X10453557Y-17155274D01*
X10424986Y-17155274D01*
X10396414Y-17140989D01*
X10382128Y-17126703D01*
X10367843Y-17098131D01*
X10353557Y-17040989D01*
X10353557Y-16969560D01*
X10367843Y-16912417D01*
X10382128Y-16883846D01*
X10396414Y-16869560D01*
X10424986Y-16855274D01*
X10624986Y-16855274D02*
X10810700Y-16855274D01*
X10710700Y-16969560D01*
X10753557Y-16969560D01*
X10782128Y-16983846D01*
X10796414Y-16998131D01*
X10810700Y-17026703D01*
X10810700Y-17098131D01*
X10796414Y-17126703D01*
X10782128Y-17140989D01*
X10753557Y-17155274D01*
X10667843Y-17155274D01*
X10639271Y-17140989D01*
X10624986Y-17126703D01*
X10953557Y-17155274D02*
X11010700Y-17155274D01*
X11039271Y-17140989D01*
X11053557Y-17126703D01*
X11082128Y-17083846D01*
X11096414Y-17026703D01*
X11096414Y-16912417D01*
X11082128Y-16883846D01*
X11067843Y-16869560D01*
X11039271Y-16855274D01*
X10982128Y-16855274D01*
X10953557Y-16869560D01*
X10939271Y-16883846D01*
X10924986Y-16912417D01*
X10924986Y-16983846D01*
X10939271Y-17012417D01*
X10953557Y-17026703D01*
X10982128Y-17040989D01*
X11039271Y-17040989D01*
X11067843Y-17026703D01*
X11082128Y-17012417D01*
X11096414Y-16983846D01*
X11353557Y-16955274D02*
X11353557Y-17155274D01*
X11282128Y-16840989D02*
X11210700Y-17055274D01*
X11396414Y-17055274D01*
X11496414Y-16855274D02*
X11496414Y-16912417D01*
X11610700Y-16855274D02*
X11610700Y-16912417D01*
X12053557Y-17269560D02*
X12039271Y-17255274D01*
X12010700Y-17212417D01*
X11996414Y-17183846D01*
X11982128Y-17140989D01*
X11967843Y-17069560D01*
X11967843Y-17012417D01*
X11982128Y-16940989D01*
X11996414Y-16898131D01*
X12010700Y-16869560D01*
X12039271Y-16826703D01*
X12053557Y-16812417D01*
X12296414Y-16855274D02*
X12239271Y-16855274D01*
X12210700Y-16869560D01*
X12196414Y-16883846D01*
X12167843Y-16926703D01*
X12153557Y-16983846D01*
X12153557Y-17098131D01*
X12167843Y-17126703D01*
X12182128Y-17140989D01*
X12210700Y-17155274D01*
X12267843Y-17155274D01*
X12296414Y-17140989D01*
X12310700Y-17126703D01*
X12324986Y-17098131D01*
X12324986Y-17026703D01*
X12310700Y-16998131D01*
X12296414Y-16983846D01*
X12267843Y-16969560D01*
X12210700Y-16969560D01*
X12182128Y-16983846D01*
X12167843Y-16998131D01*
X12153557Y-17026703D01*
X12682128Y-17155274D02*
X12682128Y-16855274D01*
X12810700Y-17155274D02*
X12810700Y-16998131D01*
X12796414Y-16969560D01*
X12767843Y-16955274D01*
X12724986Y-16955274D01*
X12696414Y-16969560D01*
X12682128Y-16983846D01*
X12996414Y-17155274D02*
X12967843Y-17140989D01*
X12953557Y-17126703D01*
X12939271Y-17098131D01*
X12939271Y-17012417D01*
X12953557Y-16983846D01*
X12967843Y-16969560D01*
X12996414Y-16955274D01*
X13039271Y-16955274D01*
X13067843Y-16969560D01*
X13082128Y-16983846D01*
X13096414Y-17012417D01*
X13096414Y-17098131D01*
X13082128Y-17126703D01*
X13067843Y-17140989D01*
X13039271Y-17155274D01*
X12996414Y-17155274D01*
X13267843Y-17155274D02*
X13239271Y-17140989D01*
X13224986Y-17112417D01*
X13224986Y-16855274D01*
X13496414Y-17140989D02*
X13467843Y-17155274D01*
X13410700Y-17155274D01*
X13382128Y-17140989D01*
X13367843Y-17112417D01*
X13367843Y-16998131D01*
X13382128Y-16969560D01*
X13410700Y-16955274D01*
X13467843Y-16955274D01*
X13496414Y-16969560D01*
X13510700Y-16998131D01*
X13510700Y-17026703D01*
X13367843Y-17055274D01*
X13624986Y-17140989D02*
X13653557Y-17155274D01*
X13710700Y-17155274D01*
X13739271Y-17140989D01*
X13753557Y-17112417D01*
X13753557Y-17098131D01*
X13739271Y-17069560D01*
X13710700Y-17055274D01*
X13667843Y-17055274D01*
X13639271Y-17040989D01*
X13624986Y-17012417D01*
X13624986Y-16998131D01*
X13639271Y-16969560D01*
X13667843Y-16955274D01*
X13710700Y-16955274D01*
X13739271Y-16969560D01*
X13853557Y-17269560D02*
X13867843Y-17255274D01*
X13896414Y-17212417D01*
X13910700Y-17183846D01*
X13924986Y-17140989D01*
X13939271Y-17069560D01*
X13939271Y-17012417D01*
X13924986Y-16940989D01*
X13910700Y-16898131D01*
X13896414Y-16869560D01*
X13867843Y-16826703D01*
X13853557Y-16812417D01*
X6779591Y-17454451D02*
X6779591Y-17376669D01*
X6701809Y-17376669D01*
X6701809Y-17454451D01*
X6779591Y-17454451D01*
X7239271Y-17551274D02*
X7067843Y-17551274D01*
X7153557Y-17551274D02*
X7153557Y-17251274D01*
X7124986Y-17294131D01*
X7096414Y-17322703D01*
X7067843Y-17336989D01*
X7367843Y-17522703D02*
X7382128Y-17536989D01*
X7367843Y-17551274D01*
X7353557Y-17536989D01*
X7367843Y-17522703D01*
X7367843Y-17551274D01*
X7667843Y-17551274D02*
X7496414Y-17551274D01*
X7582128Y-17551274D02*
X7582128Y-17251274D01*
X7553557Y-17294131D01*
X7524986Y-17322703D01*
X7496414Y-17336989D01*
X7853557Y-17251274D02*
X7882128Y-17251274D01*
X7910700Y-17265560D01*
X7924986Y-17279846D01*
X7939271Y-17308417D01*
X7953557Y-17365560D01*
X7953557Y-17436989D01*
X7939271Y-17494131D01*
X7924986Y-17522703D01*
X7910700Y-17536989D01*
X7882128Y-17551274D01*
X7853557Y-17551274D01*
X7824986Y-17536989D01*
X7810700Y-17522703D01*
X7796414Y-17494131D01*
X7782128Y-17436989D01*
X7782128Y-17365560D01*
X7796414Y-17308417D01*
X7810700Y-17279846D01*
X7824986Y-17265560D01*
X7853557Y-17251274D01*
X8139271Y-17251274D02*
X8167843Y-17251274D01*
X8196414Y-17265560D01*
X8210700Y-17279846D01*
X8224986Y-17308417D01*
X8239271Y-17365560D01*
X8239271Y-17436989D01*
X8224986Y-17494131D01*
X8210700Y-17522703D01*
X8196414Y-17536989D01*
X8167843Y-17551274D01*
X8139271Y-17551274D01*
X8110700Y-17536989D01*
X8096414Y-17522703D01*
X8082128Y-17494131D01*
X8067843Y-17436989D01*
X8067843Y-17365560D01*
X8082128Y-17308417D01*
X8096414Y-17279846D01*
X8110700Y-17265560D01*
X8139271Y-17251274D01*
X8367843Y-17551274D02*
X8367843Y-17351274D01*
X8367843Y-17379846D02*
X8382128Y-17365560D01*
X8410700Y-17351274D01*
X8453557Y-17351274D01*
X8482128Y-17365560D01*
X8496414Y-17394131D01*
X8496414Y-17551274D01*
X8496414Y-17394131D02*
X8510700Y-17365560D01*
X8539271Y-17351274D01*
X8582128Y-17351274D01*
X8610700Y-17365560D01*
X8624986Y-17394131D01*
X8624986Y-17551274D01*
X8767843Y-17551274D02*
X8767843Y-17351274D01*
X8767843Y-17379846D02*
X8782128Y-17365560D01*
X8810700Y-17351274D01*
X8853557Y-17351274D01*
X8882128Y-17365560D01*
X8896414Y-17394131D01*
X8896414Y-17551274D01*
X8896414Y-17394131D02*
X8910700Y-17365560D01*
X8939271Y-17351274D01*
X8982128Y-17351274D01*
X9010700Y-17365560D01*
X9024986Y-17394131D01*
X9024986Y-17551274D01*
X9610700Y-17236989D02*
X9353557Y-17622703D01*
X9996414Y-17251274D02*
X10024986Y-17251274D01*
X10053557Y-17265560D01*
X10067843Y-17279846D01*
X10082128Y-17308417D01*
X10096414Y-17365560D01*
X10096414Y-17436989D01*
X10082128Y-17494131D01*
X10067843Y-17522703D01*
X10053557Y-17536989D01*
X10024986Y-17551274D01*
X9996414Y-17551274D01*
X9967843Y-17536989D01*
X9953557Y-17522703D01*
X9939271Y-17494131D01*
X9924986Y-17436989D01*
X9924986Y-17365560D01*
X9939271Y-17308417D01*
X9953557Y-17279846D01*
X9967843Y-17265560D01*
X9996414Y-17251274D01*
X10224986Y-17522703D02*
X10239271Y-17536989D01*
X10224986Y-17551274D01*
X10210700Y-17536989D01*
X10224986Y-17522703D01*
X10224986Y-17551274D01*
X10424986Y-17251274D02*
X10453557Y-17251274D01*
X10482128Y-17265560D01*
X10496414Y-17279846D01*
X10510700Y-17308417D01*
X10524986Y-17365560D01*
X10524986Y-17436989D01*
X10510700Y-17494131D01*
X10496414Y-17522703D01*
X10482128Y-17536989D01*
X10453557Y-17551274D01*
X10424986Y-17551274D01*
X10396414Y-17536989D01*
X10382128Y-17522703D01*
X10367843Y-17494131D01*
X10353557Y-17436989D01*
X10353557Y-17365560D01*
X10367843Y-17308417D01*
X10382128Y-17279846D01*
X10396414Y-17265560D01*
X10424986Y-17251274D01*
X10782128Y-17351274D02*
X10782128Y-17551274D01*
X10710700Y-17236989D02*
X10639271Y-17451274D01*
X10824986Y-17451274D01*
X10910700Y-17251274D02*
X11096414Y-17251274D01*
X10996414Y-17365560D01*
X11039271Y-17365560D01*
X11067843Y-17379846D01*
X11082128Y-17394131D01*
X11096414Y-17422703D01*
X11096414Y-17494131D01*
X11082128Y-17522703D01*
X11067843Y-17536989D01*
X11039271Y-17551274D01*
X10953557Y-17551274D01*
X10924986Y-17536989D01*
X10910700Y-17522703D01*
X11196414Y-17251274D02*
X11382128Y-17251274D01*
X11282128Y-17365560D01*
X11324986Y-17365560D01*
X11353557Y-17379846D01*
X11367843Y-17394131D01*
X11382128Y-17422703D01*
X11382128Y-17494131D01*
X11367843Y-17522703D01*
X11353557Y-17536989D01*
X11324986Y-17551274D01*
X11239271Y-17551274D01*
X11210700Y-17536989D01*
X11196414Y-17522703D01*
X11496414Y-17251274D02*
X11496414Y-17308417D01*
X11610700Y-17251274D02*
X11610700Y-17308417D01*
X12053557Y-17665560D02*
X12039271Y-17651274D01*
X12010700Y-17608417D01*
X11996414Y-17579846D01*
X11982128Y-17536989D01*
X11967843Y-17465560D01*
X11967843Y-17408417D01*
X11982128Y-17336989D01*
X11996414Y-17294131D01*
X12010700Y-17265560D01*
X12039271Y-17222703D01*
X12053557Y-17208417D01*
X12153557Y-17279846D02*
X12167843Y-17265560D01*
X12196414Y-17251274D01*
X12267843Y-17251274D01*
X12296414Y-17265560D01*
X12310700Y-17279846D01*
X12324986Y-17308417D01*
X12324986Y-17336989D01*
X12310700Y-17379846D01*
X12139271Y-17551274D01*
X12324986Y-17551274D01*
X12682128Y-17551274D02*
X12682128Y-17251274D01*
X12810700Y-17551274D02*
X12810700Y-17394131D01*
X12796414Y-17365560D01*
X12767843Y-17351274D01*
X12724986Y-17351274D01*
X12696414Y-17365560D01*
X12682128Y-17379846D01*
X12996414Y-17551274D02*
X12967843Y-17536989D01*
X12953557Y-17522703D01*
X12939271Y-17494131D01*
X12939271Y-17408417D01*
X12953557Y-17379846D01*
X12967843Y-17365560D01*
X12996414Y-17351274D01*
X13039271Y-17351274D01*
X13067843Y-17365560D01*
X13082128Y-17379846D01*
X13096414Y-17408417D01*
X13096414Y-17494131D01*
X13082128Y-17522703D01*
X13067843Y-17536989D01*
X13039271Y-17551274D01*
X12996414Y-17551274D01*
X13267843Y-17551274D02*
X13239271Y-17536989D01*
X13224986Y-17508417D01*
X13224986Y-17251274D01*
X13496414Y-17536989D02*
X13467843Y-17551274D01*
X13410700Y-17551274D01*
X13382128Y-17536989D01*
X13367843Y-17508417D01*
X13367843Y-17394131D01*
X13382128Y-17365560D01*
X13410700Y-17351274D01*
X13467843Y-17351274D01*
X13496414Y-17365560D01*
X13510700Y-17394131D01*
X13510700Y-17422703D01*
X13367843Y-17451274D01*
X13624986Y-17536989D02*
X13653557Y-17551274D01*
X13710700Y-17551274D01*
X13739271Y-17536989D01*
X13753557Y-17508417D01*
X13753557Y-17494131D01*
X13739271Y-17465560D01*
X13710700Y-17451274D01*
X13667843Y-17451274D01*
X13639271Y-17436989D01*
X13624986Y-17408417D01*
X13624986Y-17394131D01*
X13639271Y-17365560D01*
X13667843Y-17351274D01*
X13710700Y-17351274D01*
X13739271Y-17365560D01*
X13853557Y-17665560D02*
X13867843Y-17651274D01*
X13896414Y-17608417D01*
X13910700Y-17579846D01*
X13924986Y-17536989D01*
X13939271Y-17465560D01*
X13939271Y-17408417D01*
X13924986Y-17336989D01*
X13910700Y-17294131D01*
X13896414Y-17265560D01*
X13867843Y-17222703D01*
X13853557Y-17208417D01*
X6720700Y-17886560D02*
X6795700Y-17811560D01*
X6720700Y-17736560D01*
X6645700Y-17811560D01*
X6720700Y-17886560D01*
X7239271Y-17947274D02*
X7067843Y-17947274D01*
X7153557Y-17947274D02*
X7153557Y-17647274D01*
X7124986Y-17690131D01*
X7096414Y-17718703D01*
X7067843Y-17732989D01*
X7367843Y-17918703D02*
X7382128Y-17932989D01*
X7367843Y-17947274D01*
X7353557Y-17932989D01*
X7367843Y-17918703D01*
X7367843Y-17947274D01*
X7653557Y-17647274D02*
X7510700Y-17647274D01*
X7496414Y-17790131D01*
X7510700Y-17775846D01*
X7539271Y-17761560D01*
X7610700Y-17761560D01*
X7639271Y-17775846D01*
X7653557Y-17790131D01*
X7667843Y-17818703D01*
X7667843Y-17890131D01*
X7653557Y-17918703D01*
X7639271Y-17932989D01*
X7610700Y-17947274D01*
X7539271Y-17947274D01*
X7510700Y-17932989D01*
X7496414Y-17918703D01*
X7853557Y-17647274D02*
X7882128Y-17647274D01*
X7910700Y-17661560D01*
X7924986Y-17675846D01*
X7939271Y-17704417D01*
X7953557Y-17761560D01*
X7953557Y-17832989D01*
X7939271Y-17890131D01*
X7924986Y-17918703D01*
X7910700Y-17932989D01*
X7882128Y-17947274D01*
X7853557Y-17947274D01*
X7824986Y-17932989D01*
X7810700Y-17918703D01*
X7796414Y-17890131D01*
X7782128Y-17832989D01*
X7782128Y-17761560D01*
X7796414Y-17704417D01*
X7810700Y-17675846D01*
X7824986Y-17661560D01*
X7853557Y-17647274D01*
X8139271Y-17647274D02*
X8167843Y-17647274D01*
X8196414Y-17661560D01*
X8210700Y-17675846D01*
X8224986Y-17704417D01*
X8239271Y-17761560D01*
X8239271Y-17832989D01*
X8224986Y-17890131D01*
X8210700Y-17918703D01*
X8196414Y-17932989D01*
X8167843Y-17947274D01*
X8139271Y-17947274D01*
X8110700Y-17932989D01*
X8096414Y-17918703D01*
X8082128Y-17890131D01*
X8067843Y-17832989D01*
X8067843Y-17761560D01*
X8082128Y-17704417D01*
X8096414Y-17675846D01*
X8110700Y-17661560D01*
X8139271Y-17647274D01*
X8367843Y-17947274D02*
X8367843Y-17747274D01*
X8367843Y-17775846D02*
X8382128Y-17761560D01*
X8410700Y-17747274D01*
X8453557Y-17747274D01*
X8482128Y-17761560D01*
X8496414Y-17790131D01*
X8496414Y-17947274D01*
X8496414Y-17790131D02*
X8510700Y-17761560D01*
X8539271Y-17747274D01*
X8582128Y-17747274D01*
X8610700Y-17761560D01*
X8624986Y-17790131D01*
X8624986Y-17947274D01*
X8767843Y-17947274D02*
X8767843Y-17747274D01*
X8767843Y-17775846D02*
X8782128Y-17761560D01*
X8810700Y-17747274D01*
X8853557Y-17747274D01*
X8882128Y-17761560D01*
X8896414Y-17790131D01*
X8896414Y-17947274D01*
X8896414Y-17790131D02*
X8910700Y-17761560D01*
X8939271Y-17747274D01*
X8982128Y-17747274D01*
X9010700Y-17761560D01*
X9024986Y-17790131D01*
X9024986Y-17947274D01*
X9610700Y-17632989D02*
X9353557Y-18018703D01*
X9996414Y-17647274D02*
X10024986Y-17647274D01*
X10053557Y-17661560D01*
X10067843Y-17675846D01*
X10082128Y-17704417D01*
X10096414Y-17761560D01*
X10096414Y-17832989D01*
X10082128Y-17890131D01*
X10067843Y-17918703D01*
X10053557Y-17932989D01*
X10024986Y-17947274D01*
X9996414Y-17947274D01*
X9967843Y-17932989D01*
X9953557Y-17918703D01*
X9939271Y-17890131D01*
X9924986Y-17832989D01*
X9924986Y-17761560D01*
X9939271Y-17704417D01*
X9953557Y-17675846D01*
X9967843Y-17661560D01*
X9996414Y-17647274D01*
X10224986Y-17918703D02*
X10239271Y-17932989D01*
X10224986Y-17947274D01*
X10210700Y-17932989D01*
X10224986Y-17918703D01*
X10224986Y-17947274D01*
X10424986Y-17647274D02*
X10453557Y-17647274D01*
X10482128Y-17661560D01*
X10496414Y-17675846D01*
X10510700Y-17704417D01*
X10524986Y-17761560D01*
X10524986Y-17832989D01*
X10510700Y-17890131D01*
X10496414Y-17918703D01*
X10482128Y-17932989D01*
X10453557Y-17947274D01*
X10424986Y-17947274D01*
X10396414Y-17932989D01*
X10382128Y-17918703D01*
X10367843Y-17890131D01*
X10353557Y-17832989D01*
X10353557Y-17761560D01*
X10367843Y-17704417D01*
X10382128Y-17675846D01*
X10396414Y-17661560D01*
X10424986Y-17647274D01*
X10796414Y-17647274D02*
X10653557Y-17647274D01*
X10639271Y-17790131D01*
X10653557Y-17775846D01*
X10682128Y-17761560D01*
X10753557Y-17761560D01*
X10782128Y-17775846D01*
X10796414Y-17790131D01*
X10810700Y-17818703D01*
X10810700Y-17890131D01*
X10796414Y-17918703D01*
X10782128Y-17932989D01*
X10753557Y-17947274D01*
X10682128Y-17947274D01*
X10653557Y-17932989D01*
X10639271Y-17918703D01*
X10953557Y-17947274D02*
X11010700Y-17947274D01*
X11039271Y-17932989D01*
X11053557Y-17918703D01*
X11082128Y-17875846D01*
X11096414Y-17818703D01*
X11096414Y-17704417D01*
X11082128Y-17675846D01*
X11067843Y-17661560D01*
X11039271Y-17647274D01*
X10982128Y-17647274D01*
X10953557Y-17661560D01*
X10939271Y-17675846D01*
X10924986Y-17704417D01*
X10924986Y-17775846D01*
X10939271Y-17804417D01*
X10953557Y-17818703D01*
X10982128Y-17832989D01*
X11039271Y-17832989D01*
X11067843Y-17818703D01*
X11082128Y-17804417D01*
X11096414Y-17775846D01*
X11382128Y-17947274D02*
X11210700Y-17947274D01*
X11296414Y-17947274D02*
X11296414Y-17647274D01*
X11267843Y-17690131D01*
X11239271Y-17718703D01*
X11210700Y-17732989D01*
X11496414Y-17647274D02*
X11496414Y-17704417D01*
X11610700Y-17647274D02*
X11610700Y-17704417D01*
X12053557Y-18061560D02*
X12039271Y-18047274D01*
X12010700Y-18004417D01*
X11996414Y-17975846D01*
X11982128Y-17932989D01*
X11967843Y-17861560D01*
X11967843Y-17804417D01*
X11982128Y-17732989D01*
X11996414Y-17690131D01*
X12010700Y-17661560D01*
X12039271Y-17618703D01*
X12053557Y-17604417D01*
X12139271Y-17647274D02*
X12324986Y-17647274D01*
X12224986Y-17761560D01*
X12267843Y-17761560D01*
X12296414Y-17775846D01*
X12310700Y-17790131D01*
X12324986Y-17818703D01*
X12324986Y-17890131D01*
X12310700Y-17918703D01*
X12296414Y-17932989D01*
X12267843Y-17947274D01*
X12182128Y-17947274D01*
X12153557Y-17932989D01*
X12139271Y-17918703D01*
X12682128Y-17947274D02*
X12682128Y-17647274D01*
X12810700Y-17947274D02*
X12810700Y-17790131D01*
X12796414Y-17761560D01*
X12767843Y-17747274D01*
X12724986Y-17747274D01*
X12696414Y-17761560D01*
X12682128Y-17775846D01*
X12996414Y-17947274D02*
X12967843Y-17932989D01*
X12953557Y-17918703D01*
X12939271Y-17890131D01*
X12939271Y-17804417D01*
X12953557Y-17775846D01*
X12967843Y-17761560D01*
X12996414Y-17747274D01*
X13039271Y-17747274D01*
X13067843Y-17761560D01*
X13082128Y-17775846D01*
X13096414Y-17804417D01*
X13096414Y-17890131D01*
X13082128Y-17918703D01*
X13067843Y-17932989D01*
X13039271Y-17947274D01*
X12996414Y-17947274D01*
X13267843Y-17947274D02*
X13239271Y-17932989D01*
X13224986Y-17904417D01*
X13224986Y-17647274D01*
X13496414Y-17932989D02*
X13467843Y-17947274D01*
X13410700Y-17947274D01*
X13382128Y-17932989D01*
X13367843Y-17904417D01*
X13367843Y-17790131D01*
X13382128Y-17761560D01*
X13410700Y-17747274D01*
X13467843Y-17747274D01*
X13496414Y-17761560D01*
X13510700Y-17790131D01*
X13510700Y-17818703D01*
X13367843Y-17847274D01*
X13624986Y-17932989D02*
X13653557Y-17947274D01*
X13710700Y-17947274D01*
X13739271Y-17932989D01*
X13753557Y-17904417D01*
X13753557Y-17890131D01*
X13739271Y-17861560D01*
X13710700Y-17847274D01*
X13667843Y-17847274D01*
X13639271Y-17832989D01*
X13624986Y-17804417D01*
X13624986Y-17790131D01*
X13639271Y-17761560D01*
X13667843Y-17747274D01*
X13710700Y-17747274D01*
X13739271Y-17761560D01*
X13853557Y-18061560D02*
X13867843Y-18047274D01*
X13896414Y-18004417D01*
X13910700Y-17975846D01*
X13924986Y-17932989D01*
X13939271Y-17861560D01*
X13939271Y-17804417D01*
X13924986Y-17732989D01*
X13910700Y-17690131D01*
X13896414Y-17661560D01*
X13867843Y-17618703D01*
X13853557Y-17604417D01*
X6615700Y-18117560D02*
X6795700Y-18297560D01*
X6795700Y-18117560D02*
X6615700Y-18297560D01*
X6795700Y-18207560D02*
G75*
G03*
X6795700Y-18207560I-90000J0D01*
G01*
X7239271Y-18343274D02*
X7067843Y-18343274D01*
X7153557Y-18343274D02*
X7153557Y-18043274D01*
X7124986Y-18086131D01*
X7096414Y-18114703D01*
X7067843Y-18128989D01*
X7367843Y-18314703D02*
X7382128Y-18328989D01*
X7367843Y-18343274D01*
X7353557Y-18328989D01*
X7367843Y-18314703D01*
X7367843Y-18343274D01*
X7553557Y-18171846D02*
X7524986Y-18157560D01*
X7510700Y-18143274D01*
X7496414Y-18114703D01*
X7496414Y-18100417D01*
X7510700Y-18071846D01*
X7524986Y-18057560D01*
X7553557Y-18043274D01*
X7610700Y-18043274D01*
X7639271Y-18057560D01*
X7653557Y-18071846D01*
X7667843Y-18100417D01*
X7667843Y-18114703D01*
X7653557Y-18143274D01*
X7639271Y-18157560D01*
X7610700Y-18171846D01*
X7553557Y-18171846D01*
X7524986Y-18186131D01*
X7510700Y-18200417D01*
X7496414Y-18228989D01*
X7496414Y-18286131D01*
X7510700Y-18314703D01*
X7524986Y-18328989D01*
X7553557Y-18343274D01*
X7610700Y-18343274D01*
X7639271Y-18328989D01*
X7653557Y-18314703D01*
X7667843Y-18286131D01*
X7667843Y-18228989D01*
X7653557Y-18200417D01*
X7639271Y-18186131D01*
X7610700Y-18171846D01*
X7853557Y-18043274D02*
X7882128Y-18043274D01*
X7910700Y-18057560D01*
X7924986Y-18071846D01*
X7939271Y-18100417D01*
X7953557Y-18157560D01*
X7953557Y-18228989D01*
X7939271Y-18286131D01*
X7924986Y-18314703D01*
X7910700Y-18328989D01*
X7882128Y-18343274D01*
X7853557Y-18343274D01*
X7824986Y-18328989D01*
X7810700Y-18314703D01*
X7796414Y-18286131D01*
X7782128Y-18228989D01*
X7782128Y-18157560D01*
X7796414Y-18100417D01*
X7810700Y-18071846D01*
X7824986Y-18057560D01*
X7853557Y-18043274D01*
X8139271Y-18043274D02*
X8167843Y-18043274D01*
X8196414Y-18057560D01*
X8210700Y-18071846D01*
X8224986Y-18100417D01*
X8239271Y-18157560D01*
X8239271Y-18228989D01*
X8224986Y-18286131D01*
X8210700Y-18314703D01*
X8196414Y-18328989D01*
X8167843Y-18343274D01*
X8139271Y-18343274D01*
X8110700Y-18328989D01*
X8096414Y-18314703D01*
X8082128Y-18286131D01*
X8067843Y-18228989D01*
X8067843Y-18157560D01*
X8082128Y-18100417D01*
X8096414Y-18071846D01*
X8110700Y-18057560D01*
X8139271Y-18043274D01*
X8367843Y-18343274D02*
X8367843Y-18143274D01*
X8367843Y-18171846D02*
X8382128Y-18157560D01*
X8410700Y-18143274D01*
X8453557Y-18143274D01*
X8482128Y-18157560D01*
X8496414Y-18186131D01*
X8496414Y-18343274D01*
X8496414Y-18186131D02*
X8510700Y-18157560D01*
X8539271Y-18143274D01*
X8582128Y-18143274D01*
X8610700Y-18157560D01*
X8624986Y-18186131D01*
X8624986Y-18343274D01*
X8767843Y-18343274D02*
X8767843Y-18143274D01*
X8767843Y-18171846D02*
X8782128Y-18157560D01*
X8810700Y-18143274D01*
X8853557Y-18143274D01*
X8882128Y-18157560D01*
X8896414Y-18186131D01*
X8896414Y-18343274D01*
X8896414Y-18186131D02*
X8910700Y-18157560D01*
X8939271Y-18143274D01*
X8982128Y-18143274D01*
X9010700Y-18157560D01*
X9024986Y-18186131D01*
X9024986Y-18343274D01*
X9610700Y-18028989D02*
X9353557Y-18414703D01*
X9996414Y-18043274D02*
X10024986Y-18043274D01*
X10053557Y-18057560D01*
X10067843Y-18071846D01*
X10082128Y-18100417D01*
X10096414Y-18157560D01*
X10096414Y-18228989D01*
X10082128Y-18286131D01*
X10067843Y-18314703D01*
X10053557Y-18328989D01*
X10024986Y-18343274D01*
X9996414Y-18343274D01*
X9967843Y-18328989D01*
X9953557Y-18314703D01*
X9939271Y-18286131D01*
X9924986Y-18228989D01*
X9924986Y-18157560D01*
X9939271Y-18100417D01*
X9953557Y-18071846D01*
X9967843Y-18057560D01*
X9996414Y-18043274D01*
X10224986Y-18314703D02*
X10239271Y-18328989D01*
X10224986Y-18343274D01*
X10210700Y-18328989D01*
X10224986Y-18314703D01*
X10224986Y-18343274D01*
X10424986Y-18043274D02*
X10453557Y-18043274D01*
X10482128Y-18057560D01*
X10496414Y-18071846D01*
X10510700Y-18100417D01*
X10524986Y-18157560D01*
X10524986Y-18228989D01*
X10510700Y-18286131D01*
X10496414Y-18314703D01*
X10482128Y-18328989D01*
X10453557Y-18343274D01*
X10424986Y-18343274D01*
X10396414Y-18328989D01*
X10382128Y-18314703D01*
X10367843Y-18286131D01*
X10353557Y-18228989D01*
X10353557Y-18157560D01*
X10367843Y-18100417D01*
X10382128Y-18071846D01*
X10396414Y-18057560D01*
X10424986Y-18043274D01*
X10624986Y-18043274D02*
X10824986Y-18043274D01*
X10696414Y-18343274D01*
X10996414Y-18043274D02*
X11024986Y-18043274D01*
X11053557Y-18057560D01*
X11067843Y-18071846D01*
X11082128Y-18100417D01*
X11096414Y-18157560D01*
X11096414Y-18228989D01*
X11082128Y-18286131D01*
X11067843Y-18314703D01*
X11053557Y-18328989D01*
X11024986Y-18343274D01*
X10996414Y-18343274D01*
X10967843Y-18328989D01*
X10953557Y-18314703D01*
X10939271Y-18286131D01*
X10924986Y-18228989D01*
X10924986Y-18157560D01*
X10939271Y-18100417D01*
X10953557Y-18071846D01*
X10967843Y-18057560D01*
X10996414Y-18043274D01*
X11239271Y-18343274D02*
X11296414Y-18343274D01*
X11324986Y-18328989D01*
X11339271Y-18314703D01*
X11367843Y-18271846D01*
X11382128Y-18214703D01*
X11382128Y-18100417D01*
X11367843Y-18071846D01*
X11353557Y-18057560D01*
X11324986Y-18043274D01*
X11267843Y-18043274D01*
X11239271Y-18057560D01*
X11224986Y-18071846D01*
X11210700Y-18100417D01*
X11210700Y-18171846D01*
X11224986Y-18200417D01*
X11239271Y-18214703D01*
X11267843Y-18228989D01*
X11324986Y-18228989D01*
X11353557Y-18214703D01*
X11367843Y-18200417D01*
X11382128Y-18171846D01*
X11496414Y-18043274D02*
X11496414Y-18100417D01*
X11610700Y-18043274D02*
X11610700Y-18100417D01*
X12053557Y-18457560D02*
X12039271Y-18443274D01*
X12010700Y-18400417D01*
X11996414Y-18371846D01*
X11982128Y-18328989D01*
X11967843Y-18257560D01*
X11967843Y-18200417D01*
X11982128Y-18128989D01*
X11996414Y-18086131D01*
X12010700Y-18057560D01*
X12039271Y-18014703D01*
X12053557Y-18000417D01*
X12153557Y-18071846D02*
X12167843Y-18057560D01*
X12196414Y-18043274D01*
X12267843Y-18043274D01*
X12296414Y-18057560D01*
X12310700Y-18071846D01*
X12324986Y-18100417D01*
X12324986Y-18128989D01*
X12310700Y-18171846D01*
X12139271Y-18343274D01*
X12324986Y-18343274D01*
X12682128Y-18343274D02*
X12682128Y-18043274D01*
X12810700Y-18343274D02*
X12810700Y-18186131D01*
X12796414Y-18157560D01*
X12767843Y-18143274D01*
X12724986Y-18143274D01*
X12696414Y-18157560D01*
X12682128Y-18171846D01*
X12996414Y-18343274D02*
X12967843Y-18328989D01*
X12953557Y-18314703D01*
X12939271Y-18286131D01*
X12939271Y-18200417D01*
X12953557Y-18171846D01*
X12967843Y-18157560D01*
X12996414Y-18143274D01*
X13039271Y-18143274D01*
X13067843Y-18157560D01*
X13082128Y-18171846D01*
X13096414Y-18200417D01*
X13096414Y-18286131D01*
X13082128Y-18314703D01*
X13067843Y-18328989D01*
X13039271Y-18343274D01*
X12996414Y-18343274D01*
X13267843Y-18343274D02*
X13239271Y-18328989D01*
X13224986Y-18300417D01*
X13224986Y-18043274D01*
X13496414Y-18328989D02*
X13467843Y-18343274D01*
X13410700Y-18343274D01*
X13382128Y-18328989D01*
X13367843Y-18300417D01*
X13367843Y-18186131D01*
X13382128Y-18157560D01*
X13410700Y-18143274D01*
X13467843Y-18143274D01*
X13496414Y-18157560D01*
X13510700Y-18186131D01*
X13510700Y-18214703D01*
X13367843Y-18243274D01*
X13624986Y-18328989D02*
X13653557Y-18343274D01*
X13710700Y-18343274D01*
X13739271Y-18328989D01*
X13753557Y-18300417D01*
X13753557Y-18286131D01*
X13739271Y-18257560D01*
X13710700Y-18243274D01*
X13667843Y-18243274D01*
X13639271Y-18228989D01*
X13624986Y-18200417D01*
X13624986Y-18186131D01*
X13639271Y-18157560D01*
X13667843Y-18143274D01*
X13710700Y-18143274D01*
X13739271Y-18157560D01*
X13853557Y-18457560D02*
X13867843Y-18443274D01*
X13896414Y-18400417D01*
X13910700Y-18371846D01*
X13924986Y-18328989D01*
X13939271Y-18257560D01*
X13939271Y-18200417D01*
X13924986Y-18128989D01*
X13910700Y-18086131D01*
X13896414Y-18057560D01*
X13867843Y-18014703D01*
X13853557Y-18000417D01*
M02*
