%FSLAX45Y45*%
G04 Gerber Fmt 4.5, Leading zero omitted, Abs format (unit mm)*
G04 Created by KiCad (PCBNEW (5.1.10)-1) date 2023-08-02 14:35:38*
%MOMM*%
%LPD*%
G01*
G04 APERTURE LIST*
%TA.AperFunction,Profile*%
%ADD10C,0.200000*%
%TD*%
%ADD11C,0.200000*%
%ADD12C,0.300000*%
G04 APERTURE END LIST*
D10*
X16555700Y-10257560D02*
X7055700Y-10257560D01*
X6805700Y-10507560D02*
X6805700Y-15007560D01*
X16805700Y-15007560D02*
G75*
G02*
X16555700Y-15257560I-250000J0D01*
G01*
X16555700Y-10257560D02*
G75*
G02*
X16805700Y-10507560I0J-250000D01*
G01*
X16805700Y-15007560D02*
X16805700Y-10507560D01*
X7055700Y-15257560D02*
G75*
G02*
X6805700Y-15007560I0J250000D01*
G01*
X6805700Y-10507560D02*
G75*
G02*
X7055700Y-10257560I250000J0D01*
G01*
X7055700Y-15257560D02*
X16555700Y-15257560D01*
D11*
D12*
X7082128Y-15733274D02*
X7082128Y-15433274D01*
X7153557Y-15433274D01*
X7196414Y-15447560D01*
X7224986Y-15476131D01*
X7239271Y-15504703D01*
X7253557Y-15561846D01*
X7253557Y-15604703D01*
X7239271Y-15661846D01*
X7224986Y-15690417D01*
X7196414Y-15718988D01*
X7153557Y-15733274D01*
X7082128Y-15733274D01*
X7382128Y-15733274D02*
X7382128Y-15533274D01*
X7382128Y-15590417D02*
X7396414Y-15561846D01*
X7410700Y-15547560D01*
X7439271Y-15533274D01*
X7467843Y-15533274D01*
X7567843Y-15733274D02*
X7567843Y-15533274D01*
X7567843Y-15433274D02*
X7553557Y-15447560D01*
X7567843Y-15461846D01*
X7582128Y-15447560D01*
X7567843Y-15433274D01*
X7567843Y-15461846D01*
X7753557Y-15733274D02*
X7724986Y-15718988D01*
X7710700Y-15690417D01*
X7710700Y-15433274D01*
X7910700Y-15733274D02*
X7882128Y-15718988D01*
X7867843Y-15690417D01*
X7867843Y-15433274D01*
X8253557Y-15733274D02*
X8253557Y-15433274D01*
X8353557Y-15647560D01*
X8453557Y-15433274D01*
X8453557Y-15733274D01*
X8724986Y-15733274D02*
X8724986Y-15576131D01*
X8710700Y-15547560D01*
X8682128Y-15533274D01*
X8624986Y-15533274D01*
X8596414Y-15547560D01*
X8724986Y-15718988D02*
X8696414Y-15733274D01*
X8624986Y-15733274D01*
X8596414Y-15718988D01*
X8582128Y-15690417D01*
X8582128Y-15661846D01*
X8596414Y-15633274D01*
X8624986Y-15618988D01*
X8696414Y-15618988D01*
X8724986Y-15604703D01*
X8867843Y-15533274D02*
X8867843Y-15833274D01*
X8867843Y-15547560D02*
X8896414Y-15533274D01*
X8953557Y-15533274D01*
X8982128Y-15547560D01*
X8996414Y-15561846D01*
X9010700Y-15590417D01*
X9010700Y-15676131D01*
X8996414Y-15704703D01*
X8982128Y-15718988D01*
X8953557Y-15733274D01*
X8896414Y-15733274D01*
X8867843Y-15718988D01*
X9139271Y-15704703D02*
X9153557Y-15718988D01*
X9139271Y-15733274D01*
X9124986Y-15718988D01*
X9139271Y-15704703D01*
X9139271Y-15733274D01*
X9139271Y-15547560D02*
X9153557Y-15561846D01*
X9139271Y-15576131D01*
X9124986Y-15561846D01*
X9139271Y-15547560D01*
X9139271Y-15576131D01*
M02*
