G04 #@! TF.GenerationSoftware,KiCad,Pcbnew,(5.1.10)-1*
G04 #@! TF.CreationDate,2023-08-02T14:32:02+03:00*
G04 #@! TF.ProjectId,trigger_cct,74726967-6765-4725-9f63-63742e6b6963,rev?*
G04 #@! TF.SameCoordinates,Original*
G04 #@! TF.FileFunction,Legend,Bot*
G04 #@! TF.FilePolarity,Positive*
%FSLAX46Y46*%
G04 Gerber Fmt 4.6, Leading zero omitted, Abs format (unit mm)*
G04 Created by KiCad (PCBNEW (5.1.10)-1) date 2023-08-02 14:32:02*
%MOMM*%
%LPD*%
G01*
G04 APERTURE LIST*
%ADD10C,0.150000*%
%ADD11C,0.120000*%
%ADD12C,6.400000*%
%ADD13C,1.440000*%
%ADD14O,1.600000X1.600000*%
%ADD15R,1.600000X1.600000*%
%ADD16O,2.000000X1.905000*%
%ADD17R,2.000000X1.905000*%
%ADD18C,1.600000*%
%ADD19R,1.500000X1.050000*%
%ADD20O,1.500000X1.050000*%
%ADD21R,1.050000X1.500000*%
%ADD22O,1.050000X1.500000*%
%ADD23O,1.700000X1.700000*%
%ADD24R,1.700000X1.700000*%
%ADD25R,3.500000X3.500000*%
%ADD26C,1.800000*%
%ADD27R,1.800000X1.800000*%
G04 APERTURE END LIST*
D10*
X158165752Y-58821628D02*
X157403847Y-58821628D01*
X157784800Y-59202580D02*
X157784800Y-58440676D01*
X139302904Y-65870628D02*
X138541000Y-65870628D01*
X138921952Y-66251580D02*
X138921952Y-65489676D01*
X137541000Y-66251580D02*
X138112428Y-66251580D01*
X137826714Y-66251580D02*
X137826714Y-65251580D01*
X137921952Y-65394438D01*
X138017190Y-65489676D01*
X138112428Y-65537295D01*
X137160047Y-65346819D02*
X137112428Y-65299200D01*
X137017190Y-65251580D01*
X136779095Y-65251580D01*
X136683857Y-65299200D01*
X136636238Y-65346819D01*
X136588619Y-65442057D01*
X136588619Y-65537295D01*
X136636238Y-65680152D01*
X137207666Y-66251580D01*
X136588619Y-66251580D01*
X136302904Y-65251580D02*
X135969571Y-66251580D01*
X135636238Y-65251580D01*
X138541000Y-66901580D02*
X138350523Y-66901580D01*
X138255285Y-66949200D01*
X138160047Y-67044438D01*
X138112428Y-67234914D01*
X138112428Y-67568247D01*
X138160047Y-67758723D01*
X138255285Y-67853961D01*
X138350523Y-67901580D01*
X138541000Y-67901580D01*
X138636238Y-67853961D01*
X138731476Y-67758723D01*
X138779095Y-67568247D01*
X138779095Y-67234914D01*
X138731476Y-67044438D01*
X138636238Y-66949200D01*
X138541000Y-66901580D01*
X137683857Y-66901580D02*
X137683857Y-67711104D01*
X137636238Y-67806342D01*
X137588619Y-67853961D01*
X137493380Y-67901580D01*
X137302904Y-67901580D01*
X137207666Y-67853961D01*
X137160047Y-67806342D01*
X137112428Y-67711104D01*
X137112428Y-66901580D01*
X136779095Y-66901580D02*
X136207666Y-66901580D01*
X136493380Y-67901580D02*
X136493380Y-66901580D01*
X141554104Y-58478800D02*
X141649342Y-58431180D01*
X141792200Y-58431180D01*
X141935057Y-58478800D01*
X142030295Y-58574038D01*
X142077914Y-58669276D01*
X142125533Y-58859752D01*
X142125533Y-59002609D01*
X142077914Y-59193085D01*
X142030295Y-59288323D01*
X141935057Y-59383561D01*
X141792200Y-59431180D01*
X141696961Y-59431180D01*
X141554104Y-59383561D01*
X141506485Y-59335942D01*
X141506485Y-59002609D01*
X141696961Y-59002609D01*
X141077914Y-59431180D02*
X141077914Y-58431180D01*
X140506485Y-59431180D01*
X140506485Y-58431180D01*
X140030295Y-59431180D02*
X140030295Y-58431180D01*
X139792200Y-58431180D01*
X139649342Y-58478800D01*
X139554104Y-58574038D01*
X139506485Y-58669276D01*
X139458866Y-58859752D01*
X139458866Y-59002609D01*
X139506485Y-59193085D01*
X139554104Y-59288323D01*
X139649342Y-59383561D01*
X139792200Y-59431180D01*
X140030295Y-59431180D01*
X147151504Y-68397428D02*
X146389600Y-68397428D01*
X146770552Y-68778380D02*
X146770552Y-68016476D01*
X145389600Y-68778380D02*
X145961028Y-68778380D01*
X145675314Y-68778380D02*
X145675314Y-67778380D01*
X145770552Y-67921238D01*
X145865790Y-68016476D01*
X145961028Y-68064095D01*
X145008647Y-67873619D02*
X144961028Y-67826000D01*
X144865790Y-67778380D01*
X144627695Y-67778380D01*
X144532457Y-67826000D01*
X144484838Y-67873619D01*
X144437219Y-67968857D01*
X144437219Y-68064095D01*
X144484838Y-68206952D01*
X145056266Y-68778380D01*
X144437219Y-68778380D01*
X144151504Y-67778380D02*
X143818171Y-68778380D01*
X143484838Y-67778380D01*
X164075619Y-65149361D02*
X163980380Y-65196980D01*
X163789904Y-65196980D01*
X163694666Y-65149361D01*
X163647047Y-65054123D01*
X163647047Y-65006504D01*
X163694666Y-64911266D01*
X163789904Y-64863647D01*
X163932761Y-64863647D01*
X164028000Y-64816028D01*
X164075619Y-64720790D01*
X164075619Y-64673171D01*
X164028000Y-64577933D01*
X163932761Y-64530314D01*
X163789904Y-64530314D01*
X163694666Y-64577933D01*
X162837523Y-65149361D02*
X162932761Y-65196980D01*
X163123238Y-65196980D01*
X163218476Y-65149361D01*
X163266095Y-65054123D01*
X163266095Y-64673171D01*
X163218476Y-64577933D01*
X163123238Y-64530314D01*
X162932761Y-64530314D01*
X162837523Y-64577933D01*
X162789904Y-64673171D01*
X162789904Y-64768409D01*
X163266095Y-64863647D01*
X162361333Y-64530314D02*
X162361333Y-65196980D01*
X162361333Y-64625552D02*
X162313714Y-64577933D01*
X162218476Y-64530314D01*
X162075619Y-64530314D01*
X161980380Y-64577933D01*
X161932761Y-64673171D01*
X161932761Y-65196980D01*
X161504190Y-65149361D02*
X161408952Y-65196980D01*
X161218476Y-65196980D01*
X161123238Y-65149361D01*
X161075619Y-65054123D01*
X161075619Y-65006504D01*
X161123238Y-64911266D01*
X161218476Y-64863647D01*
X161361333Y-64863647D01*
X161456571Y-64816028D01*
X161504190Y-64720790D01*
X161504190Y-64673171D01*
X161456571Y-64577933D01*
X161361333Y-64530314D01*
X161218476Y-64530314D01*
X161123238Y-64577933D01*
X160647047Y-65196980D02*
X160647047Y-64530314D01*
X160647047Y-64196980D02*
X160694666Y-64244600D01*
X160647047Y-64292219D01*
X160599428Y-64244600D01*
X160647047Y-64196980D01*
X160647047Y-64292219D01*
X160313714Y-64530314D02*
X159932761Y-64530314D01*
X160170857Y-64196980D02*
X160170857Y-65054123D01*
X160123238Y-65149361D01*
X160028000Y-65196980D01*
X159932761Y-65196980D01*
X159599428Y-65196980D02*
X159599428Y-64530314D01*
X159599428Y-64196980D02*
X159647047Y-64244600D01*
X159599428Y-64292219D01*
X159551809Y-64244600D01*
X159599428Y-64196980D01*
X159599428Y-64292219D01*
X159218476Y-64530314D02*
X158980380Y-65196980D01*
X158742285Y-64530314D01*
X158361333Y-65196980D02*
X158361333Y-64530314D01*
X158361333Y-64196980D02*
X158408952Y-64244600D01*
X158361333Y-64292219D01*
X158313714Y-64244600D01*
X158361333Y-64196980D01*
X158361333Y-64292219D01*
X158028000Y-64530314D02*
X157647047Y-64530314D01*
X157885142Y-64196980D02*
X157885142Y-65054123D01*
X157837523Y-65149361D01*
X157742285Y-65196980D01*
X157647047Y-65196980D01*
X157408952Y-64530314D02*
X157170857Y-65196980D01*
X156932761Y-64530314D02*
X157170857Y-65196980D01*
X157266095Y-65435076D01*
X157313714Y-65482695D01*
X157408952Y-65530314D01*
X133987114Y-88306495D02*
X134987114Y-88306495D01*
X134034733Y-88306495D02*
X133987114Y-88401733D01*
X133987114Y-88592209D01*
X134034733Y-88687447D01*
X134082352Y-88735066D01*
X134177590Y-88782685D01*
X134463304Y-88782685D01*
X134558542Y-88735066D01*
X134606161Y-88687447D01*
X134653780Y-88592209D01*
X134653780Y-88401733D01*
X134606161Y-88306495D01*
X133987114Y-89639828D02*
X134653780Y-89639828D01*
X133987114Y-89211257D02*
X134510923Y-89211257D01*
X134606161Y-89258876D01*
X134653780Y-89354114D01*
X134653780Y-89496971D01*
X134606161Y-89592209D01*
X134558542Y-89639828D01*
X134653780Y-90258876D02*
X134606161Y-90163638D01*
X134510923Y-90116019D01*
X133653780Y-90116019D01*
X134606161Y-90592209D02*
X134653780Y-90687447D01*
X134653780Y-90877923D01*
X134606161Y-90973161D01*
X134510923Y-91020780D01*
X134463304Y-91020780D01*
X134368066Y-90973161D01*
X134320447Y-90877923D01*
X134320447Y-90735066D01*
X134272828Y-90639828D01*
X134177590Y-90592209D01*
X134129971Y-90592209D01*
X134034733Y-90639828D01*
X133987114Y-90735066D01*
X133987114Y-90877923D01*
X134034733Y-90973161D01*
X134606161Y-91830304D02*
X134653780Y-91735066D01*
X134653780Y-91544590D01*
X134606161Y-91449352D01*
X134510923Y-91401733D01*
X134129971Y-91401733D01*
X134034733Y-91449352D01*
X133987114Y-91544590D01*
X133987114Y-91735066D01*
X134034733Y-91830304D01*
X134129971Y-91877923D01*
X134225209Y-91877923D01*
X134320447Y-91401733D01*
X136303780Y-87639828D02*
X135303780Y-87639828D01*
X136256161Y-87639828D02*
X136303780Y-87544590D01*
X136303780Y-87354114D01*
X136256161Y-87258876D01*
X136208542Y-87211257D01*
X136113304Y-87163638D01*
X135827590Y-87163638D01*
X135732352Y-87211257D01*
X135684733Y-87258876D01*
X135637114Y-87354114D01*
X135637114Y-87544590D01*
X135684733Y-87639828D01*
X135637114Y-88544590D02*
X136303780Y-88544590D01*
X135637114Y-88116019D02*
X136160923Y-88116019D01*
X136256161Y-88163638D01*
X136303780Y-88258876D01*
X136303780Y-88401733D01*
X136256161Y-88496971D01*
X136208542Y-88544590D01*
X136303780Y-89020780D02*
X135637114Y-89020780D01*
X135827590Y-89020780D02*
X135732352Y-89068400D01*
X135684733Y-89116019D01*
X135637114Y-89211257D01*
X135637114Y-89306495D01*
X136303780Y-90068400D02*
X135779971Y-90068400D01*
X135684733Y-90020780D01*
X135637114Y-89925542D01*
X135637114Y-89735066D01*
X135684733Y-89639828D01*
X136256161Y-90068400D02*
X136303780Y-89973161D01*
X136303780Y-89735066D01*
X136256161Y-89639828D01*
X136160923Y-89592209D01*
X136065685Y-89592209D01*
X135970447Y-89639828D01*
X135922828Y-89735066D01*
X135922828Y-89973161D01*
X135875209Y-90068400D01*
X135637114Y-90401733D02*
X135637114Y-90782685D01*
X135303780Y-90544590D02*
X136160923Y-90544590D01*
X136256161Y-90592209D01*
X136303780Y-90687447D01*
X136303780Y-90782685D01*
X136303780Y-91116019D02*
X135637114Y-91116019D01*
X135303780Y-91116019D02*
X135351400Y-91068400D01*
X135399019Y-91116019D01*
X135351400Y-91163638D01*
X135303780Y-91116019D01*
X135399019Y-91116019D01*
X136303780Y-91735066D02*
X136256161Y-91639828D01*
X136208542Y-91592209D01*
X136113304Y-91544590D01*
X135827590Y-91544590D01*
X135732352Y-91592209D01*
X135684733Y-91639828D01*
X135637114Y-91735066D01*
X135637114Y-91877923D01*
X135684733Y-91973161D01*
X135732352Y-92020780D01*
X135827590Y-92068400D01*
X136113304Y-92068400D01*
X136208542Y-92020780D01*
X136256161Y-91973161D01*
X136303780Y-91877923D01*
X136303780Y-91735066D01*
X135637114Y-92496971D02*
X136303780Y-92496971D01*
X135732352Y-92496971D02*
X135684733Y-92544590D01*
X135637114Y-92639828D01*
X135637114Y-92782685D01*
X135684733Y-92877923D01*
X135779971Y-92925542D01*
X136303780Y-92925542D01*
X160197800Y-100270571D02*
X160197800Y-100627714D01*
X160554942Y-100484857D02*
X160197800Y-100627714D01*
X159840657Y-100484857D01*
X160412085Y-100913428D02*
X160197800Y-100627714D01*
X159983514Y-100913428D01*
X163206180Y-100050885D02*
X163206180Y-100908028D01*
X164206180Y-100479457D02*
X163206180Y-100479457D01*
X164206180Y-102265171D02*
X163729990Y-101765171D01*
X164206180Y-101408028D02*
X163206180Y-101408028D01*
X163206180Y-101979457D01*
X163253800Y-102122314D01*
X163301419Y-102193742D01*
X163396657Y-102265171D01*
X163539514Y-102265171D01*
X163634752Y-102193742D01*
X163682371Y-102122314D01*
X163729990Y-101979457D01*
X163729990Y-101408028D01*
X164206180Y-102908028D02*
X163206180Y-102908028D01*
X163253800Y-104408028D02*
X163206180Y-104265171D01*
X163206180Y-104050885D01*
X163253800Y-103836600D01*
X163349038Y-103693742D01*
X163444276Y-103622314D01*
X163634752Y-103550885D01*
X163777609Y-103550885D01*
X163968085Y-103622314D01*
X164063323Y-103693742D01*
X164158561Y-103836600D01*
X164206180Y-104050885D01*
X164206180Y-104193742D01*
X164158561Y-104408028D01*
X164110942Y-104479457D01*
X163777609Y-104479457D01*
X163777609Y-104193742D01*
D11*
X145093000Y-86426200D02*
X145093000Y-81356200D01*
X135323000Y-86426200D02*
X135323000Y-81356200D01*
X135323000Y-81356200D02*
X145093000Y-81356200D01*
X135323000Y-86426200D02*
X145093000Y-86426200D01*
X157871000Y-75573200D02*
X162941000Y-75573200D01*
X157871000Y-65803200D02*
X162941000Y-65803200D01*
X162941000Y-65803200D02*
X162941000Y-75573200D01*
X157871000Y-65803200D02*
X157871000Y-75573200D01*
X149953200Y-85995200D02*
X151603200Y-85995200D01*
X149953200Y-96275200D02*
X149953200Y-85995200D01*
X155253200Y-96275200D02*
X149953200Y-96275200D01*
X155253200Y-85995200D02*
X155253200Y-96275200D01*
X153603200Y-85995200D02*
X155253200Y-85995200D01*
X151603200Y-85995200D02*
G75*
G03*
X153603200Y-85995200I1000000J0D01*
G01*
X150984200Y-70989800D02*
X152494200Y-70989800D01*
X150984200Y-67288800D02*
X152494200Y-67288800D01*
X152494200Y-64018800D02*
X152494200Y-74258800D01*
X150984200Y-74258800D02*
X155625200Y-74258800D01*
X150984200Y-64018800D02*
X155625200Y-64018800D01*
X155625200Y-64018800D02*
X155625200Y-74258800D01*
X150984200Y-64018800D02*
X150984200Y-74258800D01*
X159945400Y-90862400D02*
X160275400Y-90862400D01*
X159945400Y-97402400D02*
X159945400Y-90862400D01*
X160275400Y-97402400D02*
X159945400Y-97402400D01*
X162685400Y-90862400D02*
X162355400Y-90862400D01*
X162685400Y-97402400D02*
X162685400Y-90862400D01*
X162355400Y-97402400D02*
X162685400Y-97402400D01*
X165157400Y-83361200D02*
X165157400Y-83031200D01*
X171697400Y-83361200D02*
X165157400Y-83361200D01*
X171697400Y-83031200D02*
X171697400Y-83361200D01*
X165157400Y-80621200D02*
X165157400Y-80951200D01*
X171697400Y-80621200D02*
X165157400Y-80621200D01*
X171697400Y-80951200D02*
X171697400Y-80621200D01*
X165182800Y-77900200D02*
X165182800Y-77570200D01*
X171722800Y-77900200D02*
X165182800Y-77900200D01*
X171722800Y-77570200D02*
X171722800Y-77900200D01*
X165182800Y-75160200D02*
X165182800Y-75490200D01*
X171722800Y-75160200D02*
X165182800Y-75160200D01*
X171722800Y-75490200D02*
X171722800Y-75160200D01*
X165309800Y-72921800D02*
X165309800Y-72591800D01*
X171849800Y-72921800D02*
X165309800Y-72921800D01*
X171849800Y-72591800D02*
X171849800Y-72921800D01*
X165309800Y-70181800D02*
X165309800Y-70511800D01*
X171849800Y-70181800D02*
X165309800Y-70181800D01*
X171849800Y-70511800D02*
X171849800Y-70181800D01*
X172180000Y-60428200D02*
X172180000Y-60758200D01*
X165640000Y-60428200D02*
X172180000Y-60428200D01*
X165640000Y-60758200D02*
X165640000Y-60428200D01*
X172180000Y-63168200D02*
X172180000Y-62838200D01*
X165640000Y-63168200D02*
X172180000Y-63168200D01*
X165640000Y-62838200D02*
X165640000Y-63168200D01*
X164418400Y-101418800D02*
X164418400Y-97818800D01*
X164429922Y-97780322D02*
G75*
G02*
X168868400Y-99618800I1838478J-1838478D01*
G01*
X164429922Y-101457278D02*
G75*
G03*
X168868400Y-99618800I1838478J1838478D01*
G01*
X154969600Y-102180800D02*
X154969600Y-98580800D01*
X154981122Y-98542322D02*
G75*
G02*
X159419600Y-100380800I1838478J-1838478D01*
G01*
X154981122Y-102219278D02*
G75*
G03*
X159419600Y-100380800I1838478J1838478D01*
G01*
X159711800Y-84628600D02*
X156111800Y-84628600D01*
X156073322Y-84617078D02*
G75*
G02*
X157911800Y-80178600I1838478J1838478D01*
G01*
X159750278Y-84617078D02*
G75*
G03*
X157911800Y-80178600I-1838478J1838478D01*
G01*
X153838600Y-59604600D02*
X153838600Y-60934600D01*
X155168600Y-59604600D02*
X153838600Y-59604600D01*
X156438600Y-59604600D02*
X156438600Y-62264600D01*
X156438600Y-62264600D02*
X159038600Y-62264600D01*
X156438600Y-59604600D02*
X159038600Y-59604600D01*
X159038600Y-59604600D02*
X159038600Y-62264600D01*
X162924800Y-99711200D02*
X161594800Y-99711200D01*
X162924800Y-101041200D02*
X162924800Y-99711200D01*
X162924800Y-102311200D02*
X160264800Y-102311200D01*
X160264800Y-102311200D02*
X160264800Y-104911200D01*
X162924800Y-102311200D02*
X162924800Y-104911200D01*
X162924800Y-104911200D02*
X160264800Y-104911200D01*
X139772600Y-66180800D02*
X142372600Y-66180800D01*
X139772600Y-51480800D02*
X139772600Y-66180800D01*
X148972600Y-66180800D02*
X148972600Y-64280800D01*
X146272600Y-66180800D02*
X148972600Y-66180800D01*
X148972600Y-51480800D02*
X139772600Y-51480800D01*
X148972600Y-60280800D02*
X148972600Y-51480800D01*
X139572600Y-65330800D02*
X139572600Y-66380800D01*
X140622600Y-66380800D02*
X139572600Y-66380800D01*
X167340600Y-89987800D02*
X167340600Y-86897800D01*
X172400600Y-88442800D02*
G75*
G03*
X172400600Y-88442800I-2500000J0D01*
G01*
X172890600Y-88443262D02*
G75*
G03*
X167340600Y-86897970I-2990000J462D01*
G01*
X172890600Y-88442338D02*
G75*
G02*
X167340600Y-89987630I-2990000J-462D01*
G01*
X143697800Y-95989211D02*
X142947800Y-95989211D01*
X143322800Y-96364211D02*
X143322800Y-95614211D01*
X141588800Y-88381000D02*
X140706800Y-88381000D01*
X141840800Y-88421000D02*
X140454800Y-88421000D01*
X142024800Y-88461000D02*
X140270800Y-88461000D01*
X142175800Y-88501000D02*
X140119800Y-88501000D01*
X142305800Y-88541000D02*
X139989800Y-88541000D01*
X142422800Y-88581000D02*
X139872800Y-88581000D01*
X142528800Y-88621000D02*
X139766800Y-88621000D01*
X142625800Y-88661000D02*
X139669800Y-88661000D01*
X142716800Y-88701000D02*
X139578800Y-88701000D01*
X142801800Y-88741000D02*
X139493800Y-88741000D01*
X142880800Y-88781000D02*
X139414800Y-88781000D01*
X142956800Y-88821000D02*
X139338800Y-88821000D01*
X143028800Y-88861000D02*
X139266800Y-88861000D01*
X143096800Y-88901000D02*
X139198800Y-88901000D01*
X143161800Y-88941000D02*
X139133800Y-88941000D01*
X143224800Y-88981000D02*
X139070800Y-88981000D01*
X143284800Y-89021000D02*
X139010800Y-89021000D01*
X143342800Y-89061000D02*
X138952800Y-89061000D01*
X143397800Y-89101000D02*
X138897800Y-89101000D01*
X143451800Y-89141000D02*
X138843800Y-89141000D01*
X143502800Y-89181000D02*
X138792800Y-89181000D01*
X143552800Y-89221000D02*
X138742800Y-89221000D01*
X143601800Y-89261000D02*
X138693800Y-89261000D01*
X143647800Y-89301000D02*
X138647800Y-89301000D01*
X143693800Y-89341000D02*
X138601800Y-89341000D01*
X143736800Y-89381000D02*
X138558800Y-89381000D01*
X143779800Y-89421000D02*
X138515800Y-89421000D01*
X143820800Y-89461000D02*
X138474800Y-89461000D01*
X143860800Y-89501000D02*
X138434800Y-89501000D01*
X143899800Y-89541000D02*
X138395800Y-89541000D01*
X143937800Y-89581000D02*
X138357800Y-89581000D01*
X143974800Y-89621000D02*
X138320800Y-89621000D01*
X144010800Y-89661000D02*
X138284800Y-89661000D01*
X144045800Y-89701000D02*
X138249800Y-89701000D01*
X144078800Y-89741000D02*
X138216800Y-89741000D01*
X144111800Y-89781000D02*
X138183800Y-89781000D01*
X144143800Y-89821000D02*
X138151800Y-89821000D01*
X144175800Y-89861000D02*
X138119800Y-89861000D01*
X144205800Y-89901000D02*
X138089800Y-89901000D01*
X140107800Y-89941000D02*
X138059800Y-89941000D01*
X144235800Y-89941000D02*
X142187800Y-89941000D01*
X140107800Y-89981000D02*
X138031800Y-89981000D01*
X144263800Y-89981000D02*
X142187800Y-89981000D01*
X140107800Y-90021000D02*
X138003800Y-90021000D01*
X144291800Y-90021000D02*
X142187800Y-90021000D01*
X140107800Y-90061000D02*
X137975800Y-90061000D01*
X144319800Y-90061000D02*
X142187800Y-90061000D01*
X140107800Y-90101000D02*
X137949800Y-90101000D01*
X144345800Y-90101000D02*
X142187800Y-90101000D01*
X140107800Y-90141000D02*
X137923800Y-90141000D01*
X144371800Y-90141000D02*
X142187800Y-90141000D01*
X140107800Y-90181000D02*
X137898800Y-90181000D01*
X144396800Y-90181000D02*
X142187800Y-90181000D01*
X140107800Y-90221000D02*
X137873800Y-90221000D01*
X144421800Y-90221000D02*
X142187800Y-90221000D01*
X140107800Y-90261000D02*
X137850800Y-90261000D01*
X144444800Y-90261000D02*
X142187800Y-90261000D01*
X140107800Y-90301000D02*
X137826800Y-90301000D01*
X144468800Y-90301000D02*
X142187800Y-90301000D01*
X140107800Y-90341000D02*
X137804800Y-90341000D01*
X144490800Y-90341000D02*
X142187800Y-90341000D01*
X140107800Y-90381000D02*
X137782800Y-90381000D01*
X144512800Y-90381000D02*
X142187800Y-90381000D01*
X140107800Y-90421000D02*
X137761800Y-90421000D01*
X144533800Y-90421000D02*
X142187800Y-90421000D01*
X140107800Y-90461000D02*
X137740800Y-90461000D01*
X144554800Y-90461000D02*
X142187800Y-90461000D01*
X140107800Y-90501000D02*
X137720800Y-90501000D01*
X144574800Y-90501000D02*
X142187800Y-90501000D01*
X140107800Y-90541000D02*
X137700800Y-90541000D01*
X144594800Y-90541000D02*
X142187800Y-90541000D01*
X140107800Y-90581000D02*
X137681800Y-90581000D01*
X144613800Y-90581000D02*
X142187800Y-90581000D01*
X140107800Y-90621000D02*
X137663800Y-90621000D01*
X144631800Y-90621000D02*
X142187800Y-90621000D01*
X140107800Y-90661000D02*
X137645800Y-90661000D01*
X144649800Y-90661000D02*
X142187800Y-90661000D01*
X140107800Y-90701000D02*
X137627800Y-90701000D01*
X144667800Y-90701000D02*
X142187800Y-90701000D01*
X140107800Y-90741000D02*
X137611800Y-90741000D01*
X144683800Y-90741000D02*
X142187800Y-90741000D01*
X140107800Y-90781000D02*
X137594800Y-90781000D01*
X144700800Y-90781000D02*
X142187800Y-90781000D01*
X140107800Y-90821000D02*
X137579800Y-90821000D01*
X144715800Y-90821000D02*
X142187800Y-90821000D01*
X140107800Y-90861000D02*
X137563800Y-90861000D01*
X144731800Y-90861000D02*
X142187800Y-90861000D01*
X140107800Y-90901000D02*
X137549800Y-90901000D01*
X144745800Y-90901000D02*
X142187800Y-90901000D01*
X140107800Y-90941000D02*
X137534800Y-90941000D01*
X144760800Y-90941000D02*
X142187800Y-90941000D01*
X140107800Y-90981000D02*
X137521800Y-90981000D01*
X144773800Y-90981000D02*
X142187800Y-90981000D01*
X140107800Y-91021000D02*
X137507800Y-91021000D01*
X144787800Y-91021000D02*
X142187800Y-91021000D01*
X140107800Y-91061000D02*
X137494800Y-91061000D01*
X144800800Y-91061000D02*
X142187800Y-91061000D01*
X140107800Y-91101000D02*
X137482800Y-91101000D01*
X144812800Y-91101000D02*
X142187800Y-91101000D01*
X140107800Y-91141000D02*
X137470800Y-91141000D01*
X144824800Y-91141000D02*
X142187800Y-91141000D01*
X140107800Y-91181000D02*
X137459800Y-91181000D01*
X144835800Y-91181000D02*
X142187800Y-91181000D01*
X140107800Y-91221000D02*
X137448800Y-91221000D01*
X144846800Y-91221000D02*
X142187800Y-91221000D01*
X140107800Y-91261000D02*
X137437800Y-91261000D01*
X144857800Y-91261000D02*
X142187800Y-91261000D01*
X140107800Y-91301000D02*
X137427800Y-91301000D01*
X144867800Y-91301000D02*
X142187800Y-91301000D01*
X140107800Y-91341000D02*
X137418800Y-91341000D01*
X144876800Y-91341000D02*
X142187800Y-91341000D01*
X140107800Y-91381000D02*
X137409800Y-91381000D01*
X144885800Y-91381000D02*
X142187800Y-91381000D01*
X140107800Y-91421000D02*
X137400800Y-91421000D01*
X144894800Y-91421000D02*
X142187800Y-91421000D01*
X140107800Y-91461000D02*
X137392800Y-91461000D01*
X144902800Y-91461000D02*
X142187800Y-91461000D01*
X140107800Y-91501000D02*
X137384800Y-91501000D01*
X144910800Y-91501000D02*
X142187800Y-91501000D01*
X140107800Y-91542000D02*
X137377800Y-91542000D01*
X144917800Y-91542000D02*
X142187800Y-91542000D01*
X140107800Y-91582000D02*
X137370800Y-91582000D01*
X144924800Y-91582000D02*
X142187800Y-91582000D01*
X140107800Y-91622000D02*
X137363800Y-91622000D01*
X144931800Y-91622000D02*
X142187800Y-91622000D01*
X140107800Y-91662000D02*
X137357800Y-91662000D01*
X144937800Y-91662000D02*
X142187800Y-91662000D01*
X140107800Y-91702000D02*
X137352800Y-91702000D01*
X144942800Y-91702000D02*
X142187800Y-91702000D01*
X140107800Y-91742000D02*
X137346800Y-91742000D01*
X144948800Y-91742000D02*
X142187800Y-91742000D01*
X140107800Y-91782000D02*
X137342800Y-91782000D01*
X144952800Y-91782000D02*
X142187800Y-91782000D01*
X140107800Y-91822000D02*
X137337800Y-91822000D01*
X144957800Y-91822000D02*
X142187800Y-91822000D01*
X140107800Y-91862000D02*
X137333800Y-91862000D01*
X144961800Y-91862000D02*
X142187800Y-91862000D01*
X140107800Y-91902000D02*
X137330800Y-91902000D01*
X144964800Y-91902000D02*
X142187800Y-91902000D01*
X140107800Y-91942000D02*
X137327800Y-91942000D01*
X144967800Y-91942000D02*
X142187800Y-91942000D01*
X140107800Y-91982000D02*
X137324800Y-91982000D01*
X144970800Y-91982000D02*
X142187800Y-91982000D01*
X144972800Y-92022000D02*
X137322800Y-92022000D01*
X144974800Y-92062000D02*
X137320800Y-92062000D01*
X144976800Y-92102000D02*
X137318800Y-92102000D01*
X144977800Y-92142000D02*
X137317800Y-92142000D01*
X144977800Y-92182000D02*
X137317800Y-92182000D01*
X144977800Y-92222000D02*
X137317800Y-92222000D01*
X145017800Y-92222000D02*
G75*
G03*
X145017800Y-92222000I-3870000J0D01*
G01*
X148359200Y-80019375D02*
X147859200Y-80019375D01*
X148109200Y-80269375D02*
X148109200Y-79769375D01*
X146918200Y-74863600D02*
X146350200Y-74863600D01*
X147152200Y-74903600D02*
X146116200Y-74903600D01*
X147311200Y-74943600D02*
X145957200Y-74943600D01*
X147439200Y-74983600D02*
X145829200Y-74983600D01*
X147549200Y-75023600D02*
X145719200Y-75023600D01*
X147645200Y-75063600D02*
X145623200Y-75063600D01*
X147732200Y-75103600D02*
X145536200Y-75103600D01*
X147812200Y-75143600D02*
X145456200Y-75143600D01*
X145594200Y-75183600D02*
X145383200Y-75183600D01*
X147885200Y-75183600D02*
X147674200Y-75183600D01*
X145594200Y-75223600D02*
X145315200Y-75223600D01*
X147953200Y-75223600D02*
X147674200Y-75223600D01*
X145594200Y-75263600D02*
X145251200Y-75263600D01*
X148017200Y-75263600D02*
X147674200Y-75263600D01*
X145594200Y-75303600D02*
X145191200Y-75303600D01*
X148077200Y-75303600D02*
X147674200Y-75303600D01*
X145594200Y-75343600D02*
X145134200Y-75343600D01*
X148134200Y-75343600D02*
X147674200Y-75343600D01*
X145594200Y-75383600D02*
X145080200Y-75383600D01*
X148188200Y-75383600D02*
X147674200Y-75383600D01*
X145594200Y-75423600D02*
X145029200Y-75423600D01*
X148239200Y-75423600D02*
X147674200Y-75423600D01*
X145594200Y-75463600D02*
X144981200Y-75463600D01*
X148287200Y-75463600D02*
X147674200Y-75463600D01*
X145594200Y-75503600D02*
X144935200Y-75503600D01*
X148333200Y-75503600D02*
X147674200Y-75503600D01*
X145594200Y-75543600D02*
X144891200Y-75543600D01*
X148377200Y-75543600D02*
X147674200Y-75543600D01*
X145594200Y-75583600D02*
X144849200Y-75583600D01*
X148419200Y-75583600D02*
X147674200Y-75583600D01*
X145594200Y-75623600D02*
X144808200Y-75623600D01*
X148460200Y-75623600D02*
X147674200Y-75623600D01*
X145594200Y-75663600D02*
X144770200Y-75663600D01*
X148498200Y-75663600D02*
X147674200Y-75663600D01*
X145594200Y-75703600D02*
X144733200Y-75703600D01*
X148535200Y-75703600D02*
X147674200Y-75703600D01*
X145594200Y-75743600D02*
X144697200Y-75743600D01*
X148571200Y-75743600D02*
X147674200Y-75743600D01*
X145594200Y-75783600D02*
X144663200Y-75783600D01*
X148605200Y-75783600D02*
X147674200Y-75783600D01*
X145594200Y-75823600D02*
X144630200Y-75823600D01*
X148638200Y-75823600D02*
X147674200Y-75823600D01*
X145594200Y-75863600D02*
X144599200Y-75863600D01*
X148669200Y-75863600D02*
X147674200Y-75863600D01*
X145594200Y-75903600D02*
X144569200Y-75903600D01*
X148699200Y-75903600D02*
X147674200Y-75903600D01*
X145594200Y-75943600D02*
X144539200Y-75943600D01*
X148729200Y-75943600D02*
X147674200Y-75943600D01*
X145594200Y-75983600D02*
X144512200Y-75983600D01*
X148756200Y-75983600D02*
X147674200Y-75983600D01*
X145594200Y-76023600D02*
X144485200Y-76023600D01*
X148783200Y-76023600D02*
X147674200Y-76023600D01*
X145594200Y-76063600D02*
X144459200Y-76063600D01*
X148809200Y-76063600D02*
X147674200Y-76063600D01*
X145594200Y-76103600D02*
X144434200Y-76103600D01*
X148834200Y-76103600D02*
X147674200Y-76103600D01*
X145594200Y-76143600D02*
X144410200Y-76143600D01*
X148858200Y-76143600D02*
X147674200Y-76143600D01*
X145594200Y-76183600D02*
X144387200Y-76183600D01*
X148881200Y-76183600D02*
X147674200Y-76183600D01*
X145594200Y-76223600D02*
X144366200Y-76223600D01*
X148902200Y-76223600D02*
X147674200Y-76223600D01*
X145594200Y-76263600D02*
X144344200Y-76263600D01*
X148924200Y-76263600D02*
X147674200Y-76263600D01*
X145594200Y-76303600D02*
X144324200Y-76303600D01*
X148944200Y-76303600D02*
X147674200Y-76303600D01*
X145594200Y-76343600D02*
X144305200Y-76343600D01*
X148963200Y-76343600D02*
X147674200Y-76343600D01*
X145594200Y-76383600D02*
X144286200Y-76383600D01*
X148982200Y-76383600D02*
X147674200Y-76383600D01*
X145594200Y-76423600D02*
X144269200Y-76423600D01*
X148999200Y-76423600D02*
X147674200Y-76423600D01*
X145594200Y-76463600D02*
X144252200Y-76463600D01*
X149016200Y-76463600D02*
X147674200Y-76463600D01*
X145594200Y-76503600D02*
X144236200Y-76503600D01*
X149032200Y-76503600D02*
X147674200Y-76503600D01*
X145594200Y-76543600D02*
X144220200Y-76543600D01*
X149048200Y-76543600D02*
X147674200Y-76543600D01*
X145594200Y-76583600D02*
X144206200Y-76583600D01*
X149062200Y-76583600D02*
X147674200Y-76583600D01*
X145594200Y-76623600D02*
X144192200Y-76623600D01*
X149076200Y-76623600D02*
X147674200Y-76623600D01*
X145594200Y-76663600D02*
X144179200Y-76663600D01*
X149089200Y-76663600D02*
X147674200Y-76663600D01*
X145594200Y-76703600D02*
X144166200Y-76703600D01*
X149102200Y-76703600D02*
X147674200Y-76703600D01*
X145594200Y-76743600D02*
X144154200Y-76743600D01*
X149114200Y-76743600D02*
X147674200Y-76743600D01*
X145594200Y-76784600D02*
X144143200Y-76784600D01*
X149125200Y-76784600D02*
X147674200Y-76784600D01*
X145594200Y-76824600D02*
X144133200Y-76824600D01*
X149135200Y-76824600D02*
X147674200Y-76824600D01*
X145594200Y-76864600D02*
X144123200Y-76864600D01*
X149145200Y-76864600D02*
X147674200Y-76864600D01*
X145594200Y-76904600D02*
X144114200Y-76904600D01*
X149154200Y-76904600D02*
X147674200Y-76904600D01*
X145594200Y-76944600D02*
X144106200Y-76944600D01*
X149162200Y-76944600D02*
X147674200Y-76944600D01*
X145594200Y-76984600D02*
X144098200Y-76984600D01*
X149170200Y-76984600D02*
X147674200Y-76984600D01*
X145594200Y-77024600D02*
X144091200Y-77024600D01*
X149177200Y-77024600D02*
X147674200Y-77024600D01*
X145594200Y-77064600D02*
X144084200Y-77064600D01*
X149184200Y-77064600D02*
X147674200Y-77064600D01*
X145594200Y-77104600D02*
X144078200Y-77104600D01*
X149190200Y-77104600D02*
X147674200Y-77104600D01*
X145594200Y-77144600D02*
X144073200Y-77144600D01*
X149195200Y-77144600D02*
X147674200Y-77144600D01*
X145594200Y-77184600D02*
X144069200Y-77184600D01*
X149199200Y-77184600D02*
X147674200Y-77184600D01*
X145594200Y-77224600D02*
X144065200Y-77224600D01*
X149203200Y-77224600D02*
X147674200Y-77224600D01*
X149207200Y-77264600D02*
X144061200Y-77264600D01*
X149210200Y-77304600D02*
X144058200Y-77304600D01*
X149212200Y-77344600D02*
X144056200Y-77344600D01*
X149213200Y-77384600D02*
X144055200Y-77384600D01*
X149214200Y-77424600D02*
X144054200Y-77424600D01*
X149214200Y-77464600D02*
X144054200Y-77464600D01*
X149254200Y-77464600D02*
G75*
G03*
X149254200Y-77464600I-2620000J0D01*
G01*
X140752200Y-100216600D02*
X140752200Y-100531600D01*
X140752200Y-97791600D02*
X140752200Y-98106600D01*
X145992200Y-100216600D02*
X145992200Y-100531600D01*
X145992200Y-97791600D02*
X145992200Y-98106600D01*
X145992200Y-100531600D02*
X140752200Y-100531600D01*
X145992200Y-97791600D02*
X140752200Y-97791600D01*
X150984600Y-78753600D02*
X150984600Y-79068600D01*
X150984600Y-76328600D02*
X150984600Y-76643600D01*
X156224600Y-78753600D02*
X156224600Y-79068600D01*
X156224600Y-76328600D02*
X156224600Y-76643600D01*
X156224600Y-79068600D02*
X150984600Y-79068600D01*
X156224600Y-76328600D02*
X150984600Y-76328600D01*
X172760000Y-64451600D02*
X172760000Y-64136600D01*
X172760000Y-66876600D02*
X172760000Y-66561600D01*
X167520000Y-64451600D02*
X167520000Y-64136600D01*
X167520000Y-66876600D02*
X167520000Y-66561600D01*
X167520000Y-64136600D02*
X172760000Y-64136600D01*
X167520000Y-66876600D02*
X172760000Y-66876600D01*
X141665800Y-79403011D02*
X140915800Y-79403011D01*
X141290800Y-79778011D02*
X141290800Y-79028011D01*
X139556800Y-71794800D02*
X138674800Y-71794800D01*
X139808800Y-71834800D02*
X138422800Y-71834800D01*
X139992800Y-71874800D02*
X138238800Y-71874800D01*
X140143800Y-71914800D02*
X138087800Y-71914800D01*
X140273800Y-71954800D02*
X137957800Y-71954800D01*
X140390800Y-71994800D02*
X137840800Y-71994800D01*
X140496800Y-72034800D02*
X137734800Y-72034800D01*
X140593800Y-72074800D02*
X137637800Y-72074800D01*
X140684800Y-72114800D02*
X137546800Y-72114800D01*
X140769800Y-72154800D02*
X137461800Y-72154800D01*
X140848800Y-72194800D02*
X137382800Y-72194800D01*
X140924800Y-72234800D02*
X137306800Y-72234800D01*
X140996800Y-72274800D02*
X137234800Y-72274800D01*
X141064800Y-72314800D02*
X137166800Y-72314800D01*
X141129800Y-72354800D02*
X137101800Y-72354800D01*
X141192800Y-72394800D02*
X137038800Y-72394800D01*
X141252800Y-72434800D02*
X136978800Y-72434800D01*
X141310800Y-72474800D02*
X136920800Y-72474800D01*
X141365800Y-72514800D02*
X136865800Y-72514800D01*
X141419800Y-72554800D02*
X136811800Y-72554800D01*
X141470800Y-72594800D02*
X136760800Y-72594800D01*
X141520800Y-72634800D02*
X136710800Y-72634800D01*
X141569800Y-72674800D02*
X136661800Y-72674800D01*
X141615800Y-72714800D02*
X136615800Y-72714800D01*
X141661800Y-72754800D02*
X136569800Y-72754800D01*
X141704800Y-72794800D02*
X136526800Y-72794800D01*
X141747800Y-72834800D02*
X136483800Y-72834800D01*
X141788800Y-72874800D02*
X136442800Y-72874800D01*
X141828800Y-72914800D02*
X136402800Y-72914800D01*
X141867800Y-72954800D02*
X136363800Y-72954800D01*
X141905800Y-72994800D02*
X136325800Y-72994800D01*
X141942800Y-73034800D02*
X136288800Y-73034800D01*
X141978800Y-73074800D02*
X136252800Y-73074800D01*
X142013800Y-73114800D02*
X136217800Y-73114800D01*
X142046800Y-73154800D02*
X136184800Y-73154800D01*
X142079800Y-73194800D02*
X136151800Y-73194800D01*
X142111800Y-73234800D02*
X136119800Y-73234800D01*
X142143800Y-73274800D02*
X136087800Y-73274800D01*
X142173800Y-73314800D02*
X136057800Y-73314800D01*
X138075800Y-73354800D02*
X136027800Y-73354800D01*
X142203800Y-73354800D02*
X140155800Y-73354800D01*
X138075800Y-73394800D02*
X135999800Y-73394800D01*
X142231800Y-73394800D02*
X140155800Y-73394800D01*
X138075800Y-73434800D02*
X135971800Y-73434800D01*
X142259800Y-73434800D02*
X140155800Y-73434800D01*
X138075800Y-73474800D02*
X135943800Y-73474800D01*
X142287800Y-73474800D02*
X140155800Y-73474800D01*
X138075800Y-73514800D02*
X135917800Y-73514800D01*
X142313800Y-73514800D02*
X140155800Y-73514800D01*
X138075800Y-73554800D02*
X135891800Y-73554800D01*
X142339800Y-73554800D02*
X140155800Y-73554800D01*
X138075800Y-73594800D02*
X135866800Y-73594800D01*
X142364800Y-73594800D02*
X140155800Y-73594800D01*
X138075800Y-73634800D02*
X135841800Y-73634800D01*
X142389800Y-73634800D02*
X140155800Y-73634800D01*
X138075800Y-73674800D02*
X135818800Y-73674800D01*
X142412800Y-73674800D02*
X140155800Y-73674800D01*
X138075800Y-73714800D02*
X135794800Y-73714800D01*
X142436800Y-73714800D02*
X140155800Y-73714800D01*
X138075800Y-73754800D02*
X135772800Y-73754800D01*
X142458800Y-73754800D02*
X140155800Y-73754800D01*
X138075800Y-73794800D02*
X135750800Y-73794800D01*
X142480800Y-73794800D02*
X140155800Y-73794800D01*
X138075800Y-73834800D02*
X135729800Y-73834800D01*
X142501800Y-73834800D02*
X140155800Y-73834800D01*
X138075800Y-73874800D02*
X135708800Y-73874800D01*
X142522800Y-73874800D02*
X140155800Y-73874800D01*
X138075800Y-73914800D02*
X135688800Y-73914800D01*
X142542800Y-73914800D02*
X140155800Y-73914800D01*
X138075800Y-73954800D02*
X135668800Y-73954800D01*
X142562800Y-73954800D02*
X140155800Y-73954800D01*
X138075800Y-73994800D02*
X135649800Y-73994800D01*
X142581800Y-73994800D02*
X140155800Y-73994800D01*
X138075800Y-74034800D02*
X135631800Y-74034800D01*
X142599800Y-74034800D02*
X140155800Y-74034800D01*
X138075800Y-74074800D02*
X135613800Y-74074800D01*
X142617800Y-74074800D02*
X140155800Y-74074800D01*
X138075800Y-74114800D02*
X135595800Y-74114800D01*
X142635800Y-74114800D02*
X140155800Y-74114800D01*
X138075800Y-74154800D02*
X135579800Y-74154800D01*
X142651800Y-74154800D02*
X140155800Y-74154800D01*
X138075800Y-74194800D02*
X135562800Y-74194800D01*
X142668800Y-74194800D02*
X140155800Y-74194800D01*
X138075800Y-74234800D02*
X135547800Y-74234800D01*
X142683800Y-74234800D02*
X140155800Y-74234800D01*
X138075800Y-74274800D02*
X135531800Y-74274800D01*
X142699800Y-74274800D02*
X140155800Y-74274800D01*
X138075800Y-74314800D02*
X135517800Y-74314800D01*
X142713800Y-74314800D02*
X140155800Y-74314800D01*
X138075800Y-74354800D02*
X135502800Y-74354800D01*
X142728800Y-74354800D02*
X140155800Y-74354800D01*
X138075800Y-74394800D02*
X135489800Y-74394800D01*
X142741800Y-74394800D02*
X140155800Y-74394800D01*
X138075800Y-74434800D02*
X135475800Y-74434800D01*
X142755800Y-74434800D02*
X140155800Y-74434800D01*
X138075800Y-74474800D02*
X135462800Y-74474800D01*
X142768800Y-74474800D02*
X140155800Y-74474800D01*
X138075800Y-74514800D02*
X135450800Y-74514800D01*
X142780800Y-74514800D02*
X140155800Y-74514800D01*
X138075800Y-74554800D02*
X135438800Y-74554800D01*
X142792800Y-74554800D02*
X140155800Y-74554800D01*
X138075800Y-74594800D02*
X135427800Y-74594800D01*
X142803800Y-74594800D02*
X140155800Y-74594800D01*
X138075800Y-74634800D02*
X135416800Y-74634800D01*
X142814800Y-74634800D02*
X140155800Y-74634800D01*
X138075800Y-74674800D02*
X135405800Y-74674800D01*
X142825800Y-74674800D02*
X140155800Y-74674800D01*
X138075800Y-74714800D02*
X135395800Y-74714800D01*
X142835800Y-74714800D02*
X140155800Y-74714800D01*
X138075800Y-74754800D02*
X135386800Y-74754800D01*
X142844800Y-74754800D02*
X140155800Y-74754800D01*
X138075800Y-74794800D02*
X135377800Y-74794800D01*
X142853800Y-74794800D02*
X140155800Y-74794800D01*
X138075800Y-74834800D02*
X135368800Y-74834800D01*
X142862800Y-74834800D02*
X140155800Y-74834800D01*
X138075800Y-74874800D02*
X135360800Y-74874800D01*
X142870800Y-74874800D02*
X140155800Y-74874800D01*
X138075800Y-74914800D02*
X135352800Y-74914800D01*
X142878800Y-74914800D02*
X140155800Y-74914800D01*
X138075800Y-74955800D02*
X135345800Y-74955800D01*
X142885800Y-74955800D02*
X140155800Y-74955800D01*
X138075800Y-74995800D02*
X135338800Y-74995800D01*
X142892800Y-74995800D02*
X140155800Y-74995800D01*
X138075800Y-75035800D02*
X135331800Y-75035800D01*
X142899800Y-75035800D02*
X140155800Y-75035800D01*
X138075800Y-75075800D02*
X135325800Y-75075800D01*
X142905800Y-75075800D02*
X140155800Y-75075800D01*
X138075800Y-75115800D02*
X135320800Y-75115800D01*
X142910800Y-75115800D02*
X140155800Y-75115800D01*
X138075800Y-75155800D02*
X135314800Y-75155800D01*
X142916800Y-75155800D02*
X140155800Y-75155800D01*
X138075800Y-75195800D02*
X135310800Y-75195800D01*
X142920800Y-75195800D02*
X140155800Y-75195800D01*
X138075800Y-75235800D02*
X135305800Y-75235800D01*
X142925800Y-75235800D02*
X140155800Y-75235800D01*
X138075800Y-75275800D02*
X135301800Y-75275800D01*
X142929800Y-75275800D02*
X140155800Y-75275800D01*
X138075800Y-75315800D02*
X135298800Y-75315800D01*
X142932800Y-75315800D02*
X140155800Y-75315800D01*
X138075800Y-75355800D02*
X135295800Y-75355800D01*
X142935800Y-75355800D02*
X140155800Y-75355800D01*
X138075800Y-75395800D02*
X135292800Y-75395800D01*
X142938800Y-75395800D02*
X140155800Y-75395800D01*
X142940800Y-75435800D02*
X135290800Y-75435800D01*
X142942800Y-75475800D02*
X135288800Y-75475800D01*
X142944800Y-75515800D02*
X135286800Y-75515800D01*
X142945800Y-75555800D02*
X135285800Y-75555800D01*
X142945800Y-75595800D02*
X135285800Y-75595800D01*
X142945800Y-75635800D02*
X135285800Y-75635800D01*
X142985800Y-75635800D02*
G75*
G03*
X142985800Y-75635800I-3870000J0D01*
G01*
X153456000Y-81469600D02*
X153456000Y-81154600D01*
X153456000Y-83894600D02*
X153456000Y-83579600D01*
X148216000Y-81469600D02*
X148216000Y-81154600D01*
X148216000Y-83894600D02*
X148216000Y-83579600D01*
X148216000Y-81154600D02*
X153456000Y-81154600D01*
X148216000Y-83894600D02*
X153456000Y-83894600D01*
X154056375Y-98630400D02*
X154056375Y-99130400D01*
X154306375Y-98880400D02*
X153806375Y-98880400D01*
X148900600Y-100071400D02*
X148900600Y-100639400D01*
X148940600Y-99837400D02*
X148940600Y-100873400D01*
X148980600Y-99678400D02*
X148980600Y-101032400D01*
X149020600Y-99550400D02*
X149020600Y-101160400D01*
X149060600Y-99440400D02*
X149060600Y-101270400D01*
X149100600Y-99344400D02*
X149100600Y-101366400D01*
X149140600Y-99257400D02*
X149140600Y-101453400D01*
X149180600Y-99177400D02*
X149180600Y-101533400D01*
X149220600Y-99104400D02*
X149220600Y-101606400D01*
X149260600Y-99036400D02*
X149260600Y-101674400D01*
X149300600Y-98972400D02*
X149300600Y-101738400D01*
X149340600Y-98912400D02*
X149340600Y-101798400D01*
X149380600Y-98855400D02*
X149380600Y-101855400D01*
X149420600Y-98801400D02*
X149420600Y-101909400D01*
X149460600Y-98750400D02*
X149460600Y-101960400D01*
X149500600Y-101395400D02*
X149500600Y-102008400D01*
X149500600Y-98702400D02*
X149500600Y-99315400D01*
X149540600Y-101395400D02*
X149540600Y-102054400D01*
X149540600Y-98656400D02*
X149540600Y-99315400D01*
X149580600Y-101395400D02*
X149580600Y-102098400D01*
X149580600Y-98612400D02*
X149580600Y-99315400D01*
X149620600Y-101395400D02*
X149620600Y-102140400D01*
X149620600Y-98570400D02*
X149620600Y-99315400D01*
X149660600Y-101395400D02*
X149660600Y-102181400D01*
X149660600Y-98529400D02*
X149660600Y-99315400D01*
X149700600Y-101395400D02*
X149700600Y-102219400D01*
X149700600Y-98491400D02*
X149700600Y-99315400D01*
X149740600Y-101395400D02*
X149740600Y-102256400D01*
X149740600Y-98454400D02*
X149740600Y-99315400D01*
X149780600Y-101395400D02*
X149780600Y-102292400D01*
X149780600Y-98418400D02*
X149780600Y-99315400D01*
X149820600Y-101395400D02*
X149820600Y-102326400D01*
X149820600Y-98384400D02*
X149820600Y-99315400D01*
X149860600Y-101395400D02*
X149860600Y-102359400D01*
X149860600Y-98351400D02*
X149860600Y-99315400D01*
X149900600Y-101395400D02*
X149900600Y-102390400D01*
X149900600Y-98320400D02*
X149900600Y-99315400D01*
X149940600Y-101395400D02*
X149940600Y-102420400D01*
X149940600Y-98290400D02*
X149940600Y-99315400D01*
X149980600Y-101395400D02*
X149980600Y-102450400D01*
X149980600Y-98260400D02*
X149980600Y-99315400D01*
X150020600Y-101395400D02*
X150020600Y-102477400D01*
X150020600Y-98233400D02*
X150020600Y-99315400D01*
X150060600Y-101395400D02*
X150060600Y-102504400D01*
X150060600Y-98206400D02*
X150060600Y-99315400D01*
X150100600Y-101395400D02*
X150100600Y-102530400D01*
X150100600Y-98180400D02*
X150100600Y-99315400D01*
X150140600Y-101395400D02*
X150140600Y-102555400D01*
X150140600Y-98155400D02*
X150140600Y-99315400D01*
X150180600Y-101395400D02*
X150180600Y-102579400D01*
X150180600Y-98131400D02*
X150180600Y-99315400D01*
X150220600Y-101395400D02*
X150220600Y-102602400D01*
X150220600Y-98108400D02*
X150220600Y-99315400D01*
X150260600Y-101395400D02*
X150260600Y-102623400D01*
X150260600Y-98087400D02*
X150260600Y-99315400D01*
X150300600Y-101395400D02*
X150300600Y-102645400D01*
X150300600Y-98065400D02*
X150300600Y-99315400D01*
X150340600Y-101395400D02*
X150340600Y-102665400D01*
X150340600Y-98045400D02*
X150340600Y-99315400D01*
X150380600Y-101395400D02*
X150380600Y-102684400D01*
X150380600Y-98026400D02*
X150380600Y-99315400D01*
X150420600Y-101395400D02*
X150420600Y-102703400D01*
X150420600Y-98007400D02*
X150420600Y-99315400D01*
X150460600Y-101395400D02*
X150460600Y-102720400D01*
X150460600Y-97990400D02*
X150460600Y-99315400D01*
X150500600Y-101395400D02*
X150500600Y-102737400D01*
X150500600Y-97973400D02*
X150500600Y-99315400D01*
X150540600Y-101395400D02*
X150540600Y-102753400D01*
X150540600Y-97957400D02*
X150540600Y-99315400D01*
X150580600Y-101395400D02*
X150580600Y-102769400D01*
X150580600Y-97941400D02*
X150580600Y-99315400D01*
X150620600Y-101395400D02*
X150620600Y-102783400D01*
X150620600Y-97927400D02*
X150620600Y-99315400D01*
X150660600Y-101395400D02*
X150660600Y-102797400D01*
X150660600Y-97913400D02*
X150660600Y-99315400D01*
X150700600Y-101395400D02*
X150700600Y-102810400D01*
X150700600Y-97900400D02*
X150700600Y-99315400D01*
X150740600Y-101395400D02*
X150740600Y-102823400D01*
X150740600Y-97887400D02*
X150740600Y-99315400D01*
X150780600Y-101395400D02*
X150780600Y-102835400D01*
X150780600Y-97875400D02*
X150780600Y-99315400D01*
X150821600Y-101395400D02*
X150821600Y-102846400D01*
X150821600Y-97864400D02*
X150821600Y-99315400D01*
X150861600Y-101395400D02*
X150861600Y-102856400D01*
X150861600Y-97854400D02*
X150861600Y-99315400D01*
X150901600Y-101395400D02*
X150901600Y-102866400D01*
X150901600Y-97844400D02*
X150901600Y-99315400D01*
X150941600Y-101395400D02*
X150941600Y-102875400D01*
X150941600Y-97835400D02*
X150941600Y-99315400D01*
X150981600Y-101395400D02*
X150981600Y-102883400D01*
X150981600Y-97827400D02*
X150981600Y-99315400D01*
X151021600Y-101395400D02*
X151021600Y-102891400D01*
X151021600Y-97819400D02*
X151021600Y-99315400D01*
X151061600Y-101395400D02*
X151061600Y-102898400D01*
X151061600Y-97812400D02*
X151061600Y-99315400D01*
X151101600Y-101395400D02*
X151101600Y-102905400D01*
X151101600Y-97805400D02*
X151101600Y-99315400D01*
X151141600Y-101395400D02*
X151141600Y-102911400D01*
X151141600Y-97799400D02*
X151141600Y-99315400D01*
X151181600Y-101395400D02*
X151181600Y-102916400D01*
X151181600Y-97794400D02*
X151181600Y-99315400D01*
X151221600Y-101395400D02*
X151221600Y-102920400D01*
X151221600Y-97790400D02*
X151221600Y-99315400D01*
X151261600Y-101395400D02*
X151261600Y-102924400D01*
X151261600Y-97786400D02*
X151261600Y-99315400D01*
X151301600Y-101395400D02*
X151301600Y-102928400D01*
X151301600Y-97782400D02*
X151301600Y-99315400D01*
X151341600Y-101395400D02*
X151341600Y-102931400D01*
X151341600Y-97779400D02*
X151341600Y-99315400D01*
X151381600Y-101395400D02*
X151381600Y-102933400D01*
X151381600Y-97777400D02*
X151381600Y-99315400D01*
X151421600Y-101395400D02*
X151421600Y-102934400D01*
X151421600Y-97776400D02*
X151421600Y-99315400D01*
X151461600Y-97775400D02*
X151461600Y-99315400D01*
X151461600Y-101395400D02*
X151461600Y-102935400D01*
X151501600Y-97775400D02*
X151501600Y-99315400D01*
X151501600Y-101395400D02*
X151501600Y-102935400D01*
X154121600Y-100355400D02*
G75*
G03*
X154121600Y-100355400I-2620000J0D01*
G01*
D10*
X140803238Y-88008580D02*
X141136571Y-87532390D01*
X141374666Y-88008580D02*
X141374666Y-87008580D01*
X140993714Y-87008580D01*
X140898476Y-87056200D01*
X140850857Y-87103819D01*
X140803238Y-87199057D01*
X140803238Y-87341914D01*
X140850857Y-87437152D01*
X140898476Y-87484771D01*
X140993714Y-87532390D01*
X141374666Y-87532390D01*
X140517523Y-87008580D02*
X140184190Y-88008580D01*
X139850857Y-87008580D01*
X139565142Y-87103819D02*
X139517523Y-87056200D01*
X139422285Y-87008580D01*
X139184190Y-87008580D01*
X139088952Y-87056200D01*
X139041333Y-87103819D01*
X138993714Y-87199057D01*
X138993714Y-87294295D01*
X139041333Y-87437152D01*
X139612761Y-88008580D01*
X138993714Y-88008580D01*
X157221180Y-72988561D02*
X156744990Y-72655228D01*
X157221180Y-72417133D02*
X156221180Y-72417133D01*
X156221180Y-72798085D01*
X156268800Y-72893323D01*
X156316419Y-72940942D01*
X156411657Y-72988561D01*
X156554514Y-72988561D01*
X156649752Y-72940942D01*
X156697371Y-72893323D01*
X156744990Y-72798085D01*
X156744990Y-72417133D01*
X156221180Y-73274276D02*
X157221180Y-73607609D01*
X156221180Y-73940942D01*
X157221180Y-74798085D02*
X157221180Y-74226657D01*
X157221180Y-74512371D02*
X156221180Y-74512371D01*
X156364038Y-74417133D01*
X156459276Y-74321895D01*
X156506895Y-74226657D01*
X153339704Y-97115380D02*
X153339704Y-97924904D01*
X153292085Y-98020142D01*
X153244466Y-98067761D01*
X153149228Y-98115380D01*
X152958752Y-98115380D01*
X152863514Y-98067761D01*
X152815895Y-98020142D01*
X152768276Y-97924904D01*
X152768276Y-97115380D01*
X152339704Y-97210619D02*
X152292085Y-97163000D01*
X152196847Y-97115380D01*
X151958752Y-97115380D01*
X151863514Y-97163000D01*
X151815895Y-97210619D01*
X151768276Y-97305857D01*
X151768276Y-97401095D01*
X151815895Y-97543952D01*
X152387323Y-98115380D01*
X151768276Y-98115380D01*
X149436580Y-68376895D02*
X150246104Y-68376895D01*
X150341342Y-68424514D01*
X150388961Y-68472133D01*
X150436580Y-68567371D01*
X150436580Y-68757847D01*
X150388961Y-68853085D01*
X150341342Y-68900704D01*
X150246104Y-68948323D01*
X149436580Y-68948323D01*
X150436580Y-69948323D02*
X150436580Y-69376895D01*
X150436580Y-69662609D02*
X149436580Y-69662609D01*
X149579438Y-69567371D01*
X149674676Y-69472133D01*
X149722295Y-69376895D01*
X164137780Y-93965733D02*
X163661590Y-93632400D01*
X164137780Y-93394304D02*
X163137780Y-93394304D01*
X163137780Y-93775257D01*
X163185400Y-93870495D01*
X163233019Y-93918114D01*
X163328257Y-93965733D01*
X163471114Y-93965733D01*
X163566352Y-93918114D01*
X163613971Y-93870495D01*
X163661590Y-93775257D01*
X163661590Y-93394304D01*
X163137780Y-94870495D02*
X163137780Y-94394304D01*
X163613971Y-94346685D01*
X163566352Y-94394304D01*
X163518733Y-94489542D01*
X163518733Y-94727638D01*
X163566352Y-94822876D01*
X163613971Y-94870495D01*
X163709209Y-94918114D01*
X163947304Y-94918114D01*
X164042542Y-94870495D01*
X164090161Y-94822876D01*
X164137780Y-94727638D01*
X164137780Y-94489542D01*
X164090161Y-94394304D01*
X164042542Y-94346685D01*
X168594066Y-80073580D02*
X168927400Y-79597390D01*
X169165495Y-80073580D02*
X169165495Y-79073580D01*
X168784542Y-79073580D01*
X168689304Y-79121200D01*
X168641685Y-79168819D01*
X168594066Y-79264057D01*
X168594066Y-79406914D01*
X168641685Y-79502152D01*
X168689304Y-79549771D01*
X168784542Y-79597390D01*
X169165495Y-79597390D01*
X167736923Y-79406914D02*
X167736923Y-80073580D01*
X167975019Y-79025961D02*
X168213114Y-79740247D01*
X167594066Y-79740247D01*
X168619466Y-74612580D02*
X168952800Y-74136390D01*
X169190895Y-74612580D02*
X169190895Y-73612580D01*
X168809942Y-73612580D01*
X168714704Y-73660200D01*
X168667085Y-73707819D01*
X168619466Y-73803057D01*
X168619466Y-73945914D01*
X168667085Y-74041152D01*
X168714704Y-74088771D01*
X168809942Y-74136390D01*
X169190895Y-74136390D01*
X168286133Y-73612580D02*
X167667085Y-73612580D01*
X168000419Y-73993533D01*
X167857561Y-73993533D01*
X167762323Y-74041152D01*
X167714704Y-74088771D01*
X167667085Y-74184009D01*
X167667085Y-74422104D01*
X167714704Y-74517342D01*
X167762323Y-74564961D01*
X167857561Y-74612580D01*
X168143276Y-74612580D01*
X168238514Y-74564961D01*
X168286133Y-74517342D01*
X168746466Y-69634180D02*
X169079800Y-69157990D01*
X169317895Y-69634180D02*
X169317895Y-68634180D01*
X168936942Y-68634180D01*
X168841704Y-68681800D01*
X168794085Y-68729419D01*
X168746466Y-68824657D01*
X168746466Y-68967514D01*
X168794085Y-69062752D01*
X168841704Y-69110371D01*
X168936942Y-69157990D01*
X169317895Y-69157990D01*
X168365514Y-68729419D02*
X168317895Y-68681800D01*
X168222657Y-68634180D01*
X167984561Y-68634180D01*
X167889323Y-68681800D01*
X167841704Y-68729419D01*
X167794085Y-68824657D01*
X167794085Y-68919895D01*
X167841704Y-69062752D01*
X168413133Y-69634180D01*
X167794085Y-69634180D01*
X169254466Y-59685180D02*
X169587800Y-59208990D01*
X169825895Y-59685180D02*
X169825895Y-58685180D01*
X169444942Y-58685180D01*
X169349704Y-58732800D01*
X169302085Y-58780419D01*
X169254466Y-58875657D01*
X169254466Y-59018514D01*
X169302085Y-59113752D01*
X169349704Y-59161371D01*
X169444942Y-59208990D01*
X169825895Y-59208990D01*
X168302085Y-59685180D02*
X168873514Y-59685180D01*
X168587800Y-59685180D02*
X168587800Y-58685180D01*
X168683038Y-58828038D01*
X168778276Y-58923276D01*
X168873514Y-58970895D01*
X170676819Y-99574361D02*
X170629200Y-99479123D01*
X170533961Y-99383885D01*
X170391104Y-99241028D01*
X170343485Y-99145790D01*
X170343485Y-99050552D01*
X170581580Y-99098171D02*
X170533961Y-99002933D01*
X170438723Y-98907695D01*
X170248247Y-98860076D01*
X169914914Y-98860076D01*
X169724438Y-98907695D01*
X169629200Y-99002933D01*
X169581580Y-99098171D01*
X169581580Y-99288647D01*
X169629200Y-99383885D01*
X169724438Y-99479123D01*
X169914914Y-99526742D01*
X170248247Y-99526742D01*
X170438723Y-99479123D01*
X170533961Y-99383885D01*
X170581580Y-99288647D01*
X170581580Y-99098171D01*
X169581580Y-99860076D02*
X169581580Y-100479123D01*
X169962533Y-100145790D01*
X169962533Y-100288647D01*
X170010152Y-100383885D01*
X170057771Y-100431504D01*
X170153009Y-100479123D01*
X170391104Y-100479123D01*
X170486342Y-100431504D01*
X170533961Y-100383885D01*
X170581580Y-100288647D01*
X170581580Y-100002933D01*
X170533961Y-99907695D01*
X170486342Y-99860076D01*
X155513019Y-103562161D02*
X155465400Y-103466923D01*
X155370161Y-103371685D01*
X155227304Y-103228828D01*
X155179685Y-103133590D01*
X155179685Y-103038352D01*
X155417780Y-103085971D02*
X155370161Y-102990733D01*
X155274923Y-102895495D01*
X155084447Y-102847876D01*
X154751114Y-102847876D01*
X154560638Y-102895495D01*
X154465400Y-102990733D01*
X154417780Y-103085971D01*
X154417780Y-103276447D01*
X154465400Y-103371685D01*
X154560638Y-103466923D01*
X154751114Y-103514542D01*
X155084447Y-103514542D01*
X155274923Y-103466923D01*
X155370161Y-103371685D01*
X155417780Y-103276447D01*
X155417780Y-103085971D01*
X154513019Y-103895495D02*
X154465400Y-103943114D01*
X154417780Y-104038352D01*
X154417780Y-104276447D01*
X154465400Y-104371685D01*
X154513019Y-104419304D01*
X154608257Y-104466923D01*
X154703495Y-104466923D01*
X154846352Y-104419304D01*
X155417780Y-103847876D01*
X155417780Y-104466923D01*
X161105838Y-80075019D02*
X161201076Y-80027400D01*
X161296314Y-79932161D01*
X161439171Y-79789304D01*
X161534409Y-79741685D01*
X161629647Y-79741685D01*
X161582028Y-79979780D02*
X161677266Y-79932161D01*
X161772504Y-79836923D01*
X161820123Y-79646447D01*
X161820123Y-79313114D01*
X161772504Y-79122638D01*
X161677266Y-79027400D01*
X161582028Y-78979780D01*
X161391552Y-78979780D01*
X161296314Y-79027400D01*
X161201076Y-79122638D01*
X161153457Y-79313114D01*
X161153457Y-79646447D01*
X161201076Y-79836923D01*
X161296314Y-79932161D01*
X161391552Y-79979780D01*
X161582028Y-79979780D01*
X160201076Y-79979780D02*
X160772504Y-79979780D01*
X160486790Y-79979780D02*
X160486790Y-78979780D01*
X160582028Y-79122638D01*
X160677266Y-79217876D01*
X160772504Y-79265495D01*
X153080980Y-59980676D02*
X152080980Y-59980676D01*
X152795266Y-60314009D01*
X152080980Y-60647342D01*
X153080980Y-60647342D01*
X153080980Y-61123533D02*
X152080980Y-61123533D01*
X153080980Y-61694961D02*
X152509552Y-61266390D01*
X152080980Y-61694961D02*
X152652409Y-61123533D01*
X153080980Y-62647342D02*
X153080980Y-62075914D01*
X153080980Y-62361628D02*
X152080980Y-62361628D01*
X152223838Y-62266390D01*
X152319076Y-62171152D01*
X152366695Y-62075914D01*
X159235733Y-103947980D02*
X159235733Y-104662266D01*
X159283352Y-104805123D01*
X159378590Y-104900361D01*
X159521447Y-104947980D01*
X159616685Y-104947980D01*
X158854780Y-103947980D02*
X158235733Y-103947980D01*
X158569066Y-104328933D01*
X158426209Y-104328933D01*
X158330971Y-104376552D01*
X158283352Y-104424171D01*
X158235733Y-104519409D01*
X158235733Y-104757504D01*
X158283352Y-104852742D01*
X158330971Y-104900361D01*
X158426209Y-104947980D01*
X158711923Y-104947980D01*
X158807161Y-104900361D01*
X158854780Y-104852742D01*
X149616180Y-57454466D02*
X150330466Y-57454466D01*
X150473323Y-57406847D01*
X150568561Y-57311609D01*
X150616180Y-57168752D01*
X150616180Y-57073514D01*
X150616180Y-58454466D02*
X150616180Y-57883038D01*
X150616180Y-58168752D02*
X149616180Y-58168752D01*
X149759038Y-58073514D01*
X149854276Y-57978276D01*
X149901895Y-57883038D01*
X170638695Y-92855180D02*
X170638695Y-91855180D01*
X170400600Y-91855180D01*
X170257742Y-91902800D01*
X170162504Y-91998038D01*
X170114885Y-92093276D01*
X170067266Y-92283752D01*
X170067266Y-92426609D01*
X170114885Y-92617085D01*
X170162504Y-92712323D01*
X170257742Y-92807561D01*
X170400600Y-92855180D01*
X170638695Y-92855180D01*
X169114885Y-92855180D02*
X169686314Y-92855180D01*
X169400600Y-92855180D02*
X169400600Y-91855180D01*
X169495838Y-91998038D01*
X169591076Y-92093276D01*
X169686314Y-92140895D01*
X146504942Y-92055333D02*
X146552561Y-92007714D01*
X146600180Y-91864857D01*
X146600180Y-91769619D01*
X146552561Y-91626761D01*
X146457323Y-91531523D01*
X146362085Y-91483904D01*
X146171609Y-91436285D01*
X146028752Y-91436285D01*
X145838276Y-91483904D01*
X145743038Y-91531523D01*
X145647800Y-91626761D01*
X145600180Y-91769619D01*
X145600180Y-91864857D01*
X145647800Y-92007714D01*
X145695419Y-92055333D01*
X146028752Y-92626761D02*
X145981133Y-92531523D01*
X145933514Y-92483904D01*
X145838276Y-92436285D01*
X145790657Y-92436285D01*
X145695419Y-92483904D01*
X145647800Y-92531523D01*
X145600180Y-92626761D01*
X145600180Y-92817238D01*
X145647800Y-92912476D01*
X145695419Y-92960095D01*
X145790657Y-93007714D01*
X145838276Y-93007714D01*
X145933514Y-92960095D01*
X145981133Y-92912476D01*
X146028752Y-92817238D01*
X146028752Y-92626761D01*
X146076371Y-92531523D01*
X146123990Y-92483904D01*
X146219228Y-92436285D01*
X146409704Y-92436285D01*
X146504942Y-92483904D01*
X146552561Y-92531523D01*
X146600180Y-92626761D01*
X146600180Y-92817238D01*
X146552561Y-92912476D01*
X146504942Y-92960095D01*
X146409704Y-93007714D01*
X146219228Y-93007714D01*
X146123990Y-92960095D01*
X146076371Y-92912476D01*
X146028752Y-92817238D01*
X149023342Y-73721933D02*
X149070961Y-73674314D01*
X149118580Y-73531457D01*
X149118580Y-73436219D01*
X149070961Y-73293361D01*
X148975723Y-73198123D01*
X148880485Y-73150504D01*
X148690009Y-73102885D01*
X148547152Y-73102885D01*
X148356676Y-73150504D01*
X148261438Y-73198123D01*
X148166200Y-73293361D01*
X148118580Y-73436219D01*
X148118580Y-73531457D01*
X148166200Y-73674314D01*
X148213819Y-73721933D01*
X148118580Y-74055266D02*
X148118580Y-74721933D01*
X149118580Y-74293361D01*
X143538866Y-97018742D02*
X143586485Y-97066361D01*
X143729342Y-97113980D01*
X143824580Y-97113980D01*
X143967438Y-97066361D01*
X144062676Y-96971123D01*
X144110295Y-96875885D01*
X144157914Y-96685409D01*
X144157914Y-96542552D01*
X144110295Y-96352076D01*
X144062676Y-96256838D01*
X143967438Y-96161600D01*
X143824580Y-96113980D01*
X143729342Y-96113980D01*
X143586485Y-96161600D01*
X143538866Y-96209219D01*
X142681723Y-96113980D02*
X142872200Y-96113980D01*
X142967438Y-96161600D01*
X143015057Y-96209219D01*
X143110295Y-96352076D01*
X143157914Y-96542552D01*
X143157914Y-96923504D01*
X143110295Y-97018742D01*
X143062676Y-97066361D01*
X142967438Y-97113980D01*
X142776961Y-97113980D01*
X142681723Y-97066361D01*
X142634104Y-97018742D01*
X142586485Y-96923504D01*
X142586485Y-96685409D01*
X142634104Y-96590171D01*
X142681723Y-96542552D01*
X142776961Y-96494933D01*
X142967438Y-96494933D01*
X143062676Y-96542552D01*
X143110295Y-96590171D01*
X143157914Y-96685409D01*
X153771266Y-75555742D02*
X153818885Y-75603361D01*
X153961742Y-75650980D01*
X154056980Y-75650980D01*
X154199838Y-75603361D01*
X154295076Y-75508123D01*
X154342695Y-75412885D01*
X154390314Y-75222409D01*
X154390314Y-75079552D01*
X154342695Y-74889076D01*
X154295076Y-74793838D01*
X154199838Y-74698600D01*
X154056980Y-74650980D01*
X153961742Y-74650980D01*
X153818885Y-74698600D01*
X153771266Y-74746219D01*
X152866504Y-74650980D02*
X153342695Y-74650980D01*
X153390314Y-75127171D01*
X153342695Y-75079552D01*
X153247457Y-75031933D01*
X153009361Y-75031933D01*
X152914123Y-75079552D01*
X152866504Y-75127171D01*
X152818885Y-75222409D01*
X152818885Y-75460504D01*
X152866504Y-75555742D01*
X152914123Y-75603361D01*
X153009361Y-75650980D01*
X153247457Y-75650980D01*
X153342695Y-75603361D01*
X153390314Y-75555742D01*
X174969466Y-66066942D02*
X175017085Y-66114561D01*
X175159942Y-66162180D01*
X175255180Y-66162180D01*
X175398038Y-66114561D01*
X175493276Y-66019323D01*
X175540895Y-65924085D01*
X175588514Y-65733609D01*
X175588514Y-65590752D01*
X175540895Y-65400276D01*
X175493276Y-65305038D01*
X175398038Y-65209800D01*
X175255180Y-65162180D01*
X175159942Y-65162180D01*
X175017085Y-65209800D01*
X174969466Y-65257419D01*
X174112323Y-65495514D02*
X174112323Y-66162180D01*
X174350419Y-65114561D02*
X174588514Y-65828847D01*
X173969466Y-65828847D01*
X144248142Y-72578933D02*
X144295761Y-72531314D01*
X144343380Y-72388457D01*
X144343380Y-72293219D01*
X144295761Y-72150361D01*
X144200523Y-72055123D01*
X144105285Y-72007504D01*
X143914809Y-71959885D01*
X143771952Y-71959885D01*
X143581476Y-72007504D01*
X143486238Y-72055123D01*
X143391000Y-72150361D01*
X143343380Y-72293219D01*
X143343380Y-72388457D01*
X143391000Y-72531314D01*
X143438619Y-72578933D01*
X143343380Y-72912266D02*
X143343380Y-73531314D01*
X143724333Y-73197980D01*
X143724333Y-73340838D01*
X143771952Y-73436076D01*
X143819571Y-73483695D01*
X143914809Y-73531314D01*
X144152904Y-73531314D01*
X144248142Y-73483695D01*
X144295761Y-73436076D01*
X144343380Y-73340838D01*
X144343380Y-73055123D01*
X144295761Y-72959885D01*
X144248142Y-72912266D01*
X151002666Y-85381742D02*
X151050285Y-85429361D01*
X151193142Y-85476980D01*
X151288380Y-85476980D01*
X151431238Y-85429361D01*
X151526476Y-85334123D01*
X151574095Y-85238885D01*
X151621714Y-85048409D01*
X151621714Y-84905552D01*
X151574095Y-84715076D01*
X151526476Y-84619838D01*
X151431238Y-84524600D01*
X151288380Y-84476980D01*
X151193142Y-84476980D01*
X151050285Y-84524600D01*
X151002666Y-84572219D01*
X150621714Y-84572219D02*
X150574095Y-84524600D01*
X150478857Y-84476980D01*
X150240761Y-84476980D01*
X150145523Y-84524600D01*
X150097904Y-84572219D01*
X150050285Y-84667457D01*
X150050285Y-84762695D01*
X150097904Y-84905552D01*
X150669333Y-85476980D01*
X150050285Y-85476980D01*
X147181866Y-100229942D02*
X147229485Y-100277561D01*
X147372342Y-100325180D01*
X147467580Y-100325180D01*
X147610438Y-100277561D01*
X147705676Y-100182323D01*
X147753295Y-100087085D01*
X147800914Y-99896609D01*
X147800914Y-99753752D01*
X147753295Y-99563276D01*
X147705676Y-99468038D01*
X147610438Y-99372800D01*
X147467580Y-99325180D01*
X147372342Y-99325180D01*
X147229485Y-99372800D01*
X147181866Y-99420419D01*
X146229485Y-100325180D02*
X146800914Y-100325180D01*
X146515200Y-100325180D02*
X146515200Y-99325180D01*
X146610438Y-99468038D01*
X146705676Y-99563276D01*
X146800914Y-99610895D01*
%LPC*%
D12*
X136753600Y-61569600D03*
X136855200Y-103047800D03*
X173380400Y-103225600D03*
D13*
X137668000Y-83896200D03*
X140208000Y-83896200D03*
X142748000Y-83896200D03*
X160401000Y-68148200D03*
X160401000Y-70688200D03*
X160401000Y-73228200D03*
D14*
X148793200Y-87325200D03*
X156413200Y-94945200D03*
X148793200Y-89865200D03*
X156413200Y-92405200D03*
X148793200Y-92405200D03*
X156413200Y-89865200D03*
X148793200Y-94945200D03*
D15*
X156413200Y-87325200D03*
D16*
X154254200Y-71678800D03*
X154254200Y-69138800D03*
D17*
X154254200Y-66598800D03*
D14*
X161315400Y-90322400D03*
D18*
X161315400Y-97942400D03*
D14*
X164617400Y-81991200D03*
D18*
X172237400Y-81991200D03*
D14*
X164642800Y-76530200D03*
D18*
X172262800Y-76530200D03*
D14*
X164769800Y-71551800D03*
D18*
X172389800Y-71551800D03*
D14*
X172720000Y-61798200D03*
D18*
X165100000Y-61798200D03*
D19*
X166268400Y-100888800D03*
D20*
X166268400Y-98348800D03*
X166268400Y-99618800D03*
D19*
X156819600Y-101650800D03*
D20*
X156819600Y-99110800D03*
X156819600Y-100380800D03*
D21*
X159181800Y-82778600D03*
D22*
X156641800Y-82778600D03*
X157911800Y-82778600D03*
D23*
X157708600Y-60934600D03*
D24*
X155168600Y-60934600D03*
D23*
X161594800Y-103581200D03*
D24*
X161594800Y-101041200D03*
D23*
X140919200Y-68224400D03*
D24*
X140919200Y-65684400D03*
G36*
G01*
X148197600Y-60530800D02*
X149947600Y-60530800D01*
G75*
G02*
X150822600Y-61405800I0J-875000D01*
G01*
X150822600Y-63155800D01*
G75*
G02*
X149947600Y-64030800I-875000J0D01*
G01*
X148197600Y-64030800D01*
G75*
G02*
X147322600Y-63155800I0J875000D01*
G01*
X147322600Y-61405800D01*
G75*
G02*
X148197600Y-60530800I875000J0D01*
G01*
G37*
G36*
G01*
X143372600Y-57780800D02*
X145372600Y-57780800D01*
G75*
G02*
X146122600Y-58530800I0J-750000D01*
G01*
X146122600Y-60030800D01*
G75*
G02*
X145372600Y-60780800I-750000J0D01*
G01*
X143372600Y-60780800D01*
G75*
G02*
X142622600Y-60030800I0J750000D01*
G01*
X142622600Y-58530800D01*
G75*
G02*
X143372600Y-57780800I750000J0D01*
G01*
G37*
D25*
X144372600Y-65280800D03*
D26*
X171170600Y-88442800D03*
D27*
X168630600Y-88442800D03*
D18*
X141147800Y-90972000D03*
D15*
X141147800Y-93472000D03*
D18*
X146634200Y-76214600D03*
D15*
X146634200Y-78714600D03*
D18*
X140872200Y-99161600D03*
X145872200Y-99161600D03*
X151104600Y-77698600D03*
X156104600Y-77698600D03*
X172640000Y-65506600D03*
X167640000Y-65506600D03*
X139115800Y-74385800D03*
D15*
X139115800Y-76885800D03*
D18*
X153336000Y-82524600D03*
X148336000Y-82524600D03*
X150501600Y-100355400D03*
D15*
X152501600Y-100355400D03*
M02*
