M48
; DRILL file {KiCad (5.1.10)-1} date 08/02/23 14:32:53
; FORMAT={-:-/ absolute / metric / decimal}
; #@! TF.CreationDate,2023-08-02T14:32:53+03:00
; #@! TF.GenerationSoftware,Kicad,Pcbnew,(5.1.10)-1
; #@! TF.FileFunction,Plated,1,2,PTH
FMAT,2
METRIC
T1C0.750
T2C0.800
T3C0.900
T4C1.000
T5C1.100
T6C3.200
%
G90
G05
T1
X156.642Y-82.779
X156.82Y-99.111
X156.82Y-100.381
X156.82Y-101.651
X157.912Y-82.779
X159.182Y-82.779
X166.268Y-98.349
X166.268Y-99.619
X166.268Y-100.889
T2
X137.668Y-83.896
X139.116Y-74.386
X139.116Y-76.886
X140.208Y-83.896
X140.872Y-99.162
X141.148Y-90.972
X141.148Y-93.472
X142.748Y-83.896
X145.872Y-99.162
X146.634Y-76.215
X146.634Y-78.715
X148.336Y-82.525
X148.793Y-87.325
X148.793Y-89.865
X148.793Y-92.405
X148.793Y-94.945
X150.502Y-100.355
X151.105Y-77.699
X152.502Y-100.355
X153.336Y-82.525
X156.105Y-77.699
X156.413Y-87.325
X156.413Y-89.865
X156.413Y-92.405
X156.413Y-94.945
X160.401Y-68.148
X160.401Y-70.688
X160.401Y-73.228
X161.315Y-90.322
X161.315Y-97.942
X164.617Y-81.991
X164.643Y-76.53
X164.77Y-71.552
X165.1Y-61.798
X167.64Y-65.507
X172.237Y-81.991
X172.263Y-76.53
X172.39Y-71.552
X172.64Y-65.507
X172.72Y-61.798
T3
X168.631Y-88.443
X171.171Y-88.443
T4
X140.919Y-65.684
X140.919Y-68.224
X155.169Y-60.935
X157.709Y-60.935
X161.595Y-101.041
X161.595Y-103.581
T5
X154.254Y-66.599
X154.254Y-69.139
X154.254Y-71.679
T6
X136.754Y-61.57
X136.855Y-103.048
X173.38Y-103.226
T4
X145.373Y-59.281G85X143.373Y-59.281
G05
X145.373Y-65.281G85X143.373Y-65.281
G05
X149.073Y-61.281G85X149.073Y-63.281
G05
T0
M30
