%FSLAX45Y45*%
G04 Gerber Fmt 4.5, Leading zero omitted, Abs format (unit mm)*
G04 Created by KiCad (PCBNEW (5.1.10)-1) date 2023-08-02 14:32:54*
%MOMM*%
%LPD*%
G01*
G04 APERTURE LIST*
%TA.AperFunction,Profile*%
%ADD10C,0.200000*%
%TD*%
%ADD11C,0.200000*%
%ADD12C,0.300000*%
G04 APERTURE END LIST*
D10*
X13508220Y-10740200D02*
G75*
G02*
X13258220Y-10490200I0J250000D01*
G01*
X13258220Y-5990200D02*
G75*
G02*
X13508220Y-5740200I250000J0D01*
G01*
X17758220Y-10490200D02*
X17758220Y-5990200D01*
X13508220Y-10740200D02*
X17508220Y-10740200D01*
X17508220Y-5740200D02*
X13508220Y-5740200D01*
X17508220Y-5740200D02*
G75*
G02*
X17758220Y-5990200I0J-250000D01*
G01*
X13258220Y-5990200D02*
X13258220Y-10490200D01*
X17758220Y-10490200D02*
G75*
G02*
X17508220Y-10740200I-250000J0D01*
G01*
D11*
X15626680Y-8240360D02*
X15701680Y-8315360D01*
X15701680Y-8240360D02*
X15626680Y-8315360D01*
X15644460Y-9873580D02*
X15719460Y-9948580D01*
X15719460Y-9873580D02*
X15644460Y-9948580D01*
X15644460Y-10000580D02*
X15719460Y-10075580D01*
X15719460Y-10000580D02*
X15644460Y-10075580D01*
X15644460Y-10127580D02*
X15719460Y-10202580D01*
X15719460Y-10127580D02*
X15644460Y-10202580D01*
X15753680Y-8240360D02*
X15828680Y-8315360D01*
X15828680Y-8240360D02*
X15753680Y-8315360D01*
X15880680Y-8240360D02*
X15955680Y-8315360D01*
X15955680Y-8240360D02*
X15880680Y-8315360D01*
X16589340Y-9797380D02*
X16664340Y-9872380D01*
X16664340Y-9797380D02*
X16589340Y-9872380D01*
X16589340Y-9924380D02*
X16664340Y-9999380D01*
X16664340Y-9924380D02*
X16589340Y-9999380D01*
X16589340Y-10051380D02*
X16664340Y-10126380D01*
X16664340Y-10051380D02*
X16589340Y-10126380D01*
X13806800Y-8389620D02*
G75*
G03*
X13806800Y-8389620I-40000J0D01*
G01*
X13951580Y-7438580D02*
G75*
G03*
X13951580Y-7438580I-40000J0D01*
G01*
X13951580Y-7688580D02*
G75*
G03*
X13951580Y-7688580I-40000J0D01*
G01*
X14060800Y-8389620D02*
G75*
G03*
X14060800Y-8389620I-40000J0D01*
G01*
X14127220Y-9916160D02*
G75*
G03*
X14127220Y-9916160I-40000J0D01*
G01*
X14154780Y-9097200D02*
G75*
G03*
X14154780Y-9097200I-40000J0D01*
G01*
X14154780Y-9347200D02*
G75*
G03*
X14154780Y-9347200I-40000J0D01*
G01*
X14314800Y-8389620D02*
G75*
G03*
X14314800Y-8389620I-40000J0D01*
G01*
X14627220Y-9916160D02*
G75*
G03*
X14627220Y-9916160I-40000J0D01*
G01*
X14703420Y-7621460D02*
G75*
G03*
X14703420Y-7621460I-40000J0D01*
G01*
X14703420Y-7871460D02*
G75*
G03*
X14703420Y-7871460I-40000J0D01*
G01*
X14873600Y-8252460D02*
G75*
G03*
X14873600Y-8252460I-40000J0D01*
G01*
X14919320Y-8732520D02*
G75*
G03*
X14919320Y-8732520I-40000J0D01*
G01*
X14919320Y-8986520D02*
G75*
G03*
X14919320Y-8986520I-40000J0D01*
G01*
X14919320Y-9240520D02*
G75*
G03*
X14919320Y-9240520I-40000J0D01*
G01*
X14919320Y-9494520D02*
G75*
G03*
X14919320Y-9494520I-40000J0D01*
G01*
X15090160Y-10035540D02*
G75*
G03*
X15090160Y-10035540I-40000J0D01*
G01*
X15150460Y-7769860D02*
G75*
G03*
X15150460Y-7769860I-40000J0D01*
G01*
X15290160Y-10035540D02*
G75*
G03*
X15290160Y-10035540I-40000J0D01*
G01*
X15373600Y-8252460D02*
G75*
G03*
X15373600Y-8252460I-40000J0D01*
G01*
X15650460Y-7769860D02*
G75*
G03*
X15650460Y-7769860I-40000J0D01*
G01*
X15681320Y-8732520D02*
G75*
G03*
X15681320Y-8732520I-40000J0D01*
G01*
X15681320Y-8986520D02*
G75*
G03*
X15681320Y-8986520I-40000J0D01*
G01*
X15681320Y-9240520D02*
G75*
G03*
X15681320Y-9240520I-40000J0D01*
G01*
X15681320Y-9494520D02*
G75*
G03*
X15681320Y-9494520I-40000J0D01*
G01*
X16080100Y-6814820D02*
G75*
G03*
X16080100Y-6814820I-40000J0D01*
G01*
X16080100Y-7068820D02*
G75*
G03*
X16080100Y-7068820I-40000J0D01*
G01*
X16080100Y-7322820D02*
G75*
G03*
X16080100Y-7322820I-40000J0D01*
G01*
X16171540Y-9032240D02*
G75*
G03*
X16171540Y-9032240I-40000J0D01*
G01*
X16171540Y-9794240D02*
G75*
G03*
X16171540Y-9794240I-40000J0D01*
G01*
X16501740Y-8199120D02*
G75*
G03*
X16501740Y-8199120I-40000J0D01*
G01*
X16504280Y-7653020D02*
G75*
G03*
X16504280Y-7653020I-40000J0D01*
G01*
X16516980Y-7155180D02*
G75*
G03*
X16516980Y-7155180I-40000J0D01*
G01*
X16550000Y-6179820D02*
G75*
G03*
X16550000Y-6179820I-40000J0D01*
G01*
X16804000Y-6550660D02*
G75*
G03*
X16804000Y-6550660I-40000J0D01*
G01*
X17263740Y-8199120D02*
G75*
G03*
X17263740Y-8199120I-40000J0D01*
G01*
X17266280Y-7653020D02*
G75*
G03*
X17266280Y-7653020I-40000J0D01*
G01*
X17278980Y-7155180D02*
G75*
G03*
X17278980Y-7155180I-40000J0D01*
G01*
X17304000Y-6550660D02*
G75*
G03*
X17304000Y-6550660I-40000J0D01*
G01*
X17312000Y-6179820D02*
G75*
G03*
X17312000Y-6179820I-40000J0D01*
G01*
X16863060Y-8799280D02*
X16863060Y-8889280D01*
X16818060Y-8844280D02*
X16908060Y-8844280D01*
X17117060Y-8799280D02*
X17117060Y-8889280D01*
X17072060Y-8844280D02*
X17162060Y-8844280D01*
X14127276Y-6603796D02*
X14127276Y-6533084D01*
X14056564Y-6533084D01*
X14056564Y-6603796D01*
X14127276Y-6603796D01*
X14127276Y-6857796D02*
X14127276Y-6787084D01*
X14056564Y-6787084D01*
X14056564Y-6857796D01*
X14127276Y-6857796D01*
X14472616Y-5963436D02*
X14472616Y-5892724D01*
X14401904Y-5892724D01*
X14401904Y-5963436D01*
X14472616Y-5963436D01*
X14537260Y-5888080D02*
X14337260Y-5888080D01*
X14537260Y-5968080D02*
X14337260Y-5968080D01*
X14337260Y-5888080D02*
G75*
G03*
X14337260Y-5968080I0J-40000D01*
G01*
X14537260Y-5968080D02*
G75*
G03*
X14537260Y-5888080I0J40000D01*
G01*
X14472616Y-6563436D02*
X14472616Y-6492724D01*
X14401904Y-6492724D01*
X14401904Y-6563436D01*
X14472616Y-6563436D01*
X14537260Y-6488080D02*
X14337260Y-6488080D01*
X14537260Y-6568080D02*
X14337260Y-6568080D01*
X14337260Y-6488080D02*
G75*
G03*
X14337260Y-6568080I0J-40000D01*
G01*
X14537260Y-6568080D02*
G75*
G03*
X14537260Y-6488080I0J40000D01*
G01*
X14942616Y-6263436D02*
X14942616Y-6192724D01*
X14871904Y-6192724D01*
X14871904Y-6263436D01*
X14942616Y-6263436D01*
X14867260Y-6128080D02*
X14867260Y-6328080D01*
X14947260Y-6128080D02*
X14947260Y-6328080D01*
X14867260Y-6328080D02*
G75*
G03*
X14947260Y-6328080I40000J0D01*
G01*
X14947260Y-6128080D02*
G75*
G03*
X14867260Y-6128080I-40000J0D01*
G01*
X15552216Y-6128816D02*
X15552216Y-6058104D01*
X15481504Y-6058104D01*
X15481504Y-6128816D01*
X15552216Y-6128816D01*
X15806216Y-6128816D02*
X15806216Y-6058104D01*
X15735504Y-6058104D01*
X15735504Y-6128816D01*
X15806216Y-6128816D01*
X16194836Y-10139476D02*
X16194836Y-10068764D01*
X16124124Y-10068764D01*
X16124124Y-10139476D01*
X16194836Y-10139476D01*
X16194836Y-10393476D02*
X16194836Y-10322764D01*
X16124124Y-10322764D01*
X16124124Y-10393476D01*
X16194836Y-10393476D01*
X15425420Y-6714880D02*
X15480420Y-6659880D01*
X15425420Y-6604880D01*
X15370420Y-6659880D01*
X15425420Y-6714880D01*
X15425420Y-6968880D02*
X15480420Y-6913880D01*
X15425420Y-6858880D01*
X15370420Y-6913880D01*
X15425420Y-6968880D01*
X15425420Y-7222880D02*
X15480420Y-7167880D01*
X15425420Y-7112880D01*
X15370420Y-7167880D01*
X15425420Y-7222880D01*
X13515360Y-5996960D02*
X13835360Y-6316960D01*
X13835360Y-5996960D02*
X13515360Y-6316960D01*
X13835360Y-6156960D02*
G75*
G03*
X13835360Y-6156960I-160000J0D01*
G01*
X13525520Y-10144780D02*
X13845520Y-10464780D01*
X13845520Y-10144780D02*
X13525520Y-10464780D01*
X13845520Y-10304780D02*
G75*
G03*
X13845520Y-10304780I-160000J0D01*
G01*
X17178040Y-10162560D02*
X17498040Y-10482560D01*
X17498040Y-10162560D02*
X17178040Y-10482560D01*
X17498040Y-10322560D02*
G75*
G03*
X17498040Y-10322560I-160000J0D01*
G01*
D12*
X13534648Y-11215914D02*
X13534648Y-10915914D01*
X13606077Y-10915914D01*
X13648934Y-10930200D01*
X13677506Y-10958772D01*
X13691791Y-10987343D01*
X13706077Y-11044486D01*
X13706077Y-11087343D01*
X13691791Y-11144486D01*
X13677506Y-11173057D01*
X13648934Y-11201629D01*
X13606077Y-11215914D01*
X13534648Y-11215914D01*
X13834648Y-11215914D02*
X13834648Y-11015914D01*
X13834648Y-11073057D02*
X13848934Y-11044486D01*
X13863220Y-11030200D01*
X13891791Y-11015914D01*
X13920363Y-11015914D01*
X14020363Y-11215914D02*
X14020363Y-11015914D01*
X14020363Y-10915914D02*
X14006077Y-10930200D01*
X14020363Y-10944486D01*
X14034648Y-10930200D01*
X14020363Y-10915914D01*
X14020363Y-10944486D01*
X14206077Y-11215914D02*
X14177506Y-11201629D01*
X14163220Y-11173057D01*
X14163220Y-10915914D01*
X14363220Y-11215914D02*
X14334648Y-11201629D01*
X14320363Y-11173057D01*
X14320363Y-10915914D01*
X14706077Y-11215914D02*
X14706077Y-10915914D01*
X14806077Y-11130200D01*
X14906077Y-10915914D01*
X14906077Y-11215914D01*
X15177506Y-11215914D02*
X15177506Y-11058772D01*
X15163220Y-11030200D01*
X15134648Y-11015914D01*
X15077506Y-11015914D01*
X15048934Y-11030200D01*
X15177506Y-11201629D02*
X15148934Y-11215914D01*
X15077506Y-11215914D01*
X15048934Y-11201629D01*
X15034648Y-11173057D01*
X15034648Y-11144486D01*
X15048934Y-11115914D01*
X15077506Y-11101629D01*
X15148934Y-11101629D01*
X15177506Y-11087343D01*
X15320363Y-11015914D02*
X15320363Y-11315914D01*
X15320363Y-11030200D02*
X15348934Y-11015914D01*
X15406077Y-11015914D01*
X15434648Y-11030200D01*
X15448934Y-11044486D01*
X15463220Y-11073057D01*
X15463220Y-11158772D01*
X15448934Y-11187343D01*
X15434648Y-11201629D01*
X15406077Y-11215914D01*
X15348934Y-11215914D01*
X15320363Y-11201629D01*
X15591791Y-11187343D02*
X15606077Y-11201629D01*
X15591791Y-11215914D01*
X15577506Y-11201629D01*
X15591791Y-11187343D01*
X15591791Y-11215914D01*
X15591791Y-11030200D02*
X15606077Y-11044486D01*
X15591791Y-11058772D01*
X15577506Y-11044486D01*
X15591791Y-11030200D01*
X15591791Y-11058772D01*
X13173220Y-11672700D02*
X13248220Y-11747700D01*
X13248220Y-11672700D02*
X13173220Y-11747700D01*
X13591791Y-11545914D02*
X13620363Y-11545914D01*
X13648934Y-11560200D01*
X13663220Y-11574486D01*
X13677506Y-11603057D01*
X13691791Y-11660200D01*
X13691791Y-11731629D01*
X13677506Y-11788771D01*
X13663220Y-11817343D01*
X13648934Y-11831629D01*
X13620363Y-11845914D01*
X13591791Y-11845914D01*
X13563220Y-11831629D01*
X13548934Y-11817343D01*
X13534648Y-11788771D01*
X13520363Y-11731629D01*
X13520363Y-11660200D01*
X13534648Y-11603057D01*
X13548934Y-11574486D01*
X13563220Y-11560200D01*
X13591791Y-11545914D01*
X13820363Y-11817343D02*
X13834648Y-11831629D01*
X13820363Y-11845914D01*
X13806077Y-11831629D01*
X13820363Y-11817343D01*
X13820363Y-11845914D01*
X13934648Y-11545914D02*
X14134648Y-11545914D01*
X14006077Y-11845914D01*
X14391791Y-11545914D02*
X14248934Y-11545914D01*
X14234648Y-11688771D01*
X14248934Y-11674486D01*
X14277506Y-11660200D01*
X14348934Y-11660200D01*
X14377506Y-11674486D01*
X14391791Y-11688771D01*
X14406077Y-11717343D01*
X14406077Y-11788771D01*
X14391791Y-11817343D01*
X14377506Y-11831629D01*
X14348934Y-11845914D01*
X14277506Y-11845914D01*
X14248934Y-11831629D01*
X14234648Y-11817343D01*
X14591791Y-11545914D02*
X14620363Y-11545914D01*
X14648934Y-11560200D01*
X14663220Y-11574486D01*
X14677506Y-11603057D01*
X14691791Y-11660200D01*
X14691791Y-11731629D01*
X14677506Y-11788771D01*
X14663220Y-11817343D01*
X14648934Y-11831629D01*
X14620363Y-11845914D01*
X14591791Y-11845914D01*
X14563220Y-11831629D01*
X14548934Y-11817343D01*
X14534648Y-11788771D01*
X14520363Y-11731629D01*
X14520363Y-11660200D01*
X14534648Y-11603057D01*
X14548934Y-11574486D01*
X14563220Y-11560200D01*
X14591791Y-11545914D01*
X14820363Y-11845914D02*
X14820363Y-11645914D01*
X14820363Y-11674486D02*
X14834648Y-11660200D01*
X14863220Y-11645914D01*
X14906077Y-11645914D01*
X14934648Y-11660200D01*
X14948934Y-11688771D01*
X14948934Y-11845914D01*
X14948934Y-11688771D02*
X14963220Y-11660200D01*
X14991791Y-11645914D01*
X15034648Y-11645914D01*
X15063220Y-11660200D01*
X15077506Y-11688771D01*
X15077506Y-11845914D01*
X15220363Y-11845914D02*
X15220363Y-11645914D01*
X15220363Y-11674486D02*
X15234648Y-11660200D01*
X15263220Y-11645914D01*
X15306077Y-11645914D01*
X15334648Y-11660200D01*
X15348934Y-11688771D01*
X15348934Y-11845914D01*
X15348934Y-11688771D02*
X15363220Y-11660200D01*
X15391791Y-11645914D01*
X15434648Y-11645914D01*
X15463220Y-11660200D01*
X15477506Y-11688771D01*
X15477506Y-11845914D01*
X16063220Y-11531629D02*
X15806077Y-11917343D01*
X16448934Y-11545914D02*
X16477506Y-11545914D01*
X16506077Y-11560200D01*
X16520363Y-11574486D01*
X16534648Y-11603057D01*
X16548934Y-11660200D01*
X16548934Y-11731629D01*
X16534648Y-11788771D01*
X16520363Y-11817343D01*
X16506077Y-11831629D01*
X16477506Y-11845914D01*
X16448934Y-11845914D01*
X16420363Y-11831629D01*
X16406077Y-11817343D01*
X16391791Y-11788771D01*
X16377506Y-11731629D01*
X16377506Y-11660200D01*
X16391791Y-11603057D01*
X16406077Y-11574486D01*
X16420363Y-11560200D01*
X16448934Y-11545914D01*
X16677506Y-11817343D02*
X16691791Y-11831629D01*
X16677506Y-11845914D01*
X16663220Y-11831629D01*
X16677506Y-11817343D01*
X16677506Y-11845914D01*
X16877506Y-11545914D02*
X16906077Y-11545914D01*
X16934648Y-11560200D01*
X16948934Y-11574486D01*
X16963220Y-11603057D01*
X16977506Y-11660200D01*
X16977506Y-11731629D01*
X16963220Y-11788771D01*
X16948934Y-11817343D01*
X16934648Y-11831629D01*
X16906077Y-11845914D01*
X16877506Y-11845914D01*
X16848934Y-11831629D01*
X16834648Y-11817343D01*
X16820363Y-11788771D01*
X16806077Y-11731629D01*
X16806077Y-11660200D01*
X16820363Y-11603057D01*
X16834648Y-11574486D01*
X16848934Y-11560200D01*
X16877506Y-11545914D01*
X17091791Y-11574486D02*
X17106077Y-11560200D01*
X17134648Y-11545914D01*
X17206077Y-11545914D01*
X17234648Y-11560200D01*
X17248934Y-11574486D01*
X17263220Y-11603057D01*
X17263220Y-11631629D01*
X17248934Y-11674486D01*
X17077506Y-11845914D01*
X17263220Y-11845914D01*
X17406077Y-11845914D02*
X17463220Y-11845914D01*
X17491791Y-11831629D01*
X17506077Y-11817343D01*
X17534648Y-11774486D01*
X17548934Y-11717343D01*
X17548934Y-11603057D01*
X17534648Y-11574486D01*
X17520363Y-11560200D01*
X17491791Y-11545914D01*
X17434648Y-11545914D01*
X17406077Y-11560200D01*
X17391791Y-11574486D01*
X17377506Y-11603057D01*
X17377506Y-11674486D01*
X17391791Y-11703057D01*
X17406077Y-11717343D01*
X17434648Y-11731629D01*
X17491791Y-11731629D01*
X17520363Y-11717343D01*
X17534648Y-11703057D01*
X17548934Y-11674486D01*
X17820363Y-11545914D02*
X17677506Y-11545914D01*
X17663220Y-11688771D01*
X17677506Y-11674486D01*
X17706077Y-11660200D01*
X17777506Y-11660200D01*
X17806077Y-11674486D01*
X17820363Y-11688771D01*
X17834648Y-11717343D01*
X17834648Y-11788771D01*
X17820363Y-11817343D01*
X17806077Y-11831629D01*
X17777506Y-11845914D01*
X17706077Y-11845914D01*
X17677506Y-11831629D01*
X17663220Y-11817343D01*
X17948934Y-11545914D02*
X17948934Y-11603057D01*
X18063220Y-11545914D02*
X18063220Y-11603057D01*
X18506077Y-11960200D02*
X18491791Y-11945914D01*
X18463220Y-11903057D01*
X18448934Y-11874486D01*
X18434648Y-11831629D01*
X18420363Y-11760200D01*
X18420363Y-11703057D01*
X18434648Y-11631629D01*
X18448934Y-11588771D01*
X18463220Y-11560200D01*
X18491791Y-11517343D01*
X18506077Y-11503057D01*
X18634648Y-11845914D02*
X18691791Y-11845914D01*
X18720363Y-11831629D01*
X18734648Y-11817343D01*
X18763220Y-11774486D01*
X18777506Y-11717343D01*
X18777506Y-11603057D01*
X18763220Y-11574486D01*
X18748934Y-11560200D01*
X18720363Y-11545914D01*
X18663220Y-11545914D01*
X18634648Y-11560200D01*
X18620363Y-11574486D01*
X18606077Y-11603057D01*
X18606077Y-11674486D01*
X18620363Y-11703057D01*
X18634648Y-11717343D01*
X18663220Y-11731629D01*
X18720363Y-11731629D01*
X18748934Y-11717343D01*
X18763220Y-11703057D01*
X18777506Y-11674486D01*
X19134648Y-11845914D02*
X19134648Y-11545914D01*
X19263220Y-11845914D02*
X19263220Y-11688771D01*
X19248934Y-11660200D01*
X19220363Y-11645914D01*
X19177506Y-11645914D01*
X19148934Y-11660200D01*
X19134648Y-11674486D01*
X19448934Y-11845914D02*
X19420363Y-11831629D01*
X19406077Y-11817343D01*
X19391791Y-11788771D01*
X19391791Y-11703057D01*
X19406077Y-11674486D01*
X19420363Y-11660200D01*
X19448934Y-11645914D01*
X19491791Y-11645914D01*
X19520363Y-11660200D01*
X19534648Y-11674486D01*
X19548934Y-11703057D01*
X19548934Y-11788771D01*
X19534648Y-11817343D01*
X19520363Y-11831629D01*
X19491791Y-11845914D01*
X19448934Y-11845914D01*
X19720363Y-11845914D02*
X19691791Y-11831629D01*
X19677506Y-11803057D01*
X19677506Y-11545914D01*
X19948934Y-11831629D02*
X19920363Y-11845914D01*
X19863220Y-11845914D01*
X19834648Y-11831629D01*
X19820363Y-11803057D01*
X19820363Y-11688771D01*
X19834648Y-11660200D01*
X19863220Y-11645914D01*
X19920363Y-11645914D01*
X19948934Y-11660200D01*
X19963220Y-11688771D01*
X19963220Y-11717343D01*
X19820363Y-11745914D01*
X20077506Y-11831629D02*
X20106077Y-11845914D01*
X20163220Y-11845914D01*
X20191791Y-11831629D01*
X20206077Y-11803057D01*
X20206077Y-11788771D01*
X20191791Y-11760200D01*
X20163220Y-11745914D01*
X20120363Y-11745914D01*
X20091791Y-11731629D01*
X20077506Y-11703057D01*
X20077506Y-11688771D01*
X20091791Y-11660200D01*
X20120363Y-11645914D01*
X20163220Y-11645914D01*
X20191791Y-11660200D01*
X20306077Y-11960200D02*
X20320363Y-11945914D01*
X20348934Y-11903057D01*
X20363220Y-11874486D01*
X20377506Y-11831629D01*
X20391791Y-11760200D01*
X20391791Y-11703057D01*
X20377506Y-11631629D01*
X20363220Y-11588771D01*
X20348934Y-11560200D01*
X20320363Y-11517343D01*
X20306077Y-11503057D01*
X13248220Y-12106200D02*
G75*
G03*
X13248220Y-12106200I-40000J0D01*
G01*
X13591791Y-11941914D02*
X13620363Y-11941914D01*
X13648934Y-11956200D01*
X13663220Y-11970486D01*
X13677506Y-11999057D01*
X13691791Y-12056200D01*
X13691791Y-12127629D01*
X13677506Y-12184771D01*
X13663220Y-12213343D01*
X13648934Y-12227629D01*
X13620363Y-12241914D01*
X13591791Y-12241914D01*
X13563220Y-12227629D01*
X13548934Y-12213343D01*
X13534648Y-12184771D01*
X13520363Y-12127629D01*
X13520363Y-12056200D01*
X13534648Y-11999057D01*
X13548934Y-11970486D01*
X13563220Y-11956200D01*
X13591791Y-11941914D01*
X13820363Y-12213343D02*
X13834648Y-12227629D01*
X13820363Y-12241914D01*
X13806077Y-12227629D01*
X13820363Y-12213343D01*
X13820363Y-12241914D01*
X14006077Y-12070486D02*
X13977506Y-12056200D01*
X13963220Y-12041914D01*
X13948934Y-12013343D01*
X13948934Y-11999057D01*
X13963220Y-11970486D01*
X13977506Y-11956200D01*
X14006077Y-11941914D01*
X14063220Y-11941914D01*
X14091791Y-11956200D01*
X14106077Y-11970486D01*
X14120363Y-11999057D01*
X14120363Y-12013343D01*
X14106077Y-12041914D01*
X14091791Y-12056200D01*
X14063220Y-12070486D01*
X14006077Y-12070486D01*
X13977506Y-12084771D01*
X13963220Y-12099057D01*
X13948934Y-12127629D01*
X13948934Y-12184771D01*
X13963220Y-12213343D01*
X13977506Y-12227629D01*
X14006077Y-12241914D01*
X14063220Y-12241914D01*
X14091791Y-12227629D01*
X14106077Y-12213343D01*
X14120363Y-12184771D01*
X14120363Y-12127629D01*
X14106077Y-12099057D01*
X14091791Y-12084771D01*
X14063220Y-12070486D01*
X14306077Y-11941914D02*
X14334648Y-11941914D01*
X14363220Y-11956200D01*
X14377506Y-11970486D01*
X14391791Y-11999057D01*
X14406077Y-12056200D01*
X14406077Y-12127629D01*
X14391791Y-12184771D01*
X14377506Y-12213343D01*
X14363220Y-12227629D01*
X14334648Y-12241914D01*
X14306077Y-12241914D01*
X14277506Y-12227629D01*
X14263220Y-12213343D01*
X14248934Y-12184771D01*
X14234648Y-12127629D01*
X14234648Y-12056200D01*
X14248934Y-11999057D01*
X14263220Y-11970486D01*
X14277506Y-11956200D01*
X14306077Y-11941914D01*
X14591791Y-11941914D02*
X14620363Y-11941914D01*
X14648934Y-11956200D01*
X14663220Y-11970486D01*
X14677506Y-11999057D01*
X14691791Y-12056200D01*
X14691791Y-12127629D01*
X14677506Y-12184771D01*
X14663220Y-12213343D01*
X14648934Y-12227629D01*
X14620363Y-12241914D01*
X14591791Y-12241914D01*
X14563220Y-12227629D01*
X14548934Y-12213343D01*
X14534648Y-12184771D01*
X14520363Y-12127629D01*
X14520363Y-12056200D01*
X14534648Y-11999057D01*
X14548934Y-11970486D01*
X14563220Y-11956200D01*
X14591791Y-11941914D01*
X14820363Y-12241914D02*
X14820363Y-12041914D01*
X14820363Y-12070486D02*
X14834648Y-12056200D01*
X14863220Y-12041914D01*
X14906077Y-12041914D01*
X14934648Y-12056200D01*
X14948934Y-12084771D01*
X14948934Y-12241914D01*
X14948934Y-12084771D02*
X14963220Y-12056200D01*
X14991791Y-12041914D01*
X15034648Y-12041914D01*
X15063220Y-12056200D01*
X15077506Y-12084771D01*
X15077506Y-12241914D01*
X15220363Y-12241914D02*
X15220363Y-12041914D01*
X15220363Y-12070486D02*
X15234648Y-12056200D01*
X15263220Y-12041914D01*
X15306077Y-12041914D01*
X15334648Y-12056200D01*
X15348934Y-12084771D01*
X15348934Y-12241914D01*
X15348934Y-12084771D02*
X15363220Y-12056200D01*
X15391791Y-12041914D01*
X15434648Y-12041914D01*
X15463220Y-12056200D01*
X15477506Y-12084771D01*
X15477506Y-12241914D01*
X16063220Y-11927629D02*
X15806077Y-12313343D01*
X16448934Y-11941914D02*
X16477506Y-11941914D01*
X16506077Y-11956200D01*
X16520363Y-11970486D01*
X16534648Y-11999057D01*
X16548934Y-12056200D01*
X16548934Y-12127629D01*
X16534648Y-12184771D01*
X16520363Y-12213343D01*
X16506077Y-12227629D01*
X16477506Y-12241914D01*
X16448934Y-12241914D01*
X16420363Y-12227629D01*
X16406077Y-12213343D01*
X16391791Y-12184771D01*
X16377506Y-12127629D01*
X16377506Y-12056200D01*
X16391791Y-11999057D01*
X16406077Y-11970486D01*
X16420363Y-11956200D01*
X16448934Y-11941914D01*
X16677506Y-12213343D02*
X16691791Y-12227629D01*
X16677506Y-12241914D01*
X16663220Y-12227629D01*
X16677506Y-12213343D01*
X16677506Y-12241914D01*
X16877506Y-11941914D02*
X16906077Y-11941914D01*
X16934648Y-11956200D01*
X16948934Y-11970486D01*
X16963220Y-11999057D01*
X16977506Y-12056200D01*
X16977506Y-12127629D01*
X16963220Y-12184771D01*
X16948934Y-12213343D01*
X16934648Y-12227629D01*
X16906077Y-12241914D01*
X16877506Y-12241914D01*
X16848934Y-12227629D01*
X16834648Y-12213343D01*
X16820363Y-12184771D01*
X16806077Y-12127629D01*
X16806077Y-12056200D01*
X16820363Y-11999057D01*
X16834648Y-11970486D01*
X16848934Y-11956200D01*
X16877506Y-11941914D01*
X17077506Y-11941914D02*
X17263220Y-11941914D01*
X17163220Y-12056200D01*
X17206077Y-12056200D01*
X17234648Y-12070486D01*
X17248934Y-12084771D01*
X17263220Y-12113343D01*
X17263220Y-12184771D01*
X17248934Y-12213343D01*
X17234648Y-12227629D01*
X17206077Y-12241914D01*
X17120363Y-12241914D01*
X17091791Y-12227629D01*
X17077506Y-12213343D01*
X17548934Y-12241914D02*
X17377506Y-12241914D01*
X17463220Y-12241914D02*
X17463220Y-11941914D01*
X17434648Y-11984771D01*
X17406077Y-12013343D01*
X17377506Y-12027629D01*
X17820363Y-11941914D02*
X17677506Y-11941914D01*
X17663220Y-12084771D01*
X17677506Y-12070486D01*
X17706077Y-12056200D01*
X17777506Y-12056200D01*
X17806077Y-12070486D01*
X17820363Y-12084771D01*
X17834648Y-12113343D01*
X17834648Y-12184771D01*
X17820363Y-12213343D01*
X17806077Y-12227629D01*
X17777506Y-12241914D01*
X17706077Y-12241914D01*
X17677506Y-12227629D01*
X17663220Y-12213343D01*
X17948934Y-11941914D02*
X17948934Y-11999057D01*
X18063220Y-11941914D02*
X18063220Y-11999057D01*
X18506077Y-12356200D02*
X18491791Y-12341914D01*
X18463220Y-12299057D01*
X18448934Y-12270486D01*
X18434648Y-12227629D01*
X18420363Y-12156200D01*
X18420363Y-12099057D01*
X18434648Y-12027629D01*
X18448934Y-11984771D01*
X18463220Y-11956200D01*
X18491791Y-11913343D01*
X18506077Y-11899057D01*
X18748934Y-12041914D02*
X18748934Y-12241914D01*
X18677506Y-11927629D02*
X18606077Y-12141914D01*
X18791791Y-12141914D01*
X18963220Y-11941914D02*
X18991791Y-11941914D01*
X19020363Y-11956200D01*
X19034648Y-11970486D01*
X19048934Y-11999057D01*
X19063220Y-12056200D01*
X19063220Y-12127629D01*
X19048934Y-12184771D01*
X19034648Y-12213343D01*
X19020363Y-12227629D01*
X18991791Y-12241914D01*
X18963220Y-12241914D01*
X18934648Y-12227629D01*
X18920363Y-12213343D01*
X18906077Y-12184771D01*
X18891791Y-12127629D01*
X18891791Y-12056200D01*
X18906077Y-11999057D01*
X18920363Y-11970486D01*
X18934648Y-11956200D01*
X18963220Y-11941914D01*
X19420363Y-12241914D02*
X19420363Y-11941914D01*
X19548934Y-12241914D02*
X19548934Y-12084771D01*
X19534648Y-12056200D01*
X19506077Y-12041914D01*
X19463220Y-12041914D01*
X19434648Y-12056200D01*
X19420363Y-12070486D01*
X19734648Y-12241914D02*
X19706077Y-12227629D01*
X19691791Y-12213343D01*
X19677506Y-12184771D01*
X19677506Y-12099057D01*
X19691791Y-12070486D01*
X19706077Y-12056200D01*
X19734648Y-12041914D01*
X19777506Y-12041914D01*
X19806077Y-12056200D01*
X19820363Y-12070486D01*
X19834648Y-12099057D01*
X19834648Y-12184771D01*
X19820363Y-12213343D01*
X19806077Y-12227629D01*
X19777506Y-12241914D01*
X19734648Y-12241914D01*
X20006077Y-12241914D02*
X19977506Y-12227629D01*
X19963220Y-12199057D01*
X19963220Y-11941914D01*
X20234648Y-12227629D02*
X20206077Y-12241914D01*
X20148934Y-12241914D01*
X20120363Y-12227629D01*
X20106077Y-12199057D01*
X20106077Y-12084771D01*
X20120363Y-12056200D01*
X20148934Y-12041914D01*
X20206077Y-12041914D01*
X20234648Y-12056200D01*
X20248934Y-12084771D01*
X20248934Y-12113343D01*
X20106077Y-12141914D01*
X20363220Y-12227629D02*
X20391791Y-12241914D01*
X20448934Y-12241914D01*
X20477506Y-12227629D01*
X20491791Y-12199057D01*
X20491791Y-12184771D01*
X20477506Y-12156200D01*
X20448934Y-12141914D01*
X20406077Y-12141914D01*
X20377506Y-12127629D01*
X20363220Y-12099057D01*
X20363220Y-12084771D01*
X20377506Y-12056200D01*
X20406077Y-12041914D01*
X20448934Y-12041914D01*
X20477506Y-12056200D01*
X20591791Y-12356200D02*
X20606077Y-12341914D01*
X20634648Y-12299057D01*
X20648934Y-12270486D01*
X20663220Y-12227629D01*
X20677506Y-12156200D01*
X20677506Y-12099057D01*
X20663220Y-12027629D01*
X20648934Y-11984771D01*
X20634648Y-11956200D01*
X20606077Y-11913343D01*
X20591791Y-11899057D01*
X13203220Y-12457200D02*
X13203220Y-12547200D01*
X13158220Y-12502200D02*
X13248220Y-12502200D01*
X13591791Y-12337914D02*
X13620363Y-12337914D01*
X13648934Y-12352200D01*
X13663220Y-12366486D01*
X13677506Y-12395057D01*
X13691791Y-12452200D01*
X13691791Y-12523629D01*
X13677506Y-12580771D01*
X13663220Y-12609343D01*
X13648934Y-12623629D01*
X13620363Y-12637914D01*
X13591791Y-12637914D01*
X13563220Y-12623629D01*
X13548934Y-12609343D01*
X13534648Y-12580771D01*
X13520363Y-12523629D01*
X13520363Y-12452200D01*
X13534648Y-12395057D01*
X13548934Y-12366486D01*
X13563220Y-12352200D01*
X13591791Y-12337914D01*
X13820363Y-12609343D02*
X13834648Y-12623629D01*
X13820363Y-12637914D01*
X13806077Y-12623629D01*
X13820363Y-12609343D01*
X13820363Y-12637914D01*
X13977506Y-12637914D02*
X14034648Y-12637914D01*
X14063220Y-12623629D01*
X14077506Y-12609343D01*
X14106077Y-12566486D01*
X14120363Y-12509343D01*
X14120363Y-12395057D01*
X14106077Y-12366486D01*
X14091791Y-12352200D01*
X14063220Y-12337914D01*
X14006077Y-12337914D01*
X13977506Y-12352200D01*
X13963220Y-12366486D01*
X13948934Y-12395057D01*
X13948934Y-12466486D01*
X13963220Y-12495057D01*
X13977506Y-12509343D01*
X14006077Y-12523629D01*
X14063220Y-12523629D01*
X14091791Y-12509343D01*
X14106077Y-12495057D01*
X14120363Y-12466486D01*
X14306077Y-12337914D02*
X14334648Y-12337914D01*
X14363220Y-12352200D01*
X14377506Y-12366486D01*
X14391791Y-12395057D01*
X14406077Y-12452200D01*
X14406077Y-12523629D01*
X14391791Y-12580771D01*
X14377506Y-12609343D01*
X14363220Y-12623629D01*
X14334648Y-12637914D01*
X14306077Y-12637914D01*
X14277506Y-12623629D01*
X14263220Y-12609343D01*
X14248934Y-12580771D01*
X14234648Y-12523629D01*
X14234648Y-12452200D01*
X14248934Y-12395057D01*
X14263220Y-12366486D01*
X14277506Y-12352200D01*
X14306077Y-12337914D01*
X14591791Y-12337914D02*
X14620363Y-12337914D01*
X14648934Y-12352200D01*
X14663220Y-12366486D01*
X14677506Y-12395057D01*
X14691791Y-12452200D01*
X14691791Y-12523629D01*
X14677506Y-12580771D01*
X14663220Y-12609343D01*
X14648934Y-12623629D01*
X14620363Y-12637914D01*
X14591791Y-12637914D01*
X14563220Y-12623629D01*
X14548934Y-12609343D01*
X14534648Y-12580771D01*
X14520363Y-12523629D01*
X14520363Y-12452200D01*
X14534648Y-12395057D01*
X14548934Y-12366486D01*
X14563220Y-12352200D01*
X14591791Y-12337914D01*
X14820363Y-12637914D02*
X14820363Y-12437914D01*
X14820363Y-12466486D02*
X14834648Y-12452200D01*
X14863220Y-12437914D01*
X14906077Y-12437914D01*
X14934648Y-12452200D01*
X14948934Y-12480771D01*
X14948934Y-12637914D01*
X14948934Y-12480771D02*
X14963220Y-12452200D01*
X14991791Y-12437914D01*
X15034648Y-12437914D01*
X15063220Y-12452200D01*
X15077506Y-12480771D01*
X15077506Y-12637914D01*
X15220363Y-12637914D02*
X15220363Y-12437914D01*
X15220363Y-12466486D02*
X15234648Y-12452200D01*
X15263220Y-12437914D01*
X15306077Y-12437914D01*
X15334648Y-12452200D01*
X15348934Y-12480771D01*
X15348934Y-12637914D01*
X15348934Y-12480771D02*
X15363220Y-12452200D01*
X15391791Y-12437914D01*
X15434648Y-12437914D01*
X15463220Y-12452200D01*
X15477506Y-12480771D01*
X15477506Y-12637914D01*
X16063220Y-12323629D02*
X15806077Y-12709343D01*
X16448934Y-12337914D02*
X16477506Y-12337914D01*
X16506077Y-12352200D01*
X16520363Y-12366486D01*
X16534648Y-12395057D01*
X16548934Y-12452200D01*
X16548934Y-12523629D01*
X16534648Y-12580771D01*
X16520363Y-12609343D01*
X16506077Y-12623629D01*
X16477506Y-12637914D01*
X16448934Y-12637914D01*
X16420363Y-12623629D01*
X16406077Y-12609343D01*
X16391791Y-12580771D01*
X16377506Y-12523629D01*
X16377506Y-12452200D01*
X16391791Y-12395057D01*
X16406077Y-12366486D01*
X16420363Y-12352200D01*
X16448934Y-12337914D01*
X16677506Y-12609343D02*
X16691791Y-12623629D01*
X16677506Y-12637914D01*
X16663220Y-12623629D01*
X16677506Y-12609343D01*
X16677506Y-12637914D01*
X16877506Y-12337914D02*
X16906077Y-12337914D01*
X16934648Y-12352200D01*
X16948934Y-12366486D01*
X16963220Y-12395057D01*
X16977506Y-12452200D01*
X16977506Y-12523629D01*
X16963220Y-12580771D01*
X16948934Y-12609343D01*
X16934648Y-12623629D01*
X16906077Y-12637914D01*
X16877506Y-12637914D01*
X16848934Y-12623629D01*
X16834648Y-12609343D01*
X16820363Y-12580771D01*
X16806077Y-12523629D01*
X16806077Y-12452200D01*
X16820363Y-12395057D01*
X16834648Y-12366486D01*
X16848934Y-12352200D01*
X16877506Y-12337914D01*
X17077506Y-12337914D02*
X17263220Y-12337914D01*
X17163220Y-12452200D01*
X17206077Y-12452200D01*
X17234648Y-12466486D01*
X17248934Y-12480771D01*
X17263220Y-12509343D01*
X17263220Y-12580771D01*
X17248934Y-12609343D01*
X17234648Y-12623629D01*
X17206077Y-12637914D01*
X17120363Y-12637914D01*
X17091791Y-12623629D01*
X17077506Y-12609343D01*
X17534648Y-12337914D02*
X17391791Y-12337914D01*
X17377506Y-12480771D01*
X17391791Y-12466486D01*
X17420363Y-12452200D01*
X17491791Y-12452200D01*
X17520363Y-12466486D01*
X17534648Y-12480771D01*
X17548934Y-12509343D01*
X17548934Y-12580771D01*
X17534648Y-12609343D01*
X17520363Y-12623629D01*
X17491791Y-12637914D01*
X17420363Y-12637914D01*
X17391791Y-12623629D01*
X17377506Y-12609343D01*
X17806077Y-12437914D02*
X17806077Y-12637914D01*
X17734648Y-12323629D02*
X17663220Y-12537914D01*
X17848934Y-12537914D01*
X17948934Y-12337914D02*
X17948934Y-12395057D01*
X18063220Y-12337914D02*
X18063220Y-12395057D01*
X18506077Y-12752200D02*
X18491791Y-12737914D01*
X18463220Y-12695057D01*
X18448934Y-12666486D01*
X18434648Y-12623629D01*
X18420363Y-12552200D01*
X18420363Y-12495057D01*
X18434648Y-12423629D01*
X18448934Y-12380771D01*
X18463220Y-12352200D01*
X18491791Y-12309343D01*
X18506077Y-12295057D01*
X18606077Y-12366486D02*
X18620363Y-12352200D01*
X18648934Y-12337914D01*
X18720363Y-12337914D01*
X18748934Y-12352200D01*
X18763220Y-12366486D01*
X18777506Y-12395057D01*
X18777506Y-12423629D01*
X18763220Y-12466486D01*
X18591791Y-12637914D01*
X18777506Y-12637914D01*
X19134648Y-12637914D02*
X19134648Y-12337914D01*
X19263220Y-12637914D02*
X19263220Y-12480771D01*
X19248934Y-12452200D01*
X19220363Y-12437914D01*
X19177506Y-12437914D01*
X19148934Y-12452200D01*
X19134648Y-12466486D01*
X19448934Y-12637914D02*
X19420363Y-12623629D01*
X19406077Y-12609343D01*
X19391791Y-12580771D01*
X19391791Y-12495057D01*
X19406077Y-12466486D01*
X19420363Y-12452200D01*
X19448934Y-12437914D01*
X19491791Y-12437914D01*
X19520363Y-12452200D01*
X19534648Y-12466486D01*
X19548934Y-12495057D01*
X19548934Y-12580771D01*
X19534648Y-12609343D01*
X19520363Y-12623629D01*
X19491791Y-12637914D01*
X19448934Y-12637914D01*
X19720363Y-12637914D02*
X19691791Y-12623629D01*
X19677506Y-12595057D01*
X19677506Y-12337914D01*
X19948934Y-12623629D02*
X19920363Y-12637914D01*
X19863220Y-12637914D01*
X19834648Y-12623629D01*
X19820363Y-12595057D01*
X19820363Y-12480771D01*
X19834648Y-12452200D01*
X19863220Y-12437914D01*
X19920363Y-12437914D01*
X19948934Y-12452200D01*
X19963220Y-12480771D01*
X19963220Y-12509343D01*
X19820363Y-12537914D01*
X20077506Y-12623629D02*
X20106077Y-12637914D01*
X20163220Y-12637914D01*
X20191791Y-12623629D01*
X20206077Y-12595057D01*
X20206077Y-12580771D01*
X20191791Y-12552200D01*
X20163220Y-12537914D01*
X20120363Y-12537914D01*
X20091791Y-12523629D01*
X20077506Y-12495057D01*
X20077506Y-12480771D01*
X20091791Y-12452200D01*
X20120363Y-12437914D01*
X20163220Y-12437914D01*
X20191791Y-12452200D01*
X20306077Y-12752200D02*
X20320363Y-12737914D01*
X20348934Y-12695057D01*
X20363220Y-12666486D01*
X20377506Y-12623629D01*
X20391791Y-12552200D01*
X20391791Y-12495057D01*
X20377506Y-12423629D01*
X20363220Y-12380771D01*
X20348934Y-12352200D01*
X20320363Y-12309343D01*
X20306077Y-12295057D01*
X13233576Y-12933556D02*
X13233576Y-12862844D01*
X13162864Y-12862844D01*
X13162864Y-12933556D01*
X13233576Y-12933556D01*
X13691791Y-13033914D02*
X13520363Y-13033914D01*
X13606077Y-13033914D02*
X13606077Y-12733914D01*
X13577506Y-12776771D01*
X13548934Y-12805343D01*
X13520363Y-12819629D01*
X13820363Y-13005343D02*
X13834648Y-13019629D01*
X13820363Y-13033914D01*
X13806077Y-13019629D01*
X13820363Y-13005343D01*
X13820363Y-13033914D01*
X14020363Y-12733914D02*
X14048934Y-12733914D01*
X14077506Y-12748200D01*
X14091791Y-12762486D01*
X14106077Y-12791057D01*
X14120363Y-12848200D01*
X14120363Y-12919629D01*
X14106077Y-12976771D01*
X14091791Y-13005343D01*
X14077506Y-13019629D01*
X14048934Y-13033914D01*
X14020363Y-13033914D01*
X13991791Y-13019629D01*
X13977506Y-13005343D01*
X13963220Y-12976771D01*
X13948934Y-12919629D01*
X13948934Y-12848200D01*
X13963220Y-12791057D01*
X13977506Y-12762486D01*
X13991791Y-12748200D01*
X14020363Y-12733914D01*
X14306077Y-12733914D02*
X14334648Y-12733914D01*
X14363220Y-12748200D01*
X14377506Y-12762486D01*
X14391791Y-12791057D01*
X14406077Y-12848200D01*
X14406077Y-12919629D01*
X14391791Y-12976771D01*
X14377506Y-13005343D01*
X14363220Y-13019629D01*
X14334648Y-13033914D01*
X14306077Y-13033914D01*
X14277506Y-13019629D01*
X14263220Y-13005343D01*
X14248934Y-12976771D01*
X14234648Y-12919629D01*
X14234648Y-12848200D01*
X14248934Y-12791057D01*
X14263220Y-12762486D01*
X14277506Y-12748200D01*
X14306077Y-12733914D01*
X14591791Y-12733914D02*
X14620363Y-12733914D01*
X14648934Y-12748200D01*
X14663220Y-12762486D01*
X14677506Y-12791057D01*
X14691791Y-12848200D01*
X14691791Y-12919629D01*
X14677506Y-12976771D01*
X14663220Y-13005343D01*
X14648934Y-13019629D01*
X14620363Y-13033914D01*
X14591791Y-13033914D01*
X14563220Y-13019629D01*
X14548934Y-13005343D01*
X14534648Y-12976771D01*
X14520363Y-12919629D01*
X14520363Y-12848200D01*
X14534648Y-12791057D01*
X14548934Y-12762486D01*
X14563220Y-12748200D01*
X14591791Y-12733914D01*
X14820363Y-13033914D02*
X14820363Y-12833914D01*
X14820363Y-12862486D02*
X14834648Y-12848200D01*
X14863220Y-12833914D01*
X14906077Y-12833914D01*
X14934648Y-12848200D01*
X14948934Y-12876771D01*
X14948934Y-13033914D01*
X14948934Y-12876771D02*
X14963220Y-12848200D01*
X14991791Y-12833914D01*
X15034648Y-12833914D01*
X15063220Y-12848200D01*
X15077506Y-12876771D01*
X15077506Y-13033914D01*
X15220363Y-13033914D02*
X15220363Y-12833914D01*
X15220363Y-12862486D02*
X15234648Y-12848200D01*
X15263220Y-12833914D01*
X15306077Y-12833914D01*
X15334648Y-12848200D01*
X15348934Y-12876771D01*
X15348934Y-13033914D01*
X15348934Y-12876771D02*
X15363220Y-12848200D01*
X15391791Y-12833914D01*
X15434648Y-12833914D01*
X15463220Y-12848200D01*
X15477506Y-12876771D01*
X15477506Y-13033914D01*
X16063220Y-12719629D02*
X15806077Y-13105343D01*
X16448934Y-12733914D02*
X16477506Y-12733914D01*
X16506077Y-12748200D01*
X16520363Y-12762486D01*
X16534648Y-12791057D01*
X16548934Y-12848200D01*
X16548934Y-12919629D01*
X16534648Y-12976771D01*
X16520363Y-13005343D01*
X16506077Y-13019629D01*
X16477506Y-13033914D01*
X16448934Y-13033914D01*
X16420363Y-13019629D01*
X16406077Y-13005343D01*
X16391791Y-12976771D01*
X16377506Y-12919629D01*
X16377506Y-12848200D01*
X16391791Y-12791057D01*
X16406077Y-12762486D01*
X16420363Y-12748200D01*
X16448934Y-12733914D01*
X16677506Y-13005343D02*
X16691791Y-13019629D01*
X16677506Y-13033914D01*
X16663220Y-13019629D01*
X16677506Y-13005343D01*
X16677506Y-13033914D01*
X16877506Y-12733914D02*
X16906077Y-12733914D01*
X16934648Y-12748200D01*
X16948934Y-12762486D01*
X16963220Y-12791057D01*
X16977506Y-12848200D01*
X16977506Y-12919629D01*
X16963220Y-12976771D01*
X16948934Y-13005343D01*
X16934648Y-13019629D01*
X16906077Y-13033914D01*
X16877506Y-13033914D01*
X16848934Y-13019629D01*
X16834648Y-13005343D01*
X16820363Y-12976771D01*
X16806077Y-12919629D01*
X16806077Y-12848200D01*
X16820363Y-12791057D01*
X16834648Y-12762486D01*
X16848934Y-12748200D01*
X16877506Y-12733914D01*
X17077506Y-12733914D02*
X17263220Y-12733914D01*
X17163220Y-12848200D01*
X17206077Y-12848200D01*
X17234648Y-12862486D01*
X17248934Y-12876771D01*
X17263220Y-12905343D01*
X17263220Y-12976771D01*
X17248934Y-13005343D01*
X17234648Y-13019629D01*
X17206077Y-13033914D01*
X17120363Y-13033914D01*
X17091791Y-13019629D01*
X17077506Y-13005343D01*
X17406077Y-13033914D02*
X17463220Y-13033914D01*
X17491791Y-13019629D01*
X17506077Y-13005343D01*
X17534648Y-12962486D01*
X17548934Y-12905343D01*
X17548934Y-12791057D01*
X17534648Y-12762486D01*
X17520363Y-12748200D01*
X17491791Y-12733914D01*
X17434648Y-12733914D01*
X17406077Y-12748200D01*
X17391791Y-12762486D01*
X17377506Y-12791057D01*
X17377506Y-12862486D01*
X17391791Y-12891057D01*
X17406077Y-12905343D01*
X17434648Y-12919629D01*
X17491791Y-12919629D01*
X17520363Y-12905343D01*
X17534648Y-12891057D01*
X17548934Y-12862486D01*
X17806077Y-12833914D02*
X17806077Y-13033914D01*
X17734648Y-12719629D02*
X17663220Y-12933914D01*
X17848934Y-12933914D01*
X17948934Y-12733914D02*
X17948934Y-12791057D01*
X18063220Y-12733914D02*
X18063220Y-12791057D01*
X18506077Y-13148200D02*
X18491791Y-13133914D01*
X18463220Y-13091057D01*
X18448934Y-13062486D01*
X18434648Y-13019629D01*
X18420363Y-12948200D01*
X18420363Y-12891057D01*
X18434648Y-12819629D01*
X18448934Y-12776771D01*
X18463220Y-12748200D01*
X18491791Y-12705343D01*
X18506077Y-12691057D01*
X18748934Y-12733914D02*
X18691791Y-12733914D01*
X18663220Y-12748200D01*
X18648934Y-12762486D01*
X18620363Y-12805343D01*
X18606077Y-12862486D01*
X18606077Y-12976771D01*
X18620363Y-13005343D01*
X18634648Y-13019629D01*
X18663220Y-13033914D01*
X18720363Y-13033914D01*
X18748934Y-13019629D01*
X18763220Y-13005343D01*
X18777506Y-12976771D01*
X18777506Y-12905343D01*
X18763220Y-12876771D01*
X18748934Y-12862486D01*
X18720363Y-12848200D01*
X18663220Y-12848200D01*
X18634648Y-12862486D01*
X18620363Y-12876771D01*
X18606077Y-12905343D01*
X19134648Y-13033914D02*
X19134648Y-12733914D01*
X19263220Y-13033914D02*
X19263220Y-12876771D01*
X19248934Y-12848200D01*
X19220363Y-12833914D01*
X19177506Y-12833914D01*
X19148934Y-12848200D01*
X19134648Y-12862486D01*
X19448934Y-13033914D02*
X19420363Y-13019629D01*
X19406077Y-13005343D01*
X19391791Y-12976771D01*
X19391791Y-12891057D01*
X19406077Y-12862486D01*
X19420363Y-12848200D01*
X19448934Y-12833914D01*
X19491791Y-12833914D01*
X19520363Y-12848200D01*
X19534648Y-12862486D01*
X19548934Y-12891057D01*
X19548934Y-12976771D01*
X19534648Y-13005343D01*
X19520363Y-13019629D01*
X19491791Y-13033914D01*
X19448934Y-13033914D01*
X19720363Y-13033914D02*
X19691791Y-13019629D01*
X19677506Y-12991057D01*
X19677506Y-12733914D01*
X19948934Y-13019629D02*
X19920363Y-13033914D01*
X19863220Y-13033914D01*
X19834648Y-13019629D01*
X19820363Y-12991057D01*
X19820363Y-12876771D01*
X19834648Y-12848200D01*
X19863220Y-12833914D01*
X19920363Y-12833914D01*
X19948934Y-12848200D01*
X19963220Y-12876771D01*
X19963220Y-12905343D01*
X19820363Y-12933914D01*
X20077506Y-13019629D02*
X20106077Y-13033914D01*
X20163220Y-13033914D01*
X20191791Y-13019629D01*
X20206077Y-12991057D01*
X20206077Y-12976771D01*
X20191791Y-12948200D01*
X20163220Y-12933914D01*
X20120363Y-12933914D01*
X20091791Y-12919629D01*
X20077506Y-12891057D01*
X20077506Y-12876771D01*
X20091791Y-12848200D01*
X20120363Y-12833914D01*
X20163220Y-12833914D01*
X20191791Y-12848200D01*
X20563220Y-12919629D02*
X20791791Y-12919629D01*
X20677506Y-13033914D02*
X20677506Y-12805343D01*
X21134648Y-12733914D02*
X21320363Y-12733914D01*
X21220363Y-12848200D01*
X21263220Y-12848200D01*
X21291791Y-12862486D01*
X21306077Y-12876771D01*
X21320363Y-12905343D01*
X21320363Y-12976771D01*
X21306077Y-13005343D01*
X21291791Y-13019629D01*
X21263220Y-13033914D01*
X21177506Y-13033914D01*
X21148934Y-13019629D01*
X21134648Y-13005343D01*
X21663220Y-13019629D02*
X21691791Y-13033914D01*
X21748934Y-13033914D01*
X21777506Y-13019629D01*
X21791791Y-12991057D01*
X21791791Y-12976771D01*
X21777506Y-12948200D01*
X21748934Y-12933914D01*
X21706077Y-12933914D01*
X21677506Y-12919629D01*
X21663220Y-12891057D01*
X21663220Y-12876771D01*
X21677506Y-12848200D01*
X21706077Y-12833914D01*
X21748934Y-12833914D01*
X21777506Y-12848200D01*
X21963220Y-13033914D02*
X21934648Y-13019629D01*
X21920363Y-12991057D01*
X21920363Y-12733914D01*
X22120363Y-13033914D02*
X22091791Y-13019629D01*
X22077506Y-13005343D01*
X22063220Y-12976771D01*
X22063220Y-12891057D01*
X22077506Y-12862486D01*
X22091791Y-12848200D01*
X22120363Y-12833914D01*
X22163220Y-12833914D01*
X22191791Y-12848200D01*
X22206077Y-12862486D01*
X22220363Y-12891057D01*
X22220363Y-12976771D01*
X22206077Y-13005343D01*
X22191791Y-13019629D01*
X22163220Y-13033914D01*
X22120363Y-13033914D01*
X22306077Y-12833914D02*
X22420363Y-12833914D01*
X22348934Y-12733914D02*
X22348934Y-12991057D01*
X22363220Y-13019629D01*
X22391791Y-13033914D01*
X22420363Y-13033914D01*
X22506077Y-13019629D02*
X22534648Y-13033914D01*
X22591791Y-13033914D01*
X22620363Y-13019629D01*
X22634648Y-12991057D01*
X22634648Y-12976771D01*
X22620363Y-12948200D01*
X22591791Y-12933914D01*
X22548934Y-12933914D01*
X22520363Y-12919629D01*
X22506077Y-12891057D01*
X22506077Y-12876771D01*
X22520363Y-12848200D01*
X22548934Y-12833914D01*
X22591791Y-12833914D01*
X22620363Y-12848200D01*
X22734648Y-13148200D02*
X22748934Y-13133914D01*
X22777506Y-13091057D01*
X22791791Y-13062486D01*
X22806077Y-13019629D01*
X22820363Y-12948200D01*
X22820363Y-12891057D01*
X22806077Y-12819629D01*
X22791791Y-12776771D01*
X22777506Y-12748200D01*
X22748934Y-12705343D01*
X22734648Y-12691057D01*
X13193220Y-13349200D02*
X13248220Y-13294200D01*
X13193220Y-13239200D01*
X13138220Y-13294200D01*
X13193220Y-13349200D01*
X13691791Y-13429914D02*
X13520363Y-13429914D01*
X13606077Y-13429914D02*
X13606077Y-13129914D01*
X13577506Y-13172771D01*
X13548934Y-13201343D01*
X13520363Y-13215629D01*
X13820363Y-13401343D02*
X13834648Y-13415629D01*
X13820363Y-13429914D01*
X13806077Y-13415629D01*
X13820363Y-13401343D01*
X13820363Y-13429914D01*
X14120363Y-13429914D02*
X13948934Y-13429914D01*
X14034648Y-13429914D02*
X14034648Y-13129914D01*
X14006077Y-13172771D01*
X13977506Y-13201343D01*
X13948934Y-13215629D01*
X14306077Y-13129914D02*
X14334648Y-13129914D01*
X14363220Y-13144200D01*
X14377506Y-13158486D01*
X14391791Y-13187057D01*
X14406077Y-13244200D01*
X14406077Y-13315629D01*
X14391791Y-13372771D01*
X14377506Y-13401343D01*
X14363220Y-13415629D01*
X14334648Y-13429914D01*
X14306077Y-13429914D01*
X14277506Y-13415629D01*
X14263220Y-13401343D01*
X14248934Y-13372771D01*
X14234648Y-13315629D01*
X14234648Y-13244200D01*
X14248934Y-13187057D01*
X14263220Y-13158486D01*
X14277506Y-13144200D01*
X14306077Y-13129914D01*
X14591791Y-13129914D02*
X14620363Y-13129914D01*
X14648934Y-13144200D01*
X14663220Y-13158486D01*
X14677506Y-13187057D01*
X14691791Y-13244200D01*
X14691791Y-13315629D01*
X14677506Y-13372771D01*
X14663220Y-13401343D01*
X14648934Y-13415629D01*
X14620363Y-13429914D01*
X14591791Y-13429914D01*
X14563220Y-13415629D01*
X14548934Y-13401343D01*
X14534648Y-13372771D01*
X14520363Y-13315629D01*
X14520363Y-13244200D01*
X14534648Y-13187057D01*
X14548934Y-13158486D01*
X14563220Y-13144200D01*
X14591791Y-13129914D01*
X14820363Y-13429914D02*
X14820363Y-13229914D01*
X14820363Y-13258486D02*
X14834648Y-13244200D01*
X14863220Y-13229914D01*
X14906077Y-13229914D01*
X14934648Y-13244200D01*
X14948934Y-13272771D01*
X14948934Y-13429914D01*
X14948934Y-13272771D02*
X14963220Y-13244200D01*
X14991791Y-13229914D01*
X15034648Y-13229914D01*
X15063220Y-13244200D01*
X15077506Y-13272771D01*
X15077506Y-13429914D01*
X15220363Y-13429914D02*
X15220363Y-13229914D01*
X15220363Y-13258486D02*
X15234648Y-13244200D01*
X15263220Y-13229914D01*
X15306077Y-13229914D01*
X15334648Y-13244200D01*
X15348934Y-13272771D01*
X15348934Y-13429914D01*
X15348934Y-13272771D02*
X15363220Y-13244200D01*
X15391791Y-13229914D01*
X15434648Y-13229914D01*
X15463220Y-13244200D01*
X15477506Y-13272771D01*
X15477506Y-13429914D01*
X16063220Y-13115629D02*
X15806077Y-13501343D01*
X16448934Y-13129914D02*
X16477506Y-13129914D01*
X16506077Y-13144200D01*
X16520363Y-13158486D01*
X16534648Y-13187057D01*
X16548934Y-13244200D01*
X16548934Y-13315629D01*
X16534648Y-13372771D01*
X16520363Y-13401343D01*
X16506077Y-13415629D01*
X16477506Y-13429914D01*
X16448934Y-13429914D01*
X16420363Y-13415629D01*
X16406077Y-13401343D01*
X16391791Y-13372771D01*
X16377506Y-13315629D01*
X16377506Y-13244200D01*
X16391791Y-13187057D01*
X16406077Y-13158486D01*
X16420363Y-13144200D01*
X16448934Y-13129914D01*
X16677506Y-13401343D02*
X16691791Y-13415629D01*
X16677506Y-13429914D01*
X16663220Y-13415629D01*
X16677506Y-13401343D01*
X16677506Y-13429914D01*
X16877506Y-13129914D02*
X16906077Y-13129914D01*
X16934648Y-13144200D01*
X16948934Y-13158486D01*
X16963220Y-13187057D01*
X16977506Y-13244200D01*
X16977506Y-13315629D01*
X16963220Y-13372771D01*
X16948934Y-13401343D01*
X16934648Y-13415629D01*
X16906077Y-13429914D01*
X16877506Y-13429914D01*
X16848934Y-13415629D01*
X16834648Y-13401343D01*
X16820363Y-13372771D01*
X16806077Y-13315629D01*
X16806077Y-13244200D01*
X16820363Y-13187057D01*
X16834648Y-13158486D01*
X16848934Y-13144200D01*
X16877506Y-13129914D01*
X17234648Y-13229914D02*
X17234648Y-13429914D01*
X17163220Y-13115629D02*
X17091791Y-13329914D01*
X17277506Y-13329914D01*
X17363220Y-13129914D02*
X17548934Y-13129914D01*
X17448934Y-13244200D01*
X17491791Y-13244200D01*
X17520363Y-13258486D01*
X17534648Y-13272771D01*
X17548934Y-13301343D01*
X17548934Y-13372771D01*
X17534648Y-13401343D01*
X17520363Y-13415629D01*
X17491791Y-13429914D01*
X17406077Y-13429914D01*
X17377506Y-13415629D01*
X17363220Y-13401343D01*
X17648934Y-13129914D02*
X17834648Y-13129914D01*
X17734648Y-13244200D01*
X17777506Y-13244200D01*
X17806077Y-13258486D01*
X17820363Y-13272771D01*
X17834648Y-13301343D01*
X17834648Y-13372771D01*
X17820363Y-13401343D01*
X17806077Y-13415629D01*
X17777506Y-13429914D01*
X17691791Y-13429914D01*
X17663220Y-13415629D01*
X17648934Y-13401343D01*
X17948934Y-13129914D02*
X17948934Y-13187057D01*
X18063220Y-13129914D02*
X18063220Y-13187057D01*
X18506077Y-13544200D02*
X18491791Y-13529914D01*
X18463220Y-13487057D01*
X18448934Y-13458486D01*
X18434648Y-13415629D01*
X18420363Y-13344200D01*
X18420363Y-13287057D01*
X18434648Y-13215629D01*
X18448934Y-13172771D01*
X18463220Y-13144200D01*
X18491791Y-13101343D01*
X18506077Y-13087057D01*
X18591791Y-13129914D02*
X18777506Y-13129914D01*
X18677506Y-13244200D01*
X18720363Y-13244200D01*
X18748934Y-13258486D01*
X18763220Y-13272771D01*
X18777506Y-13301343D01*
X18777506Y-13372771D01*
X18763220Y-13401343D01*
X18748934Y-13415629D01*
X18720363Y-13429914D01*
X18634648Y-13429914D01*
X18606077Y-13415629D01*
X18591791Y-13401343D01*
X19134648Y-13429914D02*
X19134648Y-13129914D01*
X19263220Y-13429914D02*
X19263220Y-13272771D01*
X19248934Y-13244200D01*
X19220363Y-13229914D01*
X19177506Y-13229914D01*
X19148934Y-13244200D01*
X19134648Y-13258486D01*
X19448934Y-13429914D02*
X19420363Y-13415629D01*
X19406077Y-13401343D01*
X19391791Y-13372771D01*
X19391791Y-13287057D01*
X19406077Y-13258486D01*
X19420363Y-13244200D01*
X19448934Y-13229914D01*
X19491791Y-13229914D01*
X19520363Y-13244200D01*
X19534648Y-13258486D01*
X19548934Y-13287057D01*
X19548934Y-13372771D01*
X19534648Y-13401343D01*
X19520363Y-13415629D01*
X19491791Y-13429914D01*
X19448934Y-13429914D01*
X19720363Y-13429914D02*
X19691791Y-13415629D01*
X19677506Y-13387057D01*
X19677506Y-13129914D01*
X19948934Y-13415629D02*
X19920363Y-13429914D01*
X19863220Y-13429914D01*
X19834648Y-13415629D01*
X19820363Y-13387057D01*
X19820363Y-13272771D01*
X19834648Y-13244200D01*
X19863220Y-13229914D01*
X19920363Y-13229914D01*
X19948934Y-13244200D01*
X19963220Y-13272771D01*
X19963220Y-13301343D01*
X19820363Y-13329914D01*
X20077506Y-13415629D02*
X20106077Y-13429914D01*
X20163220Y-13429914D01*
X20191791Y-13415629D01*
X20206077Y-13387057D01*
X20206077Y-13372771D01*
X20191791Y-13344200D01*
X20163220Y-13329914D01*
X20120363Y-13329914D01*
X20091791Y-13315629D01*
X20077506Y-13287057D01*
X20077506Y-13272771D01*
X20091791Y-13244200D01*
X20120363Y-13229914D01*
X20163220Y-13229914D01*
X20191791Y-13244200D01*
X20306077Y-13544200D02*
X20320363Y-13529914D01*
X20348934Y-13487057D01*
X20363220Y-13458486D01*
X20377506Y-13415629D01*
X20391791Y-13344200D01*
X20391791Y-13287057D01*
X20377506Y-13215629D01*
X20363220Y-13172771D01*
X20348934Y-13144200D01*
X20320363Y-13101343D01*
X20306077Y-13087057D01*
X12928220Y-13530200D02*
X13248220Y-13850200D01*
X13248220Y-13530200D02*
X12928220Y-13850200D01*
X13248220Y-13690200D02*
G75*
G03*
X13248220Y-13690200I-160000J0D01*
G01*
X13506077Y-13525914D02*
X13691791Y-13525914D01*
X13591791Y-13640200D01*
X13634648Y-13640200D01*
X13663220Y-13654486D01*
X13677506Y-13668771D01*
X13691791Y-13697343D01*
X13691791Y-13768771D01*
X13677506Y-13797343D01*
X13663220Y-13811629D01*
X13634648Y-13825914D01*
X13548934Y-13825914D01*
X13520363Y-13811629D01*
X13506077Y-13797343D01*
X13820363Y-13797343D02*
X13834648Y-13811629D01*
X13820363Y-13825914D01*
X13806077Y-13811629D01*
X13820363Y-13797343D01*
X13820363Y-13825914D01*
X13948934Y-13554486D02*
X13963220Y-13540200D01*
X13991791Y-13525914D01*
X14063220Y-13525914D01*
X14091791Y-13540200D01*
X14106077Y-13554486D01*
X14120363Y-13583057D01*
X14120363Y-13611629D01*
X14106077Y-13654486D01*
X13934648Y-13825914D01*
X14120363Y-13825914D01*
X14306077Y-13525914D02*
X14334648Y-13525914D01*
X14363220Y-13540200D01*
X14377506Y-13554486D01*
X14391791Y-13583057D01*
X14406077Y-13640200D01*
X14406077Y-13711629D01*
X14391791Y-13768771D01*
X14377506Y-13797343D01*
X14363220Y-13811629D01*
X14334648Y-13825914D01*
X14306077Y-13825914D01*
X14277506Y-13811629D01*
X14263220Y-13797343D01*
X14248934Y-13768771D01*
X14234648Y-13711629D01*
X14234648Y-13640200D01*
X14248934Y-13583057D01*
X14263220Y-13554486D01*
X14277506Y-13540200D01*
X14306077Y-13525914D01*
X14591791Y-13525914D02*
X14620363Y-13525914D01*
X14648934Y-13540200D01*
X14663220Y-13554486D01*
X14677506Y-13583057D01*
X14691791Y-13640200D01*
X14691791Y-13711629D01*
X14677506Y-13768771D01*
X14663220Y-13797343D01*
X14648934Y-13811629D01*
X14620363Y-13825914D01*
X14591791Y-13825914D01*
X14563220Y-13811629D01*
X14548934Y-13797343D01*
X14534648Y-13768771D01*
X14520363Y-13711629D01*
X14520363Y-13640200D01*
X14534648Y-13583057D01*
X14548934Y-13554486D01*
X14563220Y-13540200D01*
X14591791Y-13525914D01*
X14820363Y-13825914D02*
X14820363Y-13625914D01*
X14820363Y-13654486D02*
X14834648Y-13640200D01*
X14863220Y-13625914D01*
X14906077Y-13625914D01*
X14934648Y-13640200D01*
X14948934Y-13668771D01*
X14948934Y-13825914D01*
X14948934Y-13668771D02*
X14963220Y-13640200D01*
X14991791Y-13625914D01*
X15034648Y-13625914D01*
X15063220Y-13640200D01*
X15077506Y-13668771D01*
X15077506Y-13825914D01*
X15220363Y-13825914D02*
X15220363Y-13625914D01*
X15220363Y-13654486D02*
X15234648Y-13640200D01*
X15263220Y-13625914D01*
X15306077Y-13625914D01*
X15334648Y-13640200D01*
X15348934Y-13668771D01*
X15348934Y-13825914D01*
X15348934Y-13668771D02*
X15363220Y-13640200D01*
X15391791Y-13625914D01*
X15434648Y-13625914D01*
X15463220Y-13640200D01*
X15477506Y-13668771D01*
X15477506Y-13825914D01*
X16063220Y-13511629D02*
X15806077Y-13897343D01*
X16448934Y-13525914D02*
X16477506Y-13525914D01*
X16506077Y-13540200D01*
X16520363Y-13554486D01*
X16534648Y-13583057D01*
X16548934Y-13640200D01*
X16548934Y-13711629D01*
X16534648Y-13768771D01*
X16520363Y-13797343D01*
X16506077Y-13811629D01*
X16477506Y-13825914D01*
X16448934Y-13825914D01*
X16420363Y-13811629D01*
X16406077Y-13797343D01*
X16391791Y-13768771D01*
X16377506Y-13711629D01*
X16377506Y-13640200D01*
X16391791Y-13583057D01*
X16406077Y-13554486D01*
X16420363Y-13540200D01*
X16448934Y-13525914D01*
X16677506Y-13797343D02*
X16691791Y-13811629D01*
X16677506Y-13825914D01*
X16663220Y-13811629D01*
X16677506Y-13797343D01*
X16677506Y-13825914D01*
X16977506Y-13825914D02*
X16806077Y-13825914D01*
X16891791Y-13825914D02*
X16891791Y-13525914D01*
X16863220Y-13568771D01*
X16834648Y-13597343D01*
X16806077Y-13611629D01*
X17091791Y-13554486D02*
X17106077Y-13540200D01*
X17134648Y-13525914D01*
X17206077Y-13525914D01*
X17234648Y-13540200D01*
X17248934Y-13554486D01*
X17263220Y-13583057D01*
X17263220Y-13611629D01*
X17248934Y-13654486D01*
X17077506Y-13825914D01*
X17263220Y-13825914D01*
X17520363Y-13525914D02*
X17463220Y-13525914D01*
X17434648Y-13540200D01*
X17420363Y-13554486D01*
X17391791Y-13597343D01*
X17377506Y-13654486D01*
X17377506Y-13768771D01*
X17391791Y-13797343D01*
X17406077Y-13811629D01*
X17434648Y-13825914D01*
X17491791Y-13825914D01*
X17520363Y-13811629D01*
X17534648Y-13797343D01*
X17548934Y-13768771D01*
X17548934Y-13697343D01*
X17534648Y-13668771D01*
X17520363Y-13654486D01*
X17491791Y-13640200D01*
X17434648Y-13640200D01*
X17406077Y-13654486D01*
X17391791Y-13668771D01*
X17377506Y-13697343D01*
X17734648Y-13525914D02*
X17763220Y-13525914D01*
X17791791Y-13540200D01*
X17806077Y-13554486D01*
X17820363Y-13583057D01*
X17834648Y-13640200D01*
X17834648Y-13711629D01*
X17820363Y-13768771D01*
X17806077Y-13797343D01*
X17791791Y-13811629D01*
X17763220Y-13825914D01*
X17734648Y-13825914D01*
X17706077Y-13811629D01*
X17691791Y-13797343D01*
X17677506Y-13768771D01*
X17663220Y-13711629D01*
X17663220Y-13640200D01*
X17677506Y-13583057D01*
X17691791Y-13554486D01*
X17706077Y-13540200D01*
X17734648Y-13525914D01*
X17948934Y-13525914D02*
X17948934Y-13583057D01*
X18063220Y-13525914D02*
X18063220Y-13583057D01*
X18506077Y-13940200D02*
X18491791Y-13925914D01*
X18463220Y-13883057D01*
X18448934Y-13854486D01*
X18434648Y-13811629D01*
X18420363Y-13740200D01*
X18420363Y-13683057D01*
X18434648Y-13611629D01*
X18448934Y-13568771D01*
X18463220Y-13540200D01*
X18491791Y-13497343D01*
X18506077Y-13483057D01*
X18591791Y-13525914D02*
X18777506Y-13525914D01*
X18677506Y-13640200D01*
X18720363Y-13640200D01*
X18748934Y-13654486D01*
X18763220Y-13668771D01*
X18777506Y-13697343D01*
X18777506Y-13768771D01*
X18763220Y-13797343D01*
X18748934Y-13811629D01*
X18720363Y-13825914D01*
X18634648Y-13825914D01*
X18606077Y-13811629D01*
X18591791Y-13797343D01*
X19134648Y-13825914D02*
X19134648Y-13525914D01*
X19263220Y-13825914D02*
X19263220Y-13668771D01*
X19248934Y-13640200D01*
X19220363Y-13625914D01*
X19177506Y-13625914D01*
X19148934Y-13640200D01*
X19134648Y-13654486D01*
X19448934Y-13825914D02*
X19420363Y-13811629D01*
X19406077Y-13797343D01*
X19391791Y-13768771D01*
X19391791Y-13683057D01*
X19406077Y-13654486D01*
X19420363Y-13640200D01*
X19448934Y-13625914D01*
X19491791Y-13625914D01*
X19520363Y-13640200D01*
X19534648Y-13654486D01*
X19548934Y-13683057D01*
X19548934Y-13768771D01*
X19534648Y-13797343D01*
X19520363Y-13811629D01*
X19491791Y-13825914D01*
X19448934Y-13825914D01*
X19720363Y-13825914D02*
X19691791Y-13811629D01*
X19677506Y-13783057D01*
X19677506Y-13525914D01*
X19948934Y-13811629D02*
X19920363Y-13825914D01*
X19863220Y-13825914D01*
X19834648Y-13811629D01*
X19820363Y-13783057D01*
X19820363Y-13668771D01*
X19834648Y-13640200D01*
X19863220Y-13625914D01*
X19920363Y-13625914D01*
X19948934Y-13640200D01*
X19963220Y-13668771D01*
X19963220Y-13697343D01*
X19820363Y-13725914D01*
X20077506Y-13811629D02*
X20106077Y-13825914D01*
X20163220Y-13825914D01*
X20191791Y-13811629D01*
X20206077Y-13783057D01*
X20206077Y-13768771D01*
X20191791Y-13740200D01*
X20163220Y-13725914D01*
X20120363Y-13725914D01*
X20091791Y-13711629D01*
X20077506Y-13683057D01*
X20077506Y-13668771D01*
X20091791Y-13640200D01*
X20120363Y-13625914D01*
X20163220Y-13625914D01*
X20191791Y-13640200D01*
X20306077Y-13940200D02*
X20320363Y-13925914D01*
X20348934Y-13883057D01*
X20363220Y-13854486D01*
X20377506Y-13811629D01*
X20391791Y-13740200D01*
X20391791Y-13683057D01*
X20377506Y-13611629D01*
X20363220Y-13568771D01*
X20348934Y-13540200D01*
X20320363Y-13497343D01*
X20306077Y-13483057D01*
M02*
