G04 #@! TF.GenerationSoftware,KiCad,Pcbnew,(5.1.10)-1*
G04 #@! TF.CreationDate,2023-08-02T14:32:02+03:00*
G04 #@! TF.ProjectId,trigger_cct,74726967-6765-4725-9f63-63742e6b6963,rev?*
G04 #@! TF.SameCoordinates,Original*
G04 #@! TF.FileFunction,Legend,Top*
G04 #@! TF.FilePolarity,Positive*
%FSLAX46Y46*%
G04 Gerber Fmt 4.6, Leading zero omitted, Abs format (unit mm)*
G04 Created by KiCad (PCBNEW (5.1.10)-1) date 2023-08-02 14:32:02*
%MOMM*%
%LPD*%
G01*
G04 APERTURE LIST*
%ADD10C,0.150000*%
%ADD11C,0.120000*%
%ADD12C,6.400000*%
%ADD13C,1.440000*%
%ADD14O,1.600000X1.600000*%
%ADD15R,1.600000X1.600000*%
%ADD16O,2.000000X1.905000*%
%ADD17R,2.000000X1.905000*%
%ADD18C,1.600000*%
%ADD19R,1.500000X1.050000*%
%ADD20O,1.500000X1.050000*%
%ADD21R,1.050000X1.500000*%
%ADD22O,1.050000X1.500000*%
%ADD23O,1.700000X1.700000*%
%ADD24R,1.700000X1.700000*%
%ADD25R,3.500000X3.500000*%
%ADD26C,1.800000*%
%ADD27R,1.800000X1.800000*%
G04 APERTURE END LIST*
D10*
X135779095Y-65870628D02*
X136541000Y-65870628D01*
X136160047Y-66251580D02*
X136160047Y-65489676D01*
X137541000Y-66251580D02*
X136969571Y-66251580D01*
X137255285Y-66251580D02*
X137255285Y-65251580D01*
X137160047Y-65394438D01*
X137064809Y-65489676D01*
X136969571Y-65537295D01*
X137921952Y-65346819D02*
X137969571Y-65299200D01*
X138064809Y-65251580D01*
X138302904Y-65251580D01*
X138398142Y-65299200D01*
X138445761Y-65346819D01*
X138493380Y-65442057D01*
X138493380Y-65537295D01*
X138445761Y-65680152D01*
X137874333Y-66251580D01*
X138493380Y-66251580D01*
X138779095Y-65251580D02*
X139112428Y-66251580D01*
X139445761Y-65251580D01*
X136541000Y-66901580D02*
X136731476Y-66901580D01*
X136826714Y-66949200D01*
X136921952Y-67044438D01*
X136969571Y-67234914D01*
X136969571Y-67568247D01*
X136921952Y-67758723D01*
X136826714Y-67853961D01*
X136731476Y-67901580D01*
X136541000Y-67901580D01*
X136445761Y-67853961D01*
X136350523Y-67758723D01*
X136302904Y-67568247D01*
X136302904Y-67234914D01*
X136350523Y-67044438D01*
X136445761Y-66949200D01*
X136541000Y-66901580D01*
X137398142Y-66901580D02*
X137398142Y-67711104D01*
X137445761Y-67806342D01*
X137493380Y-67853961D01*
X137588619Y-67901580D01*
X137779095Y-67901580D01*
X137874333Y-67853961D01*
X137921952Y-67806342D01*
X137969571Y-67711104D01*
X137969571Y-66901580D01*
X138302904Y-66901580D02*
X138874333Y-66901580D01*
X138588619Y-67901580D02*
X138588619Y-66901580D01*
D11*
X139589200Y-64354400D02*
X140919200Y-64354400D01*
X139589200Y-65684400D02*
X139589200Y-64354400D01*
X139589200Y-66954400D02*
X142249200Y-66954400D01*
X142249200Y-66954400D02*
X142249200Y-69554400D01*
X139589200Y-66954400D02*
X139589200Y-69554400D01*
X139589200Y-69554400D02*
X142249200Y-69554400D01*
D10*
X133197695Y-66111380D02*
X133197695Y-65111380D01*
X133197695Y-65587571D02*
X133769123Y-65587571D01*
X133769123Y-66111380D02*
X133769123Y-65111380D01*
X134150076Y-65111380D02*
X134769123Y-65111380D01*
X134435790Y-65492333D01*
X134578647Y-65492333D01*
X134673885Y-65539952D01*
X134721504Y-65587571D01*
X134769123Y-65682809D01*
X134769123Y-65920904D01*
X134721504Y-66016142D01*
X134673885Y-66063761D01*
X134578647Y-66111380D01*
X134292933Y-66111380D01*
X134197695Y-66063761D01*
X134150076Y-66016142D01*
X136093295Y-99300180D02*
X136093295Y-98300180D01*
X136093295Y-98776371D02*
X136664723Y-98776371D01*
X136664723Y-99300180D02*
X136664723Y-98300180D01*
X137093295Y-98395419D02*
X137140914Y-98347800D01*
X137236152Y-98300180D01*
X137474247Y-98300180D01*
X137569485Y-98347800D01*
X137617104Y-98395419D01*
X137664723Y-98490657D01*
X137664723Y-98585895D01*
X137617104Y-98728752D01*
X137045676Y-99300180D01*
X137664723Y-99300180D01*
X172618495Y-99477980D02*
X172618495Y-98477980D01*
X172618495Y-98954171D02*
X173189923Y-98954171D01*
X173189923Y-99477980D02*
X173189923Y-98477980D01*
X174189923Y-99477980D02*
X173618495Y-99477980D01*
X173904209Y-99477980D02*
X173904209Y-98477980D01*
X173808971Y-98620838D01*
X173713733Y-98716076D01*
X173618495Y-98763695D01*
X140585866Y-62806780D02*
X140585866Y-63521066D01*
X140538247Y-63663923D01*
X140443009Y-63759161D01*
X140300152Y-63806780D01*
X140204914Y-63806780D01*
X141014438Y-62902019D02*
X141062057Y-62854400D01*
X141157295Y-62806780D01*
X141395390Y-62806780D01*
X141490628Y-62854400D01*
X141538247Y-62902019D01*
X141585866Y-62997257D01*
X141585866Y-63092495D01*
X141538247Y-63235352D01*
X140966819Y-63806780D01*
X141585866Y-63806780D01*
%LPC*%
D12*
X136753600Y-61569600D03*
X136855200Y-103047800D03*
X173380400Y-103225600D03*
D13*
X137668000Y-83896200D03*
X140208000Y-83896200D03*
X142748000Y-83896200D03*
X160401000Y-68148200D03*
X160401000Y-70688200D03*
X160401000Y-73228200D03*
D14*
X148793200Y-87325200D03*
X156413200Y-94945200D03*
X148793200Y-89865200D03*
X156413200Y-92405200D03*
X148793200Y-92405200D03*
X156413200Y-89865200D03*
X148793200Y-94945200D03*
D15*
X156413200Y-87325200D03*
D16*
X154254200Y-71678800D03*
X154254200Y-69138800D03*
D17*
X154254200Y-66598800D03*
D14*
X161315400Y-90322400D03*
D18*
X161315400Y-97942400D03*
D14*
X164617400Y-81991200D03*
D18*
X172237400Y-81991200D03*
D14*
X164642800Y-76530200D03*
D18*
X172262800Y-76530200D03*
D14*
X164769800Y-71551800D03*
D18*
X172389800Y-71551800D03*
D14*
X172720000Y-61798200D03*
D18*
X165100000Y-61798200D03*
D19*
X166268400Y-100888800D03*
D20*
X166268400Y-98348800D03*
X166268400Y-99618800D03*
D19*
X156819600Y-101650800D03*
D20*
X156819600Y-99110800D03*
X156819600Y-100380800D03*
D21*
X159181800Y-82778600D03*
D22*
X156641800Y-82778600D03*
X157911800Y-82778600D03*
D23*
X157708600Y-60934600D03*
D24*
X155168600Y-60934600D03*
D23*
X161594800Y-103581200D03*
D24*
X161594800Y-101041200D03*
D23*
X140919200Y-68224400D03*
D24*
X140919200Y-65684400D03*
G36*
G01*
X148197600Y-60530800D02*
X149947600Y-60530800D01*
G75*
G02*
X150822600Y-61405800I0J-875000D01*
G01*
X150822600Y-63155800D01*
G75*
G02*
X149947600Y-64030800I-875000J0D01*
G01*
X148197600Y-64030800D01*
G75*
G02*
X147322600Y-63155800I0J875000D01*
G01*
X147322600Y-61405800D01*
G75*
G02*
X148197600Y-60530800I875000J0D01*
G01*
G37*
G36*
G01*
X143372600Y-57780800D02*
X145372600Y-57780800D01*
G75*
G02*
X146122600Y-58530800I0J-750000D01*
G01*
X146122600Y-60030800D01*
G75*
G02*
X145372600Y-60780800I-750000J0D01*
G01*
X143372600Y-60780800D01*
G75*
G02*
X142622600Y-60030800I0J750000D01*
G01*
X142622600Y-58530800D01*
G75*
G02*
X143372600Y-57780800I750000J0D01*
G01*
G37*
D25*
X144372600Y-65280800D03*
D26*
X171170600Y-88442800D03*
D27*
X168630600Y-88442800D03*
D18*
X141147800Y-90972000D03*
D15*
X141147800Y-93472000D03*
D18*
X146634200Y-76214600D03*
D15*
X146634200Y-78714600D03*
D18*
X140872200Y-99161600D03*
X145872200Y-99161600D03*
X151104600Y-77698600D03*
X156104600Y-77698600D03*
X172640000Y-65506600D03*
X167640000Y-65506600D03*
X139115800Y-74385800D03*
D15*
X139115800Y-76885800D03*
D18*
X153336000Y-82524600D03*
X148336000Y-82524600D03*
X150501600Y-100355400D03*
D15*
X152501600Y-100355400D03*
M02*
