M48
; DRILL file {KiCad (5.1.10)-1} date 08/02/23 14:21:35
; FORMAT={-:-/ absolute / metric / decimal}
; #@! TF.CreationDate,2023-08-02T14:21:35+03:00
; #@! TF.GenerationSoftware,Kicad,Pcbnew,(5.1.10)-1
; #@! TF.FileFunction,Plated,1,2,PTH
FMAT,2
METRIC
T1C0.400
T2C0.750
T3C0.800
T4C1.000
T5C3.200
%
G90
G05
T1
X199.339Y-102.413
T2
X196.596Y-95.682
X196.596Y-96.952
X196.596Y-98.222
T3
X188.366Y-97.028
X188.366Y-104.648
X192.253Y-96.977
X192.253Y-104.597
X196.621Y-84.582
X196.621Y-92.202
X210.566Y-84.531
X213.066Y-84.531
T4
X189.001Y-108.89
X191.541Y-108.89
X202.006Y-113.411
X203.276Y-92.202
X203.276Y-99.702
X204.851Y-84.607
X210.617Y-77.064
X213.157Y-77.064
X218.592Y-84.557
T5
X187.706Y-71.018
X222.148Y-70.968
X222.148Y-110.642
T0
M30
