G04 #@! TF.GenerationSoftware,KiCad,Pcbnew,(5.1.10)-1*
G04 #@! TF.CreationDate,2023-08-02T14:16:35+03:00*
G04 #@! TF.ProjectId,hv_cct,68765f63-6374-42e6-9b69-6361645f7063,rev?*
G04 #@! TF.SameCoordinates,Original*
G04 #@! TF.FileFunction,Legend,Top*
G04 #@! TF.FilePolarity,Positive*
%FSLAX46Y46*%
G04 Gerber Fmt 4.6, Leading zero omitted, Abs format (unit mm)*
G04 Created by KiCad (PCBNEW (5.1.10)-1) date 2023-08-02 14:16:35*
%MOMM*%
%LPD*%
G01*
G04 APERTURE LIST*
%ADD10C,0.120000*%
%ADD11C,0.150000*%
%ADD12C,6.400000*%
%ADD13C,2.000000*%
%ADD14O,1.600000X1.600000*%
%ADD15C,1.600000*%
%ADD16O,1.700000X1.700000*%
%ADD17R,1.700000X1.700000*%
%ADD18R,1.500000X1.050000*%
%ADD19O,1.500000X1.050000*%
%ADD20R,1.600000X1.600000*%
G04 APERTURE END LIST*
D10*
X209286800Y-75733600D02*
X209286800Y-78393600D01*
X211886800Y-75733600D02*
X209286800Y-75733600D01*
X211886800Y-78393600D02*
X209286800Y-78393600D01*
X211886800Y-75733600D02*
X211886800Y-78393600D01*
X213156800Y-75733600D02*
X214486800Y-75733600D01*
X214486800Y-75733600D02*
X214486800Y-77063600D01*
D11*
X186944095Y-67270780D02*
X186944095Y-66270780D01*
X186944095Y-66746971D02*
X187515523Y-66746971D01*
X187515523Y-67270780D02*
X187515523Y-66270780D01*
X188515523Y-67270780D02*
X187944095Y-67270780D01*
X188229809Y-67270780D02*
X188229809Y-66270780D01*
X188134571Y-66413638D01*
X188039333Y-66508876D01*
X187944095Y-66556495D01*
X221386495Y-106894780D02*
X221386495Y-105894780D01*
X221386495Y-106370971D02*
X221957923Y-106370971D01*
X221957923Y-106894780D02*
X221957923Y-105894780D01*
X222338876Y-105894780D02*
X222957923Y-105894780D01*
X222624590Y-106275733D01*
X222767447Y-106275733D01*
X222862685Y-106323352D01*
X222910304Y-106370971D01*
X222957923Y-106466209D01*
X222957923Y-106704304D01*
X222910304Y-106799542D01*
X222862685Y-106847161D01*
X222767447Y-106894780D01*
X222481733Y-106894780D01*
X222386495Y-106847161D01*
X222338876Y-106799542D01*
X221386495Y-67219980D02*
X221386495Y-66219980D01*
X221386495Y-66696171D02*
X221957923Y-66696171D01*
X221957923Y-67219980D02*
X221957923Y-66219980D01*
X222386495Y-66315219D02*
X222434114Y-66267600D01*
X222529352Y-66219980D01*
X222767447Y-66219980D01*
X222862685Y-66267600D01*
X222910304Y-66315219D01*
X222957923Y-66410457D01*
X222957923Y-66505695D01*
X222910304Y-66648552D01*
X222338876Y-67219980D01*
X222957923Y-67219980D01*
X214939180Y-77396933D02*
X215653466Y-77396933D01*
X215796323Y-77444552D01*
X215891561Y-77539790D01*
X215939180Y-77682647D01*
X215939180Y-77777885D01*
X214939180Y-76444552D02*
X214939180Y-76920742D01*
X215415371Y-76968361D01*
X215367752Y-76920742D01*
X215320133Y-76825504D01*
X215320133Y-76587409D01*
X215367752Y-76492171D01*
X215415371Y-76444552D01*
X215510609Y-76396933D01*
X215748704Y-76396933D01*
X215843942Y-76444552D01*
X215891561Y-76492171D01*
X215939180Y-76587409D01*
X215939180Y-76825504D01*
X215891561Y-76920742D01*
X215843942Y-76968361D01*
%LPC*%
D12*
X187706000Y-71018400D03*
X222148400Y-110642400D03*
X222148400Y-70967600D03*
D13*
X203276200Y-99702000D03*
X203276200Y-92202000D03*
D14*
X196621400Y-92202000D03*
D15*
X196621400Y-84582000D03*
D14*
X192252600Y-104597200D03*
D15*
X192252600Y-96977200D03*
D14*
X188366400Y-97028000D03*
D15*
X188366400Y-104648000D03*
D16*
X210616800Y-77063600D03*
D17*
X213156800Y-77063600D03*
X218592400Y-84556600D03*
X204851000Y-84607400D03*
X202006200Y-113411000D03*
D16*
X189001400Y-108889800D03*
D17*
X191541400Y-108889800D03*
D18*
X196596000Y-98221800D03*
D19*
X196596000Y-95681800D03*
X196596000Y-96951800D03*
D15*
X213066000Y-84531200D03*
D20*
X210566000Y-84531200D03*
M02*
