G04 #@! TF.GenerationSoftware,KiCad,Pcbnew,(5.1.10)-1*
G04 #@! TF.CreationDate,2023-08-02T14:16:35+03:00*
G04 #@! TF.ProjectId,hv_cct,68765f63-6374-42e6-9b69-6361645f7063,rev?*
G04 #@! TF.SameCoordinates,Original*
G04 #@! TF.FileFunction,Legend,Bot*
G04 #@! TF.FilePolarity,Positive*
%FSLAX46Y46*%
G04 Gerber Fmt 4.6, Leading zero omitted, Abs format (unit mm)*
G04 Created by KiCad (PCBNEW (5.1.10)-1) date 2023-08-02 14:16:35*
%MOMM*%
%LPD*%
G01*
G04 APERTURE LIST*
%ADD10C,0.120000*%
%ADD11C,0.150000*%
%ADD12C,6.400000*%
%ADD13C,2.000000*%
%ADD14O,1.600000X1.600000*%
%ADD15C,1.600000*%
%ADD16O,1.700000X1.700000*%
%ADD17R,1.700000X1.700000*%
%ADD18R,1.500000X1.050000*%
%ADD19O,1.500000X1.050000*%
%ADD20R,1.600000X1.600000*%
%ADD21C,0.100000*%
G04 APERTURE END LIST*
D10*
X200656200Y-90682000D02*
X200656200Y-101222000D01*
X205896200Y-90682000D02*
X205896200Y-101222000D01*
X200656200Y-90682000D02*
X205896200Y-90682000D01*
X200656200Y-101222000D02*
X205896200Y-101222000D01*
X195581400Y-85122000D02*
X195251400Y-85122000D01*
X195251400Y-85122000D02*
X195251400Y-91662000D01*
X195251400Y-91662000D02*
X195581400Y-91662000D01*
X197661400Y-85122000D02*
X197991400Y-85122000D01*
X197991400Y-85122000D02*
X197991400Y-91662000D01*
X197991400Y-91662000D02*
X197661400Y-91662000D01*
X191212600Y-97517200D02*
X190882600Y-97517200D01*
X190882600Y-97517200D02*
X190882600Y-104057200D01*
X190882600Y-104057200D02*
X191212600Y-104057200D01*
X193292600Y-97517200D02*
X193622600Y-97517200D01*
X193622600Y-97517200D02*
X193622600Y-104057200D01*
X193622600Y-104057200D02*
X193292600Y-104057200D01*
X189406400Y-104108000D02*
X189736400Y-104108000D01*
X189736400Y-104108000D02*
X189736400Y-97568000D01*
X189736400Y-97568000D02*
X189406400Y-97568000D01*
X187326400Y-104108000D02*
X186996400Y-104108000D01*
X186996400Y-104108000D02*
X186996400Y-97568000D01*
X186996400Y-97568000D02*
X187326400Y-97568000D01*
X217262400Y-83226600D02*
X219922400Y-83226600D01*
X217262400Y-83286600D02*
X217262400Y-83226600D01*
X219922400Y-83286600D02*
X219922400Y-83226600D01*
X217262400Y-83286600D02*
X219922400Y-83286600D01*
X217262400Y-84556600D02*
X217262400Y-85886600D01*
X217262400Y-85886600D02*
X218592400Y-85886600D01*
X203521000Y-83277400D02*
X206181000Y-83277400D01*
X203521000Y-83337400D02*
X203521000Y-83277400D01*
X206181000Y-83337400D02*
X206181000Y-83277400D01*
X203521000Y-83337400D02*
X206181000Y-83337400D01*
X203521000Y-84607400D02*
X203521000Y-85937400D01*
X203521000Y-85937400D02*
X204851000Y-85937400D01*
X200676200Y-112081000D02*
X203336200Y-112081000D01*
X200676200Y-112141000D02*
X200676200Y-112081000D01*
X203336200Y-112141000D02*
X203336200Y-112081000D01*
X200676200Y-112141000D02*
X203336200Y-112141000D01*
X200676200Y-113411000D02*
X200676200Y-114741000D01*
X200676200Y-114741000D02*
X202006200Y-114741000D01*
X187671400Y-110219800D02*
X187671400Y-107559800D01*
X190271400Y-110219800D02*
X187671400Y-110219800D01*
X190271400Y-107559800D02*
X187671400Y-107559800D01*
X190271400Y-110219800D02*
X190271400Y-107559800D01*
X191541400Y-110219800D02*
X192871400Y-110219800D01*
X192871400Y-110219800D02*
X192871400Y-108889800D01*
X194757522Y-95113322D02*
G75*
G02*
X199196000Y-96951800I1838478J-1838478D01*
G01*
X194757522Y-98790278D02*
G75*
G03*
X199196000Y-96951800I1838478J1838478D01*
G01*
X194746000Y-98751800D02*
X194746000Y-95151800D01*
X215686000Y-84531200D02*
G75*
G03*
X215686000Y-84531200I-3870000J0D01*
G01*
X211816000Y-88361200D02*
X211816000Y-80701200D01*
X211856000Y-88361200D02*
X211856000Y-80701200D01*
X211896000Y-88361200D02*
X211896000Y-80701200D01*
X211936000Y-88360200D02*
X211936000Y-80702200D01*
X211976000Y-88358200D02*
X211976000Y-80704200D01*
X212016000Y-88356200D02*
X212016000Y-80706200D01*
X212056000Y-88354200D02*
X212056000Y-85571200D01*
X212056000Y-83491200D02*
X212056000Y-80708200D01*
X212096000Y-88351200D02*
X212096000Y-85571200D01*
X212096000Y-83491200D02*
X212096000Y-80711200D01*
X212136000Y-88348200D02*
X212136000Y-85571200D01*
X212136000Y-83491200D02*
X212136000Y-80714200D01*
X212176000Y-88345200D02*
X212176000Y-85571200D01*
X212176000Y-83491200D02*
X212176000Y-80717200D01*
X212216000Y-88341200D02*
X212216000Y-85571200D01*
X212216000Y-83491200D02*
X212216000Y-80721200D01*
X212256000Y-88336200D02*
X212256000Y-85571200D01*
X212256000Y-83491200D02*
X212256000Y-80726200D01*
X212296000Y-88332200D02*
X212296000Y-85571200D01*
X212296000Y-83491200D02*
X212296000Y-80730200D01*
X212336000Y-88326200D02*
X212336000Y-85571200D01*
X212336000Y-83491200D02*
X212336000Y-80736200D01*
X212376000Y-88321200D02*
X212376000Y-85571200D01*
X212376000Y-83491200D02*
X212376000Y-80741200D01*
X212416000Y-88315200D02*
X212416000Y-85571200D01*
X212416000Y-83491200D02*
X212416000Y-80747200D01*
X212456000Y-88308200D02*
X212456000Y-85571200D01*
X212456000Y-83491200D02*
X212456000Y-80754200D01*
X212496000Y-88301200D02*
X212496000Y-85571200D01*
X212496000Y-83491200D02*
X212496000Y-80761200D01*
X212537000Y-88294200D02*
X212537000Y-85571200D01*
X212537000Y-83491200D02*
X212537000Y-80768200D01*
X212577000Y-88286200D02*
X212577000Y-85571200D01*
X212577000Y-83491200D02*
X212577000Y-80776200D01*
X212617000Y-88278200D02*
X212617000Y-85571200D01*
X212617000Y-83491200D02*
X212617000Y-80784200D01*
X212657000Y-88269200D02*
X212657000Y-85571200D01*
X212657000Y-83491200D02*
X212657000Y-80793200D01*
X212697000Y-88260200D02*
X212697000Y-85571200D01*
X212697000Y-83491200D02*
X212697000Y-80802200D01*
X212737000Y-88251200D02*
X212737000Y-85571200D01*
X212737000Y-83491200D02*
X212737000Y-80811200D01*
X212777000Y-88241200D02*
X212777000Y-85571200D01*
X212777000Y-83491200D02*
X212777000Y-80821200D01*
X212817000Y-88230200D02*
X212817000Y-85571200D01*
X212817000Y-83491200D02*
X212817000Y-80832200D01*
X212857000Y-88219200D02*
X212857000Y-85571200D01*
X212857000Y-83491200D02*
X212857000Y-80843200D01*
X212897000Y-88208200D02*
X212897000Y-85571200D01*
X212897000Y-83491200D02*
X212897000Y-80854200D01*
X212937000Y-88196200D02*
X212937000Y-85571200D01*
X212937000Y-83491200D02*
X212937000Y-80866200D01*
X212977000Y-88184200D02*
X212977000Y-85571200D01*
X212977000Y-83491200D02*
X212977000Y-80878200D01*
X213017000Y-88171200D02*
X213017000Y-85571200D01*
X213017000Y-83491200D02*
X213017000Y-80891200D01*
X213057000Y-88157200D02*
X213057000Y-85571200D01*
X213057000Y-83491200D02*
X213057000Y-80905200D01*
X213097000Y-88144200D02*
X213097000Y-85571200D01*
X213097000Y-83491200D02*
X213097000Y-80918200D01*
X213137000Y-88129200D02*
X213137000Y-85571200D01*
X213137000Y-83491200D02*
X213137000Y-80933200D01*
X213177000Y-88115200D02*
X213177000Y-85571200D01*
X213177000Y-83491200D02*
X213177000Y-80947200D01*
X213217000Y-88099200D02*
X213217000Y-85571200D01*
X213217000Y-83491200D02*
X213217000Y-80963200D01*
X213257000Y-88084200D02*
X213257000Y-85571200D01*
X213257000Y-83491200D02*
X213257000Y-80978200D01*
X213297000Y-88067200D02*
X213297000Y-85571200D01*
X213297000Y-83491200D02*
X213297000Y-80995200D01*
X213337000Y-88051200D02*
X213337000Y-85571200D01*
X213337000Y-83491200D02*
X213337000Y-81011200D01*
X213377000Y-88033200D02*
X213377000Y-85571200D01*
X213377000Y-83491200D02*
X213377000Y-81029200D01*
X213417000Y-88015200D02*
X213417000Y-85571200D01*
X213417000Y-83491200D02*
X213417000Y-81047200D01*
X213457000Y-87997200D02*
X213457000Y-85571200D01*
X213457000Y-83491200D02*
X213457000Y-81065200D01*
X213497000Y-87978200D02*
X213497000Y-85571200D01*
X213497000Y-83491200D02*
X213497000Y-81084200D01*
X213537000Y-87958200D02*
X213537000Y-85571200D01*
X213537000Y-83491200D02*
X213537000Y-81104200D01*
X213577000Y-87938200D02*
X213577000Y-85571200D01*
X213577000Y-83491200D02*
X213577000Y-81124200D01*
X213617000Y-87917200D02*
X213617000Y-85571200D01*
X213617000Y-83491200D02*
X213617000Y-81145200D01*
X213657000Y-87896200D02*
X213657000Y-85571200D01*
X213657000Y-83491200D02*
X213657000Y-81166200D01*
X213697000Y-87874200D02*
X213697000Y-85571200D01*
X213697000Y-83491200D02*
X213697000Y-81188200D01*
X213737000Y-87852200D02*
X213737000Y-85571200D01*
X213737000Y-83491200D02*
X213737000Y-81210200D01*
X213777000Y-87828200D02*
X213777000Y-85571200D01*
X213777000Y-83491200D02*
X213777000Y-81234200D01*
X213817000Y-87805200D02*
X213817000Y-85571200D01*
X213817000Y-83491200D02*
X213817000Y-81257200D01*
X213857000Y-87780200D02*
X213857000Y-85571200D01*
X213857000Y-83491200D02*
X213857000Y-81282200D01*
X213897000Y-87755200D02*
X213897000Y-85571200D01*
X213897000Y-83491200D02*
X213897000Y-81307200D01*
X213937000Y-87729200D02*
X213937000Y-85571200D01*
X213937000Y-83491200D02*
X213937000Y-81333200D01*
X213977000Y-87703200D02*
X213977000Y-85571200D01*
X213977000Y-83491200D02*
X213977000Y-81359200D01*
X214017000Y-87675200D02*
X214017000Y-85571200D01*
X214017000Y-83491200D02*
X214017000Y-81387200D01*
X214057000Y-87647200D02*
X214057000Y-85571200D01*
X214057000Y-83491200D02*
X214057000Y-81415200D01*
X214097000Y-87619200D02*
X214097000Y-85571200D01*
X214097000Y-83491200D02*
X214097000Y-81443200D01*
X214137000Y-87589200D02*
X214137000Y-81473200D01*
X214177000Y-87559200D02*
X214177000Y-81503200D01*
X214217000Y-87527200D02*
X214217000Y-81535200D01*
X214257000Y-87495200D02*
X214257000Y-81567200D01*
X214297000Y-87462200D02*
X214297000Y-81600200D01*
X214337000Y-87429200D02*
X214337000Y-81633200D01*
X214377000Y-87394200D02*
X214377000Y-81668200D01*
X214417000Y-87358200D02*
X214417000Y-81704200D01*
X214457000Y-87321200D02*
X214457000Y-81741200D01*
X214497000Y-87283200D02*
X214497000Y-81779200D01*
X214537000Y-87244200D02*
X214537000Y-81818200D01*
X214577000Y-87204200D02*
X214577000Y-81858200D01*
X214617000Y-87163200D02*
X214617000Y-81899200D01*
X214657000Y-87120200D02*
X214657000Y-81942200D01*
X214697000Y-87077200D02*
X214697000Y-81985200D01*
X214737000Y-87031200D02*
X214737000Y-82031200D01*
X214777000Y-86985200D02*
X214777000Y-82077200D01*
X214817000Y-86936200D02*
X214817000Y-82126200D01*
X214857000Y-86886200D02*
X214857000Y-82176200D01*
X214897000Y-86835200D02*
X214897000Y-82227200D01*
X214937000Y-86781200D02*
X214937000Y-82281200D01*
X214977000Y-86726200D02*
X214977000Y-82336200D01*
X215017000Y-86668200D02*
X215017000Y-82394200D01*
X215057000Y-86608200D02*
X215057000Y-82454200D01*
X215097000Y-86545200D02*
X215097000Y-82517200D01*
X215137000Y-86480200D02*
X215137000Y-82582200D01*
X215177000Y-86412200D02*
X215177000Y-82650200D01*
X215217000Y-86340200D02*
X215217000Y-82722200D01*
X215257000Y-86264200D02*
X215257000Y-82798200D01*
X215297000Y-86185200D02*
X215297000Y-82877200D01*
X215337000Y-86100200D02*
X215337000Y-82962200D01*
X215377000Y-86009200D02*
X215377000Y-83053200D01*
X215417000Y-85912200D02*
X215417000Y-83150200D01*
X215457000Y-85806200D02*
X215457000Y-83256200D01*
X215497000Y-85689200D02*
X215497000Y-83373200D01*
X215537000Y-85559200D02*
X215537000Y-83503200D01*
X215577000Y-85408200D02*
X215577000Y-83654200D01*
X215617000Y-85224200D02*
X215617000Y-83838200D01*
X215657000Y-84972200D02*
X215657000Y-84090200D01*
X207673789Y-86706200D02*
X208423789Y-86706200D01*
X208048789Y-87081200D02*
X208048789Y-86331200D01*
D11*
X199883342Y-95785333D02*
X199930961Y-95737714D01*
X199978580Y-95594857D01*
X199978580Y-95499619D01*
X199930961Y-95356761D01*
X199835723Y-95261523D01*
X199740485Y-95213904D01*
X199550009Y-95166285D01*
X199407152Y-95166285D01*
X199216676Y-95213904D01*
X199121438Y-95261523D01*
X199026200Y-95356761D01*
X198978580Y-95499619D01*
X198978580Y-95594857D01*
X199026200Y-95737714D01*
X199073819Y-95785333D01*
X199978580Y-96737714D02*
X199978580Y-96166285D01*
X199978580Y-96452000D02*
X198978580Y-96452000D01*
X199121438Y-96356761D01*
X199216676Y-96261523D01*
X199264295Y-96166285D01*
X194703780Y-88225333D02*
X194227590Y-87892000D01*
X194703780Y-87653904D02*
X193703780Y-87653904D01*
X193703780Y-88034857D01*
X193751400Y-88130095D01*
X193799019Y-88177714D01*
X193894257Y-88225333D01*
X194037114Y-88225333D01*
X194132352Y-88177714D01*
X194179971Y-88130095D01*
X194227590Y-88034857D01*
X194227590Y-87653904D01*
X193703780Y-88558666D02*
X193703780Y-89177714D01*
X194084733Y-88844380D01*
X194084733Y-88987238D01*
X194132352Y-89082476D01*
X194179971Y-89130095D01*
X194275209Y-89177714D01*
X194513304Y-89177714D01*
X194608542Y-89130095D01*
X194656161Y-89082476D01*
X194703780Y-88987238D01*
X194703780Y-88701523D01*
X194656161Y-88606285D01*
X194608542Y-88558666D01*
X195498980Y-102728733D02*
X195022790Y-102395400D01*
X195498980Y-102157304D02*
X194498980Y-102157304D01*
X194498980Y-102538257D01*
X194546600Y-102633495D01*
X194594219Y-102681114D01*
X194689457Y-102728733D01*
X194832314Y-102728733D01*
X194927552Y-102681114D01*
X194975171Y-102633495D01*
X195022790Y-102538257D01*
X195022790Y-102157304D01*
X194594219Y-103109685D02*
X194546600Y-103157304D01*
X194498980Y-103252542D01*
X194498980Y-103490638D01*
X194546600Y-103585876D01*
X194594219Y-103633495D01*
X194689457Y-103681114D01*
X194784695Y-103681114D01*
X194927552Y-103633495D01*
X195498980Y-103062066D01*
X195498980Y-103681114D01*
X191188780Y-100671333D02*
X190712590Y-100338000D01*
X191188780Y-100099904D02*
X190188780Y-100099904D01*
X190188780Y-100480857D01*
X190236400Y-100576095D01*
X190284019Y-100623714D01*
X190379257Y-100671333D01*
X190522114Y-100671333D01*
X190617352Y-100623714D01*
X190664971Y-100576095D01*
X190712590Y-100480857D01*
X190712590Y-100099904D01*
X191188780Y-101623714D02*
X191188780Y-101052285D01*
X191188780Y-101338000D02*
X190188780Y-101338000D01*
X190331638Y-101242761D01*
X190426876Y-101147523D01*
X190474495Y-101052285D01*
X218925733Y-86338980D02*
X218925733Y-87053266D01*
X218973352Y-87196123D01*
X219068590Y-87291361D01*
X219211447Y-87338980D01*
X219306685Y-87338980D01*
X218020971Y-86672314D02*
X218020971Y-87338980D01*
X218259066Y-86291361D02*
X218497161Y-87005647D01*
X217878114Y-87005647D01*
X205184333Y-86389780D02*
X205184333Y-87104066D01*
X205231952Y-87246923D01*
X205327190Y-87342161D01*
X205470047Y-87389780D01*
X205565285Y-87389780D01*
X204803380Y-86389780D02*
X204184333Y-86389780D01*
X204517666Y-86770733D01*
X204374809Y-86770733D01*
X204279571Y-86818352D01*
X204231952Y-86865971D01*
X204184333Y-86961209D01*
X204184333Y-87199304D01*
X204231952Y-87294542D01*
X204279571Y-87342161D01*
X204374809Y-87389780D01*
X204660523Y-87389780D01*
X204755761Y-87342161D01*
X204803380Y-87294542D01*
X199494733Y-113371380D02*
X199494733Y-114085666D01*
X199542352Y-114228523D01*
X199637590Y-114323761D01*
X199780447Y-114371380D01*
X199875685Y-114371380D01*
X199066161Y-113466619D02*
X199018542Y-113419000D01*
X198923304Y-113371380D01*
X198685209Y-113371380D01*
X198589971Y-113419000D01*
X198542352Y-113466619D01*
X198494733Y-113561857D01*
X198494733Y-113657095D01*
X198542352Y-113799952D01*
X199113780Y-114371380D01*
X198494733Y-114371380D01*
X185431180Y-108632666D02*
X186145466Y-108632666D01*
X186288323Y-108585047D01*
X186383561Y-108489809D01*
X186431180Y-108346952D01*
X186431180Y-108251714D01*
X186431180Y-109632666D02*
X186431180Y-109061238D01*
X186431180Y-109346952D02*
X185431180Y-109346952D01*
X185574038Y-109251714D01*
X185669276Y-109156476D01*
X185716895Y-109061238D01*
X199029580Y-99998304D02*
X198029580Y-99998304D01*
X198029580Y-100236400D01*
X198077200Y-100379257D01*
X198172438Y-100474495D01*
X198267676Y-100522114D01*
X198458152Y-100569733D01*
X198601009Y-100569733D01*
X198791485Y-100522114D01*
X198886723Y-100474495D01*
X198981961Y-100379257D01*
X199029580Y-100236400D01*
X199029580Y-99998304D01*
X199029580Y-101522114D02*
X199029580Y-100950685D01*
X199029580Y-101236400D02*
X198029580Y-101236400D01*
X198172438Y-101141161D01*
X198267676Y-101045923D01*
X198315295Y-100950685D01*
X211982666Y-89888342D02*
X212030285Y-89935961D01*
X212173142Y-89983580D01*
X212268380Y-89983580D01*
X212411238Y-89935961D01*
X212506476Y-89840723D01*
X212554095Y-89745485D01*
X212601714Y-89555009D01*
X212601714Y-89412152D01*
X212554095Y-89221676D01*
X212506476Y-89126438D01*
X212411238Y-89031200D01*
X212268380Y-88983580D01*
X212173142Y-88983580D01*
X212030285Y-89031200D01*
X211982666Y-89078819D01*
X211601714Y-89078819D02*
X211554095Y-89031200D01*
X211458857Y-88983580D01*
X211220761Y-88983580D01*
X211125523Y-89031200D01*
X211077904Y-89078819D01*
X211030285Y-89174057D01*
X211030285Y-89269295D01*
X211077904Y-89412152D01*
X211649333Y-89983580D01*
X211030285Y-89983580D01*
%LPC*%
D12*
X187706000Y-71018400D03*
X222148400Y-110642400D03*
X222148400Y-70967600D03*
D13*
X203276200Y-99702000D03*
X203276200Y-92202000D03*
D14*
X196621400Y-92202000D03*
D15*
X196621400Y-84582000D03*
D14*
X192252600Y-104597200D03*
D15*
X192252600Y-96977200D03*
D14*
X188366400Y-97028000D03*
D15*
X188366400Y-104648000D03*
D16*
X210616800Y-77063600D03*
D17*
X213156800Y-77063600D03*
X218592400Y-84556600D03*
X204851000Y-84607400D03*
X202006200Y-113411000D03*
D16*
X189001400Y-108889800D03*
D17*
X191541400Y-108889800D03*
D18*
X196596000Y-98221800D03*
D19*
X196596000Y-95681800D03*
X196596000Y-96951800D03*
D15*
X213066000Y-84531200D03*
D20*
X210566000Y-84531200D03*
D21*
X201600600Y-103632800D02*
X200430600Y-103632800D01*
X200430600Y-102158000D01*
X201600600Y-102158000D01*
X201600600Y-103632800D01*
G36*
X201600600Y-103632800D02*
G01*
X200430600Y-103632800D01*
X200430600Y-102158000D01*
X201600600Y-102158000D01*
X201600600Y-103632800D01*
G37*
X203785000Y-103632800D02*
X202615000Y-103632800D01*
X202615000Y-102158000D01*
X203785000Y-102158000D01*
X203785000Y-103632800D01*
G36*
X203785000Y-103632800D02*
G01*
X202615000Y-103632800D01*
X202615000Y-102158000D01*
X203785000Y-102158000D01*
X203785000Y-103632800D01*
G37*
X202946800Y-111024200D02*
X201192600Y-111024200D01*
X201192600Y-109803400D01*
X202946800Y-109803400D01*
X202946800Y-111024200D01*
G36*
X202946800Y-111024200D02*
G01*
X201192600Y-111024200D01*
X201192600Y-109803400D01*
X202946800Y-109803400D01*
X202946800Y-111024200D01*
G37*
M02*
